<svg width="39" height="6" viewBox="0 0 39 6" fill="none" xmlns="http://www.w3.org/2000/svg">
<path d="M23.9308 5.00974C23.9308 5.00974 24.7673 5.24133 25.8357 5.24133C26.9744 5.24133 27.5015 5.11502 27.5015 5.11502V4.27299C27.5015 4.27299 26.9322 4.38531 26.1379 4.38531C25.4421 4.38531 25.0132 4.29402 25.0132 4.29402V3.10126H27.1714V2.25923H25.0132V1.12258C25.0132 1.12258 25.435 1.04533 26.0677 1.04533C26.7777 1.04533 27.4173 1.15763 27.4173 1.15763V0.308578C27.4173 0.308578 26.8549 0.18925 25.9411 0.18925C24.7251 0.18925 23.9308 0.40694 23.9308 0.40694V5.00974ZM8.50779 3.09413C8.4796 3.1644 8.44461 3.29772 8.4235 3.37494C8.40247 3.29772 8.36726 3.1644 8.33922 3.09413L7.38306 0.645432C7.2214 0.238487 6.96846 0.18925 6.50449 0.18925C6.34274 0.18925 6.01227 0.210335 6.01227 0.210335L5.52027 5.17115H6.60994L6.84886 1.84531L7.8822 4.36422C7.95962 4.56069 8.11418 4.6379 8.4235 4.6379C8.73268 4.6379 8.88746 4.56069 8.96474 4.36422L9.99805 1.84531L10.2371 5.17115H11.3266L10.8346 0.210335C10.8346 0.210335 10.5041 0.18925 10.3426 0.18925C9.87863 0.18925 9.62561 0.238487 9.46383 0.645432L8.50779 3.09413ZM3.05293 4.11164C2.82094 4.20289 2.25848 4.38531 1.84383 4.38531C1.39389 4.38531 1.05651 4.23096 1.05651 3.73974C1.05651 3.31177 1.28836 3.06621 1.90717 3.04513L3.05293 3.00305V4.11164ZM2.40617 0.18925C1.43609 0.18925 0.676886 0.427884 0.38161 0.575282L0.613629 1.38919C0.613629 1.38919 1.35887 1.12258 2.0898 1.12258C2.71546 1.12258 3.03877 1.29792 3.03877 1.91537V2.2663H2.0898C0.480064 2.2663 0.00195312 3.00305 0.00195312 3.81701C0.00195312 4.89748 0.845593 5.24133 1.61181 5.24133C2.50454 5.24133 3.02481 4.8695 3.08801 4.8695C3.13728 4.8695 3.32003 5.06587 4.13535 5.06587V1.62773C4.13535 0.596367 3.49576 0.18925 2.40617 0.18925ZM15.4531 4.11164C15.2211 4.20289 14.6587 4.38531 14.2441 4.38531C13.7941 4.38531 13.4566 4.23096 13.4566 3.73974C13.4566 3.31177 13.6887 3.06621 14.3072 3.04513L15.4531 3.00305V4.11164ZM14.8063 0.18925C13.8361 0.18925 13.077 0.427884 12.7818 0.575282L13.0138 1.38919C13.0138 1.38919 13.759 1.12258 14.4899 1.12258C15.1156 1.12258 15.4389 1.29792 15.4389 1.91537V2.2663H14.4899C12.8802 2.2663 12.4021 3.00305 12.4021 3.81701C12.4021 4.89748 13.2457 5.24133 14.012 5.24133C14.9047 5.24133 15.4249 4.8695 15.4882 4.8695C15.5374 4.8695 15.7201 5.06587 16.5356 5.06587V1.62773C16.5356 0.596367 15.8959 0.18925 14.8063 0.18925ZM32.0498 3.9362C31.7898 4.06242 31.2275 4.27299 30.7144 4.27299C29.969 4.27299 29.8425 3.9362 29.8425 3.1644V0.231361H29.6808C29.4349 0.231361 28.8866 0.273451 28.753 0.301602V3.30474C28.753 4.6169 29.0764 5.24133 30.4119 5.24133C31.4313 5.24133 32.0287 4.84847 32.0708 4.84847C32.085 4.84847 32.4365 5.06587 33.1397 5.06587V0.301602C33.0623 0.287552 32.5348 0.231361 32.2676 0.231361H32.0498V3.9362ZM34.4267 5.06587C34.4267 5.06587 35.1015 5.24133 36.0435 5.24133C36.9363 5.24133 38.061 4.93965 38.061 3.73285C38.061 2.94683 37.4775 2.61007 36.5285 2.2663C36.0154 2.07682 35.5795 1.9084 35.5795 1.55753C35.5795 1.38919 35.7061 1.05944 36.3598 1.05944C36.9714 1.05944 37.5971 1.34004 37.5971 1.34004L37.8713 0.53317C37.6883 0.441934 37.0909 0.18925 36.2615 0.18925C35.3617 0.18925 34.4829 0.666458 34.4829 1.62773C34.4829 2.61719 35.3827 2.91885 36.0856 3.15044C36.5638 3.31177 36.9644 3.48026 36.9644 3.79593C36.9644 4.1045 36.7957 4.3713 35.9873 4.3713C35.3265 4.3713 34.6235 4.22398 34.6235 4.22398L34.4267 5.06587ZM19.2068 1.12953C19.3825 1.09448 19.727 1.04533 20.0714 1.04533C20.8587 1.04533 21.4775 1.48741 21.4775 2.68036C21.4775 3.8381 21.175 4.38531 19.9731 4.38531C19.5864 4.38531 19.2068 4.32918 19.2068 4.32918V1.12953ZM20.1206 0.18925C19.5021 0.18925 18.6444 0.294536 18.1172 0.483955V5.09394C18.5531 5.18529 19.3686 5.24133 19.938 5.24133C21.8781 5.24133 22.6303 4.4835 22.6303 2.68036C22.6303 1.12258 21.6741 0.18925 20.1206 0.18925Z" fill="#1B69BC"/>
</svg>
