<svg width="114" height="16" viewBox="0 0 114 16" fill="none" xmlns="http://www.w3.org/2000/svg">
<path d="M71.5463 14.8124C71.5463 14.8124 74.0301 15.5 77.2024 15.5C80.5833 15.5 82.1481 15.125 82.1481 15.125V12.6249C82.1481 12.6249 80.4579 12.9584 78.0995 12.9584C76.0337 12.9584 74.7603 12.6874 74.7603 12.6874V9.14597H81.1682V6.64593H74.7603V3.27113C74.7603 3.27113 76.0124 3.04178 77.8911 3.04178C79.9993 3.04178 81.8981 3.37518 81.8981 3.37518V0.854294C81.8981 0.854294 80.2285 0.5 77.5151 0.5C73.9047 0.5 71.5463 1.14634 71.5463 1.14634V14.8124ZM25.7544 9.12481C25.6707 9.33345 25.5669 9.72928 25.5042 9.95854C25.4417 9.72928 25.3372 9.33345 25.2539 9.12481L22.415 1.85444C21.9351 0.646188 21.1841 0.5 19.8065 0.5C19.3263 0.5 18.3451 0.562604 18.3451 0.562604L16.8843 15.2916H20.1196L20.829 5.41696L23.897 12.8958C24.1269 13.4791 24.5858 13.7084 25.5042 13.7084C26.4222 13.7084 26.8817 13.4791 27.1111 12.8958L30.1791 5.41696L30.8889 15.2916H34.1237L32.6629 0.562604C32.6629 0.562604 31.6818 0.5 31.2021 0.5C29.8246 0.5 29.0733 0.646188 28.593 1.85444L25.7544 9.12481ZM9.55856 12.1458C8.86978 12.4168 7.19979 12.9584 5.96866 12.9584C4.63276 12.9584 3.63107 12.5001 3.63107 11.0417C3.63107 9.77099 4.31943 9.04191 6.15673 8.97931L9.55856 8.85437V12.1458ZM7.6383 0.5C4.75804 0.5 2.50392 1.20852 1.62723 1.64616L2.31611 4.0627C2.31611 4.0627 4.52878 3.27113 6.69897 3.27113C8.55661 3.27113 9.51653 3.79173 9.51653 5.62498V6.66691H6.69897C1.91955 6.66691 0.5 8.85437 0.5 11.2711C0.5 14.4791 3.00483 15.5 5.27977 15.5C7.93037 15.5 9.47509 14.396 9.66272 14.396C9.80902 14.396 10.3516 14.979 12.7723 14.979V4.77096C12.7723 1.70876 10.8734 0.5 7.6383 0.5ZM46.3756 12.1458C45.6866 12.4168 44.017 12.9584 42.7859 12.9584C41.4498 12.9584 40.4478 12.5001 40.4478 11.0417C40.4478 9.77099 41.1368 9.04191 42.9734 8.97931L46.3756 8.85437V12.1458ZM44.455 0.5C41.5747 0.5 39.3208 1.20852 38.4442 1.64616L39.133 4.0627C39.133 4.0627 41.3457 3.27113 43.5158 3.27113C45.3735 3.27113 46.3335 3.79173 46.3335 5.62498V6.66691H43.5158C38.7366 6.66691 37.317 8.85437 37.317 11.2711C37.317 14.4791 39.8218 15.5 42.0969 15.5C44.7474 15.5 46.2919 14.396 46.4797 14.396C46.6259 14.396 47.1685 14.979 49.5895 14.979V4.77096C49.5895 1.70876 47.6902 0.5 44.455 0.5ZM95.6525 11.625C94.8805 11.9997 93.2108 12.6249 91.6874 12.6249C89.4742 12.6249 89.0989 11.625 89.0989 9.33345V0.625032H88.6187C87.8885 0.625032 86.2606 0.749998 85.8639 0.833581V9.7501C85.8639 13.646 86.8242 15.5 90.7893 15.5C93.8159 15.5 95.5898 14.3336 95.7147 14.3336C95.7568 14.3336 96.8006 14.979 98.8883 14.979V0.833581C98.6587 0.791867 97.0925 0.625032 96.2992 0.625032H95.6525V11.625ZM102.71 14.979C102.71 14.979 104.713 15.5 107.51 15.5C110.161 15.5 113.5 14.6043 113.5 11.0212C113.5 8.68744 111.768 7.68759 108.95 6.66691C107.427 6.10433 106.132 5.60427 106.132 4.56252C106.132 4.0627 106.508 3.08365 108.449 3.08365C110.265 3.08365 112.123 3.91678 112.123 3.91678L112.937 1.52112C112.394 1.25024 110.62 0.5 108.157 0.5C105.486 0.5 102.876 1.91687 102.876 4.77096C102.876 7.70874 105.548 8.60437 107.635 9.292C109.055 9.77099 110.244 10.2712 110.244 11.2085C110.244 12.1247 109.743 12.9168 107.343 12.9168C105.381 12.9168 103.294 12.4794 103.294 12.4794L102.71 14.979ZM57.5204 3.29175C58.0422 3.1877 59.0652 3.04178 60.0877 3.04178C62.4253 3.04178 64.2623 4.35432 64.2623 7.89629C64.2623 11.3337 63.3643 12.9584 59.7958 12.9584C58.6477 12.9584 57.5204 12.7917 57.5204 12.7917V3.29175ZM60.2338 0.5C58.3972 0.5 55.8508 0.812601 54.2855 1.375V15.0624C55.5797 15.3336 58.001 15.5 59.6915 15.5C65.4518 15.5 67.6851 13.2499 67.6851 7.89629C67.6851 3.27113 64.8461 0.5 60.2338 0.5Z" fill="#1B69BC"/>
</svg>
