<svg width="37" height="7" viewBox="0 0 37 7" fill="none" xmlns="http://www.w3.org/2000/svg">
<path d="M14.3301 1.23934C14.3301 0.932371 14.5775 0.684105 14.882 0.684105C15.1876 0.684105 15.4359 0.932371 15.4359 1.23934C15.4359 1.54596 15.1876 1.79449 14.882 1.79449C14.5775 1.79449 14.3301 1.54592 14.3301 1.23934Z" fill="#273B7D"/>
<path d="M23.0527 4.93264C23.0527 4.62556 23.3 4.37698 23.6045 4.37698C23.91 4.37698 24.1583 4.62556 24.1583 4.93264C24.1583 5.23895 23.91 5.48779 23.6045 5.48779C23.3 5.48779 23.0527 5.23899 23.0527 4.93264Z" fill="#499FDD"/>
<path d="M5.25593 4.69269C4.7798 4.69269 4.44892 4.31391 4.44892 3.7726C4.44892 3.2314 4.7798 2.85285 5.25593 2.85285C5.7348 2.85285 6.06931 3.2314 6.06931 3.7726C6.06931 4.32247 5.74177 4.69273 5.25593 4.69273V4.69269ZM5.25593 2.04419C4.24862 2.04419 3.51758 2.77128 3.51758 3.7726C3.51758 4.77391 4.24862 5.50085 5.25593 5.50085C6.26702 5.50085 7.0011 4.77391 7.0011 3.7726C7.0011 2.77128 6.26702 2.04419 5.25593 2.04419ZM13.2585 3.85903C13.2194 3.78521 13.1745 3.72273 13.1266 3.67313L13.0962 3.64073L13.1282 3.60995C13.1745 3.56113 13.2217 3.50324 13.2673 3.43613L14.1563 2.11234H13.0771L12.4092 3.14786C12.3714 3.2034 12.2951 3.2314 12.1808 3.2314H12.0286V1.27366C12.0286 0.882078 11.7851 0.828776 11.522 0.828776H11.0716L11.0724 5.44994H12.0286V4.06379H12.1182C12.2272 4.06379 12.3014 4.0764 12.3354 4.13576L12.8629 5.13314C13.0103 5.40378 13.1571 5.44994 13.4333 5.44994H14.1661L13.6204 4.54563L13.2585 3.85903ZM17.9005 2.03678C17.4141 2.03678 17.1038 2.25323 16.9299 2.43627L16.8718 2.49509L16.8513 2.4151C16.8002 2.21902 16.6281 2.11114 16.3689 2.11114H15.9404L15.943 5.44879H16.8927V3.91048C16.8927 3.76006 16.9123 3.62955 16.952 3.51049C17.0577 3.1501 17.3525 2.92602 17.7211 2.92602C18.0176 2.92602 18.1334 3.08272 18.1334 3.48773V4.94138C18.1334 5.28707 18.293 5.44879 18.6383 5.44879H19.0902L19.0887 3.32597C19.0887 2.4826 18.6781 2.03678 17.9008 2.03678H17.9005ZM14.8936 2.11261H14.4435L14.4466 4.69323H14.4463V5.44956H14.9268C14.9328 5.44956 14.9376 5.45021 14.9437 5.45021L15.1675 5.44956H15.3903V5.44825H15.3918L15.3937 2.61928C15.3937 2.27795 15.2308 2.11261 14.894 2.11261H14.8936ZM8.98624 4.69269C8.51015 4.69269 8.17862 4.31391 8.17862 3.7726C8.17862 3.2314 8.51015 2.85285 8.98624 2.85285C9.4641 2.85285 9.79955 3.2314 9.79955 3.7726C9.79955 4.32247 9.47211 4.69273 8.98624 4.69273V4.69269ZM8.98624 2.04419C7.97792 2.04419 7.24673 2.77128 7.24673 3.7726C7.24673 4.77391 7.97792 5.50085 8.98624 5.50085C9.99629 5.50085 10.7316 4.77391 10.7316 3.7726C10.7316 2.77128 9.99629 2.04419 8.98624 2.04419Z" fill="#273B7D"/>
<path d="M29.3428 4.69275C28.8669 4.69275 28.5351 4.31397 28.5351 3.77266C28.5351 3.23147 28.8669 2.85291 29.3428 2.85291C29.8207 2.85291 30.1564 3.23147 30.1564 3.77266C30.1564 4.32253 29.8288 4.69279 29.3428 4.69279V4.69275ZM29.3428 2.04425C28.3347 2.04425 27.6035 2.77134 27.6035 3.77266C27.6035 4.77398 28.3347 5.50092 29.3428 5.50092C30.353 5.50092 31.0881 4.77398 31.0881 3.77266C31.0881 2.77134 30.353 2.04425 29.3428 2.04425Z" fill="#499FDD"/>
<path d="M21.0904 4.5459C20.5712 4.5459 20.3863 4.0921 20.3863 3.66684C20.3863 3.47948 20.4336 2.86882 21.0405 2.86882C21.342 2.86882 21.744 2.95541 21.744 3.69828C21.744 4.39895 21.3883 4.5459 21.0904 4.5459ZM22.237 2.10366C22.0568 2.10366 21.9181 2.17567 21.8486 2.30711L21.8224 2.35814L21.7784 2.31988C21.625 2.18697 21.3502 2.02934 20.9039 2.02934C20.0158 2.02934 19.418 2.6975 19.418 3.69184C19.418 4.68498 20.0366 5.37906 20.9217 5.37906C21.2241 5.37906 21.463 5.3084 21.6524 5.16473L21.7257 5.10958V5.20237C21.7257 5.64815 21.4379 5.89406 20.9162 5.89406C20.6627 5.89406 20.4319 5.83224 20.2776 5.77616C20.0761 5.71526 19.9581 5.76567 19.8764 5.96815L19.801 6.15498L19.6943 6.42789L19.7604 6.46314C20.0943 6.64063 20.5289 6.74658 20.9217 6.74658C21.7305 6.74658 22.6749 6.33185 22.6749 5.16473L22.6784 2.10366H22.2372" fill="#273B7D"/>
<path d="M1.71797 4.6543L0.944893 4.65353V3.72761C0.944893 3.52971 1.02147 3.42681 1.19076 3.40313H1.71797C2.09427 3.40313 2.33741 3.64091 2.33768 4.02551C2.33741 4.42022 2.10032 4.65407 1.71797 4.6543ZM0.944893 2.15652V1.91284C0.944893 1.69956 1.03498 1.59812 1.23268 1.58509H1.62826C1.96752 1.58509 2.17072 1.7885 2.17072 2.12875C2.17072 2.38824 2.03162 2.691 1.64073 2.691H0.944893V2.15652ZM2.70531 3.08062L2.56554 3.00194L2.68755 2.89742C2.82942 2.7752 3.06728 2.50047 3.06728 2.02577C3.06728 1.29941 2.50488 0.83061 1.63444 0.83061H0.641079V0.83034H0.527981C0.269915 0.839828 0.0634344 1.05007 0.0605469 1.31021V5.433H0.516419C0.517574 5.43323 0.517961 5.433 0.518346 5.43323L1.65406 5.433C2.62168 5.433 3.24623 4.90538 3.24623 4.08811C3.24623 3.64812 3.04436 3.27192 2.7051 3.08062" fill="#273B7D"/>
<path d="M35.3285 2.04767C34.9345 2.04767 34.5535 2.23253 34.309 2.54254L34.2402 2.6299L34.1862 2.53217C34.0103 2.21085 33.7075 2.04767 33.2866 2.04767C32.8451 2.04767 32.5491 2.29439 32.4115 2.44107L32.3216 2.53872L32.2869 2.41029C32.2367 2.22543 32.0724 2.12361 31.8235 2.12361H31.4244L31.4205 5.44833H32.3275V3.98069C32.3275 3.85214 32.3434 3.7249 32.3755 3.59191C32.4622 3.23728 32.7001 2.85583 33.1001 2.89398C33.3467 2.91766 33.4671 3.10861 33.4671 3.4774V5.44833H34.3805V3.98069C34.3805 3.82005 34.3955 3.69979 34.4316 3.57911C34.5052 3.24056 34.7535 2.89348 35.1394 2.89348C35.4187 2.89348 35.5219 3.05188 35.5219 3.4774V4.96229C35.5219 5.29823 35.6715 5.44833 36.0066 5.44833H36.4335L36.4342 3.32583C36.4342 2.47794 36.0616 2.04767 35.3283 2.04767H35.3285ZM27.0764 4.29398C27.0738 4.29726 26.6835 4.70952 26.1696 4.70952C25.7015 4.70952 25.2285 4.42176 25.2285 3.7794C25.2285 3.22478 25.5953 2.83717 26.1201 2.83717C26.2906 2.83717 26.4845 2.89834 26.5148 3.00124L26.5193 3.01859C26.5892 3.25189 26.8008 3.26439 26.8424 3.26439L27.3393 3.26493V2.8298C27.3393 2.25586 26.6105 2.04771 26.1201 2.04771C25.0715 2.04771 24.3105 2.77912 24.3105 3.78638C24.3105 4.79321 25.0632 5.52362 26.101 5.52362C27.0013 5.52362 27.491 4.93071 27.4955 4.92481L27.5217 4.89268L27.1282 4.23875L27.0764 4.29402" fill="#499FDD"/>
</svg>
