<svg width="109" height="18" viewBox="0 0 109 18" fill="none" xmlns="http://www.w3.org/2000/svg">
<path d="M42.8633 1.64858C42.8633 0.737167 43.5978 4.673e-05 44.502 4.673e-05C45.4092 4.673e-05 46.1466 0.737167 46.1466 1.64858C46.1466 2.55895 45.4092 3.29688 44.502 3.29688C43.5978 3.29688 42.8633 2.55884 42.8633 1.64858Z" fill="#273B7D"/>
<path d="M68.7617 12.6143C68.7617 11.7025 69.4958 10.9645 70.4 10.9645C71.3069 10.9645 72.0442 11.7025 72.0442 12.6143C72.0442 13.5237 71.3069 14.2626 70.4 14.2626C69.4958 14.2626 68.7617 13.5239 68.7617 12.6143Z" fill="#499FDD"/>
<path d="M15.923 11.9019C14.5094 11.9019 13.5269 10.7773 13.5269 9.17007C13.5269 7.56323 14.5094 6.43928 15.923 6.43928C17.3448 6.43928 18.338 7.56323 18.338 9.17007C18.338 10.8027 17.3655 11.902 15.923 11.902V11.9019ZM15.923 4.0383C12.9322 4.0383 10.7617 6.19709 10.7617 9.17007C10.7617 12.1431 12.9322 14.3014 15.923 14.3014C18.925 14.3014 21.1046 12.1431 21.1046 9.17007C21.1046 6.19709 18.925 4.0383 15.923 4.0383ZM39.6833 9.4267C39.567 9.20752 39.4337 9.02201 39.2917 8.87474L39.2013 8.77855L39.2965 8.68717C39.4338 8.5422 39.5741 8.37032 39.7094 8.17106L42.3487 4.24064H39.1447L37.1617 7.31519C37.0494 7.48009 36.8228 7.56323 36.4835 7.56323H36.0316V1.75056C36.0316 0.587909 35.3086 0.429653 34.5275 0.429653H33.1903L33.1925 14.1502H36.0316V10.0346H36.2975C36.6211 10.0346 36.8416 10.0721 36.9426 10.2483L38.5087 13.2096C38.9462 14.0132 39.3822 14.1502 40.2023 14.1502H42.378L40.7576 11.4653L39.6833 9.4267ZM53.4656 4.01631C52.0216 4.01631 51.1002 4.65895 50.5838 5.20243L50.4114 5.37706L50.3506 5.13956C50.1989 4.55738 49.6877 4.23709 48.9182 4.23709H47.6459L47.6538 14.1468H50.4735V9.57946C50.4735 9.13286 50.5315 8.74535 50.6493 8.39184C50.9632 7.32184 51.8387 6.65652 52.933 6.65652C53.8132 6.65652 54.1571 7.12178 54.1571 8.32428V12.6403C54.1571 13.6666 54.6309 14.1468 55.6562 14.1468H56.998L56.9935 7.84401C56.9935 5.33996 55.7744 4.01631 53.4665 4.01631H53.4656ZM44.5381 4.24144H43.2016L43.2107 11.9035H43.2098V14.1491H44.6364C44.6543 14.1491 44.6687 14.151 44.6867 14.151L45.3512 14.1491H46.0126V14.1452H46.0172L46.0229 5.74579C46.0229 4.73236 45.5393 4.24144 44.5391 4.24144H44.5381ZM26.9986 11.9019C25.585 11.9019 24.6007 10.7773 24.6007 9.17007C24.6007 7.56323 25.585 6.43928 26.9986 6.43928C28.4174 6.43928 29.4133 7.56323 29.4133 9.17007C29.4133 10.8027 28.4412 11.902 26.9986 11.902V11.9019ZM26.9986 4.0383C24.0048 4.0383 21.8338 6.19709 21.8338 9.17007C21.8338 12.1431 24.0048 14.3014 26.9986 14.3014C29.9975 14.3014 32.1806 12.1431 32.1806 9.17007C32.1806 6.19709 29.9975 4.0383 26.9986 4.0383Z" fill="#273B7D"/>
<path d="M87.4395 11.902C86.0265 11.902 85.0415 10.7774 85.0415 9.1702C85.0415 7.56335 86.0265 6.43941 87.4395 6.43941C88.8585 6.43941 89.855 7.56335 89.855 9.1702C89.855 10.8028 88.8823 11.9021 87.4395 11.9021V11.902ZM87.4395 4.03842C84.4464 4.03842 82.2754 6.19721 82.2754 9.1702C82.2754 12.1432 84.4464 14.3015 87.4395 14.3015C90.4387 14.3015 92.6214 12.1432 92.6214 9.1702C92.6214 6.19721 90.4387 4.03842 87.4395 4.03842Z" fill="#499FDD"/>
<path d="M62.9381 11.466C61.3965 11.466 60.8478 10.1187 60.8478 8.85604C60.8478 8.29973 60.9883 6.48665 62.79 6.48665C63.6854 6.48665 64.8787 6.74373 64.8787 8.94936C64.8787 11.0297 63.8226 11.466 62.9381 11.466ZM66.3426 4.21483C65.8076 4.21483 65.3958 4.42863 65.1894 4.81888L65.1115 4.97039L64.9808 4.85679C64.5256 4.46218 63.7096 3.99416 62.3844 3.99416C59.7478 3.99416 57.9727 5.97798 57.9727 8.93024C57.9727 11.8789 59.8094 13.9397 62.4375 13.9397C63.3351 13.9397 64.0446 13.7299 64.6069 13.3034L64.8245 13.1396V13.4151C64.8245 14.7387 63.97 15.4688 62.4211 15.4688C61.6684 15.4688 60.9832 15.2852 60.5251 15.1187C59.9268 14.9379 59.5762 15.0876 59.3336 15.6888L59.1098 16.2435L58.7931 17.0538L58.9893 17.1584C59.9806 17.6854 61.271 18 62.4375 18C64.8389 18 67.6428 16.7686 67.6428 13.3034L67.653 4.21483H66.3431" fill="#273B7D"/>
<path d="M5.42102 11.7879L3.12569 11.7856V9.03648C3.12569 8.44892 3.35306 8.1434 3.85568 8.07309H5.42102C6.53828 8.07309 7.26016 8.77906 7.26096 9.92098C7.26016 11.0929 6.55622 11.7872 5.42102 11.7879ZM3.12569 4.3718V3.64831C3.12569 3.01506 3.39317 2.71389 3.98015 2.67518H5.15464C6.16193 2.67518 6.76526 3.27912 6.76526 4.28935C6.76526 5.0598 6.35227 5.95872 5.19169 5.95872H3.12569V4.3718ZM8.3525 7.11553L7.93751 6.88193L8.29976 6.5716C8.72099 6.2087 9.42722 5.39303 9.42722 3.98361C9.42722 1.82698 7.75741 0.435082 5.17299 0.435082H2.22364V0.434281H1.88784C1.12163 0.462451 0.508573 1.08666 0.5 1.85905V14.0999H1.85352C1.85695 14.1006 1.8581 14.0999 1.85924 14.1006L5.23125 14.0999C8.10419 14.0999 9.95851 12.5334 9.95851 10.1068C9.95851 8.80047 9.35917 7.68352 8.35187 7.11553" fill="#273B7D"/>
<path d="M105.217 4.04866C104.047 4.04866 102.916 4.59752 102.19 5.51798L101.986 5.77735L101.825 5.48717C101.303 4.53317 100.404 4.04866 99.1544 4.04866C97.8437 4.04866 96.9647 4.7812 96.5563 5.21669L96.2892 5.50664L96.1864 5.12531C96.0373 4.57645 95.5495 4.27414 94.8105 4.27414H93.6254L93.6139 14.1455H96.3067V9.78793C96.3067 9.40626 96.3539 9.02848 96.4494 8.63364C96.7068 7.5807 97.4131 6.44816 98.6006 6.56142C99.333 6.63173 99.6905 7.19868 99.6905 8.29365V14.1455H102.402V9.78793C102.402 9.31099 102.447 8.95394 102.554 8.59563C102.773 7.59043 103.51 6.55993 104.656 6.55993C105.485 6.55993 105.791 7.03023 105.791 8.29365V12.7024C105.791 13.6998 106.235 14.1455 107.23 14.1455H108.498L108.5 7.84362C108.5 5.32617 107.394 4.04866 105.216 4.04866H105.217ZM80.7161 10.7181C80.7081 10.7279 79.5493 11.9519 78.0237 11.9519C76.6338 11.9519 75.2295 11.0975 75.2295 9.19029C75.2295 7.54359 76.3183 6.39274 77.8767 6.39274C78.3828 6.39274 78.9584 6.57436 79.0485 6.87988L79.0618 6.93141C79.2692 7.6241 79.8976 7.6612 80.0212 7.6612L81.4964 7.6628V6.37087C81.4964 4.6668 79.3328 4.04878 77.8767 4.04878C74.7631 4.04878 72.5039 6.2204 72.5039 9.21102C72.5039 12.2004 74.7385 14.369 77.8197 14.369C80.493 14.369 81.9468 12.6086 81.9604 12.5911L82.038 12.4957L80.8697 10.5541L80.7161 10.7182" fill="#499FDD"/>
</svg>
