<svg width="38" height="6" viewBox="0 0 38 6" fill="none" xmlns="http://www.w3.org/2000/svg">
<path d="M3.64273 3.72085C3.44735 3.92215 3.03679 4.24369 2.23999 4.24369C1.10107 4.24369 0.207031 3.4955 0.207031 2.26099C0.207031 1.02202 1.10917 0.281851 2.2436 0.281851C3.0404 0.281851 3.47526 0.612294 3.57699 0.716507L3.297 1.46024C3.22317 1.36405 2.80901 1.05854 2.29672 1.05854C1.63767 1.05854 1.13438 1.49231 1.13438 2.24496C1.13438 2.99671 1.66287 3.42336 2.29671 3.42336C2.7802 3.42336 3.13043 3.23453 3.34111 3.0172L3.64273 3.72085ZM6.74799 4.17511H5.84226V2.73574C5.84226 2.40172 5.79724 2.11224 5.4191 2.11224C5.04095 2.11224 4.92301 2.42221 4.92301 2.82837V4.17511H4.02448V0.337961H4.92302V1.25182C4.92302 1.52883 4.91844 1.83078 4.91844 1.83078C5.0616 1.58494 5.3254 1.38454 5.73595 1.38454C6.54086 1.38454 6.74793 1.89046 6.74793 2.55849L6.74799 4.17511ZM10.0252 3.0172H8.05349C8.094 3.41089 8.39472 3.59259 8.76116 3.59259C9.12309 3.59259 9.43551 3.43495 9.59396 3.33073L9.9478 3.793C9.85867 3.86159 9.49223 4.24013 8.6306 4.24013C7.77708 4.24013 7.15134 3.71729 7.15134 2.80788C7.15134 1.89936 7.8257 1.38454 8.64681 1.38454C9.46792 1.38454 10.0378 1.92342 10.0378 2.72326C10.0378 2.85598 10.0252 3.0172 10.0252 3.0172ZM9.19962 2.51395C9.19635 2.26455 9.00875 1.9635 8.6306 1.9635C8.26057 1.9635 8.0697 2.25297 8.05709 2.51395H9.19962ZM12.9405 4.17511H12.078L12.0618 3.88563C11.9439 4.00232 11.7206 4.23568 11.2695 4.23568C10.7815 4.23568 10.2611 3.9747 10.2611 3.36279C10.2611 2.75177 10.8301 2.5469 11.3424 2.52197L12.042 2.49437V2.4338C12.042 2.14433 11.834 1.99558 11.473 1.99558C11.1191 1.99558 10.7653 2.15234 10.6231 2.24052L10.3872 1.66156C10.6231 1.54488 11.0579 1.38455 11.5738 1.38455C12.0906 1.38455 12.3913 1.50035 12.611 1.70164C12.8262 1.90295 12.9441 2.16838 12.9441 2.63065V4.17513L12.9405 4.17511ZM12.0456 2.9691L11.6026 2.9967C11.3262 3.00917 11.1633 3.12585 11.1633 3.33071C11.1633 3.54359 11.3388 3.66829 11.5864 3.66829C11.8304 3.66829 11.9934 3.51153 12.0456 3.41889V2.9691ZM15.1842 4.24013C14.7736 4.24013 14.481 4.0905 14.3063 3.83308V5.18517H13.4078V1.43264H14.2613L14.2574 1.78268H14.2691C14.4726 1.5413 14.7697 1.38008 15.1919 1.38008C15.9887 1.38008 16.4974 1.99912 16.4974 2.80433C16.4929 3.61664 15.9887 4.24013 15.1838 4.24013H15.1842ZM14.924 2.08374C14.5422 2.08374 14.2775 2.37321 14.2775 2.79541C14.2775 3.21849 14.5422 3.50798 14.924 3.50798C15.3102 3.50798 15.5785 3.21849 15.5785 2.79541C15.5785 2.37321 15.3147 2.08374 14.924 2.08374ZM18.6037 0.953435C18.6037 0.953435 18.4533 0.905346 18.2822 0.905346C18.0184 0.905346 17.9491 1.05409 17.9491 1.26341V1.44066H18.5469V2.11225H17.9491V4.17512H17.0425V2.11225H16.6886V1.44066H17.0425V1.27944C17.0425 1.00243 17.0992 0.74057 17.2621 0.559752C17.4323 0.374487 17.697 0.265822 18.0545 0.265822C18.3876 0.265822 18.6442 0.337968 18.6442 0.337968L18.6037 0.953435ZM19.0592 0.337961H19.9569V4.17957H19.0592V0.337961ZM20.9328 1.11465C20.6285 1.11465 20.4205 0.929384 20.4205 0.652375C20.4205 0.378934 20.6285 0.189209 20.9328 0.189209C21.238 0.189209 21.4451 0.378934 21.4451 0.652375C21.4451 0.933837 21.238 1.11465 20.9328 1.11465ZM20.4854 1.43264H21.3839V4.17511H20.4854V1.43264ZM24.8646 3.6202C24.8646 4.21163 24.7143 4.55366 24.4415 4.80662C24.1695 5.06047 23.7995 5.24129 23.1648 5.24129C22.5228 5.24129 22.0105 4.97585 21.8197 4.83512L22.1888 4.24013C22.3518 4.36038 22.7749 4.54921 23.145 4.54921C23.515 4.54921 23.7014 4.43253 23.7995 4.33188C23.8967 4.22766 23.9697 4.03082 23.9697 3.78498V3.6968H23.958C23.7869 3.91414 23.5186 4.08693 23.0874 4.08693C22.4085 4.08693 21.7783 3.6202 21.7783 2.73574C21.7783 1.85038 22.4085 1.38454 23.0874 1.38454C23.5555 1.38454 23.8193 1.59741 23.9661 1.78625H23.9778L23.9661 1.4362H24.8646L24.8646 3.6202ZM23.3475 2.08018C22.9496 2.08018 22.693 2.36965 22.693 2.74375C22.693 3.12142 22.9451 3.41089 23.3475 3.41089C23.7464 3.41089 23.994 3.12141 23.994 2.74375C23.994 2.36965 23.7464 2.08018 23.3475 2.08018ZM28.113 4.17511H27.2064V2.73574C27.2064 2.40172 27.1614 2.11224 26.7832 2.11224C26.4051 2.11224 26.2871 2.42221 26.2871 2.82837V4.17511H25.3886V0.337961H26.2871V1.25182C26.2871 1.52883 26.2839 1.83078 26.2839 1.83078C26.4261 1.58494 26.6899 1.38454 27.1005 1.38454C27.9054 1.38454 28.1134 1.89046 28.1134 2.55849L28.113 4.17511ZM30.3369 2.11225H29.7228V3.09736C29.7228 3.33073 29.7552 3.38684 29.8003 3.43494C29.8408 3.47947 29.8975 3.50352 30.0154 3.50352C30.1577 3.50352 30.2838 3.45544 30.2838 3.45544L30.3288 4.15108C30.2594 4.16711 30.0154 4.24014 29.6859 4.24014C29.3645 4.24014 29.1538 4.14306 29.0116 3.98273C28.8693 3.82151 28.8162 3.5926 28.8162 3.17397V2.11225H28.4219V1.44066H28.8162V0.692475H29.7228V1.43621H30.3369V2.11225ZM32.5886 3.99875C32.3851 4.15552 32.1087 4.24013 31.7387 4.24013C31.3245 4.24013 30.8852 4.11099 30.5683 3.81705L30.9059 3.29065C31.1292 3.47947 31.5037 3.62466 31.727 3.62466C31.9503 3.62466 32.1087 3.56765 32.1087 3.39129C32.1087 3.21404 31.7027 3.12586 31.601 3.08935C31.4956 3.06175 31.3362 3.0172 31.2066 2.96108C31.0761 2.90407 30.7393 2.73128 30.7393 2.2405C30.7393 1.70608 31.2102 1.38008 31.7918 1.38008C32.3734 1.38008 32.6985 1.59296 32.8569 1.71766L32.5643 2.2405C32.4058 2.12026 32.0925 1.97507 31.8647 1.97507C31.6496 1.97507 31.5316 2.03208 31.5316 2.17637C31.5316 2.32156 31.7477 2.38925 31.9386 2.4418C32.1294 2.4979 32.215 2.52642 32.3329 2.57095C32.4545 2.61458 32.5967 2.68764 32.6949 2.77582C32.784 2.86399 32.9181 3.04124 32.9181 3.33073C32.9136 3.61664 32.7921 3.83754 32.5886 3.99875Z" fill="#2B303D"/>
<path d="M37.7632 2.01075C37.5435 1.93059 37.3112 1.88961 37.0753 1.89407L36.482 1.89859L35.2701 0.429818C35.2422 0.397758 35.2053 0.378174 35.1612 0.378174H34.9415C34.8803 0.378174 34.8353 0.442292 34.8596 0.498415L35.4088 1.91019L34.531 1.96274L34.2383 1.56458C34.2014 1.51203 34.1447 1.48353 34.0835 1.48353H33.9205C33.8683 1.48353 33.8314 1.54054 33.8476 1.59219L34.0592 2.26824L33.8557 2.94785C33.8395 3.0004 33.8764 3.05651 33.9286 3.05651H34.0952C34.1564 3.05651 34.2131 3.02445 34.2501 2.97635L34.5346 2.57375L35.4133 2.62985L34.8884 4.04607C34.8677 4.10218 34.9091 4.16631 34.9739 4.16631H35.1891C35.2341 4.16631 35.2701 4.14673 35.2989 4.11467L36.4865 2.6263L37.0798 2.62178C37.3112 2.62178 37.539 2.57815 37.7542 2.49708C37.8442 2.46502 37.9135 2.38485 37.9252 2.28865C37.9414 2.1595 37.8721 2.05529 37.7632 2.01075Z" fill="#FFD400"/>
</svg>
