<svg width="113" height="16" viewBox="0 0 113 16" fill="none" xmlns="http://www.w3.org/2000/svg">
<path d="M10.7008 10.9857C10.1207 11.5834 8.90177 12.5381 6.536 12.5381C3.15447 12.5381 0.5 10.3166 0.5 6.65128C0.5 2.97268 3.17853 0.775062 6.54671 0.775062C8.91247 0.775062 10.2036 1.75617 10.5057 2.06558L9.67433 4.27379C9.45512 3.98819 8.22546 3.0811 6.70444 3.0811C4.74766 3.0811 3.25337 4.369 3.25337 6.60367C3.25337 8.83567 4.8225 10.1024 6.70442 10.1024C8.13991 10.1024 9.17978 9.54178 9.8053 8.89651L10.7008 10.9857ZM19.9206 12.3344H17.2314V8.06084C17.2314 7.0691 17.0977 6.20962 15.975 6.20962C14.8523 6.20962 14.5021 7.12994 14.5021 8.33585V12.3344H11.8343V0.941657H14.5021V3.65497C14.5021 4.47743 14.4885 5.37394 14.4885 5.37394C14.9136 4.64404 15.6968 4.04901 16.9158 4.04901C19.3056 4.04901 19.9204 5.55113 19.9204 7.53456L19.9206 12.3344ZM29.6509 8.89651H23.7967C23.917 10.0654 24.8098 10.6049 25.8978 10.6049C26.9724 10.6049 27.9 10.1368 28.3705 9.8274L29.421 11.1999C29.1564 11.4036 28.0684 12.5275 25.5102 12.5275C22.976 12.5275 21.1182 10.9751 21.1182 8.27503C21.1182 5.57758 23.1204 4.04903 25.5583 4.04903C27.9962 4.04903 29.6884 5.64898 29.6884 8.02379C29.6884 8.41783 29.6509 8.89651 29.6509 8.89651ZM27.1996 7.40231C27.1899 6.66184 26.6329 5.76799 25.5102 5.76799C24.4115 5.76799 23.8448 6.62747 23.8074 7.40231H27.1996ZM38.3067 12.3344H35.7458L35.6977 11.4749C35.3475 11.8214 34.6845 12.5143 33.3453 12.5143C31.8964 12.5143 30.3513 11.7394 30.3513 9.92258C30.3513 8.10842 32.0408 7.50017 33.5618 7.42613L35.6388 7.34418V7.16437C35.6388 6.30489 35.0214 5.86325 33.9494 5.86325C32.8988 5.86325 31.8483 6.32868 31.4259 6.5905L30.7256 4.87153C31.4259 4.52509 32.7171 4.04907 34.2488 4.04907C35.7832 4.04907 36.676 4.39287 37.3283 4.99053C37.9672 5.58821 38.3174 6.3763 38.3174 7.74882V12.3345L38.3067 12.3344ZM35.6495 8.75369L34.3343 8.83563C33.5137 8.87267 33.0298 9.2191 33.0298 9.82736C33.0298 10.4594 33.5511 10.8296 34.2862 10.8296C35.0106 10.8296 35.4945 10.3642 35.6495 10.0892V8.75369ZM44.9682 12.5275C43.7492 12.5275 42.8805 12.0832 42.3619 11.3189V15.3334H39.694V4.19183H42.2282L42.2166 5.23114H42.2513C42.8554 4.51446 43.7376 4.03579 44.9913 4.03579C47.357 4.03579 48.8674 5.87377 48.8674 8.26448C48.8538 10.6763 47.357 12.5275 44.9672 12.5275H44.9682ZM44.1957 6.12499C43.0622 6.12499 42.2763 6.98447 42.2763 8.23799C42.2763 9.49417 43.0622 10.3537 44.1957 10.3537C45.3424 10.3537 46.139 9.49417 46.139 8.23799C46.139 6.98447 45.3558 6.12499 44.1957 6.12499ZM55.1209 2.76904C55.1209 2.76904 54.6745 2.62626 54.1666 2.62626C53.3834 2.62626 53.1775 3.0679 53.1775 3.68937V4.21564H54.9525V6.20964H53.1775V12.3345H50.4856V6.20964H49.4351V4.21564H50.4856V3.73697C50.4856 2.91451 50.654 2.13703 51.1379 1.60017C51.6431 1.0501 52.429 0.727468 53.4903 0.727468C54.4793 0.727468 55.2412 0.941676 55.2412 0.941676L55.1209 2.76904ZM56.4735 0.941657H59.1387V12.3477H56.4735V0.941657ZM62.0364 3.2477C61.1328 3.2477 60.5154 2.69763 60.5154 1.87517C60.5154 1.06331 61.1328 0.5 62.0364 0.5C62.9426 0.5 63.5574 1.06331 63.5574 1.87517C63.5574 2.71086 62.9426 3.2477 62.0364 3.2477ZM60.7078 4.19183H63.3757V12.3344H60.7078V4.19183ZM73.7101 10.6869C73.7101 12.4429 73.2637 13.4584 72.4537 14.2094C71.6464 14.9631 70.5478 15.5 68.6632 15.5C66.7572 15.5 65.2362 14.7119 64.6695 14.2941L65.7655 12.5275C66.2493 12.8845 67.5057 13.4451 68.6044 13.4451C69.7031 13.4451 70.2564 13.0987 70.5478 12.7999C70.8365 12.4905 71.053 11.906 71.053 11.1761V10.9143H71.0183C70.5104 11.5596 69.7138 12.0726 68.4333 12.0726C66.4178 12.0726 64.5465 10.6869 64.5465 8.06083C64.5465 5.43213 66.4178 4.04901 68.4333 4.04901C69.8234 4.04901 70.6066 4.68106 71.0423 5.24172H71.0771L71.0423 4.2024H73.7102L73.7101 10.6869ZM69.2058 6.11442C68.0243 6.11442 67.2624 6.9739 67.2624 8.08462C67.2624 9.20594 68.0109 10.0654 69.2058 10.0654C70.39 10.0654 71.1252 9.20592 71.1252 8.08462C71.1252 6.9739 70.39 6.11442 69.2058 6.11442ZM83.3549 12.3344H80.6631V8.06084C80.6631 7.0691 80.5294 6.20962 79.4067 6.20962C78.2839 6.20962 77.9337 7.12994 77.9337 8.33585V12.3344H75.2659V0.941657H77.9337V3.65497C77.9337 4.47743 77.924 5.37394 77.924 5.37394C78.3464 4.64404 79.1297 4.04901 80.3486 4.04901C82.7384 4.04901 83.3559 5.55113 83.3559 7.53456L83.3549 12.3344ZM89.9577 6.20964H88.1346V9.13451C88.1346 9.82739 88.2308 9.99399 88.3645 10.1368C88.4847 10.269 88.6531 10.3404 89.0033 10.3404C89.4257 10.3404 89.7999 10.1977 89.7999 10.1977L89.9336 12.2631C89.7278 12.3107 89.0033 12.5275 88.025 12.5275C87.0706 12.5275 86.4451 12.2393 86.0228 11.7632C85.6004 11.2846 85.4427 10.6049 85.4427 9.36198V6.20966H84.2718V4.21566H85.4427V1.99423H88.1346V4.20244H89.9577V6.20964ZM96.6433 11.8108C96.0391 12.2763 95.2185 12.5275 94.1198 12.5275C92.8901 12.5275 91.5856 12.144 90.6447 11.2713L91.6471 9.70841C92.3101 10.269 93.4221 10.7001 94.085 10.7001C94.748 10.7001 95.2185 10.5308 95.2185 10.0072C95.2185 9.48094 94.0129 9.21914 93.7108 9.11071C93.398 9.02877 92.9249 8.89651 92.5399 8.72989C92.1524 8.56063 91.1526 8.0476 91.1526 6.59045C91.1526 5.00369 92.5506 4.03579 94.2775 4.03579C96.0044 4.03579 96.9694 4.66784 97.4399 5.03808L96.5711 6.59045C96.1006 6.23342 95.1703 5.80236 94.494 5.80236C93.8552 5.80236 93.505 5.97162 93.505 6.40003C93.505 6.8311 94.1465 7.03208 94.7132 7.1881C95.2799 7.35468 95.5339 7.43935 95.8841 7.57158C96.245 7.70111 96.6673 7.91801 96.9587 8.17983C97.2233 8.44163 97.6216 8.9679 97.6216 9.8274C97.6081 10.6763 97.2474 11.3321 96.6433 11.8108Z" fill="#2B303D"/>
<path d="M112.01 5.90828C111.358 5.67026 110.668 5.54861 109.968 5.56183L108.206 5.57526L104.608 1.21437C104.525 1.11918 104.416 1.06104 104.285 1.06104H103.632C103.451 1.06104 103.317 1.25141 103.389 1.41804L105.02 5.60969L102.413 5.76571L101.545 4.58356C101.435 4.42754 101.267 4.34291 101.085 4.34291H100.601C100.446 4.34291 100.336 4.51217 100.384 4.66554L101.013 6.67277L100.409 8.69058C100.36 8.8466 100.47 9.01322 100.625 9.01322H101.12C101.301 9.01322 101.47 8.91803 101.579 8.77519L102.424 7.57986L105.033 7.74643L103.475 11.9513C103.413 12.1179 103.536 12.3083 103.729 12.3083H104.368C104.501 12.3083 104.608 12.2501 104.694 12.155L108.22 7.7359L109.981 7.72246C110.668 7.72246 111.344 7.59293 111.983 7.35222C112.251 7.25703 112.457 7.01901 112.491 6.73339C112.539 6.34992 112.334 6.04051 112.01 5.90828Z" fill="#FFD400"/>
</svg>
