<svg width="24" height="24" viewBox="0 0 24 24" fill="none" xmlns="http://www.w3.org/2000/svg">
<path d="M21.32 5.04904L15.32 3.05027H15.25C15.2035 3.04559 15.1566 3.04559 15.11 3.05027H14.88H14.75H14.68L9 4.99907L3.32 3.05027C3.16962 3.00071 3.00961 2.98755 2.85314 3.01188C2.69667 3.0362 2.54822 3.09731 2.42 3.19018C2.29076 3.28214 2.18527 3.40351 2.11224 3.54427C2.03921 3.68503 2.00074 3.84113 2 3.99968V17.991C1.99946 18.2006 2.06482 18.405 2.18685 18.5753C2.30887 18.7457 2.48138 18.8734 2.68 18.9405L8.68 20.9392C8.88145 21.0049 9.09856 21.0049 9.3 20.9392L15 19.0404L20.68 20.9892C20.7862 21.0036 20.8938 21.0036 21 20.9892C21.2091 20.9921 21.4132 20.9253 21.58 20.7993C21.7092 20.7074 21.8147 20.586 21.8878 20.4452C21.9608 20.3045 21.9993 20.1484 22 19.9898V5.99845C22.0005 5.78893 21.9352 5.58455 21.8132 5.41418C21.6911 5.24381 21.5186 5.11608 21.32 5.04904ZM8 18.6007L4 17.2715V5.38883L8 6.718V18.6007ZM14 17.2715L10 18.6007V6.718L14 5.38883V17.2715ZM20 18.6007L16 17.2715V5.38883L20 6.718V18.6007Z" fill="#3B71FE"/>
</svg>
