<svg width="16" height="16" viewBox="0 0 16 16" fill="none" xmlns="http://www.w3.org/2000/svg">
<path d="M8 13.7069C8 13.8726 8.13446 14.0078 8.29994 13.9996C11.4743 13.8433 14 11.2185 14 8.00352C14 4.68786 11.3137 2 8 2C4.68629 2 2 4.68786 2 8.00352C2 10.7802 3.88393 13.1166 6.4426 13.8028C6.6258 13.852 6.8 13.7095 6.8 13.5197V9.20422H6.2C5.86863 9.20422 5.6 8.93544 5.6 8.60387C5.6 8.27229 5.86863 8.00352 6.2 8.00352H6.8V6.80281C6.8 5.80812 7.60586 5.00176 8.6 5.00176H9.2C9.53138 5.00176 9.8 5.27055 9.8 5.60211C9.8 5.93368 9.53138 6.20246 9.2 6.20246H8.6C8.26862 6.20246 8 6.47125 8 6.80281V8.00352H9.2C9.53138 8.00352 9.8 8.27229 9.8 8.60387C9.8 8.93544 9.53138 9.20422 9.2 9.20422H8V13.7069Z" fill="#B1B5C4"/>
</svg>
