<svg width="84" height="84" viewBox="0 0 84 84" fill="none" xmlns="http://www.w3.org/2000/svg">
<circle cx="42" cy="42" r="42" fill="#3B71FE"/>
<circle cx="42" cy="42" r="32.5" stroke="white" stroke-dasharray="6 6"/>
<path d="M50.5562 24.2C50.3942 24.2 50.2371 24.2422 50.0996 24.3266L45.8518 26.8859C45.729 26.9609 45.6554 27.0875 45.6554 27.2234V30.7859C45.6554 30.9219 45.729 31.0484 45.8518 31.1234L50.0996 33.6828C50.2371 33.7625 50.3942 33.8094 50.5562 33.8094H51.5777C51.8134 33.8094 52 33.6313 52 33.4109V24.5984C52 24.3781 51.8085 24.2 51.5777 24.2H50.5562ZM41.8594 35H32.529C31.1393 35 30 33.9125 30 32.5906V25.4094C30 24.0828 31.1393 23 32.5241 23H41.8545C43.2442 23 44.3786 24.0875 44.3786 25.4094V32.5859C44.3835 33.9125 43.2491 35 41.8594 35Z" fill="white"/>
<rect x="22" y="47" width="38" height="14" rx="3" fill="white"/>
<path d="M28.2585 58.5V49.7727H30.1037V56.9787H33.8452V58.5H28.2585ZM36.9123 49.7727V58.5H35.0671V49.7727H36.9123ZM40.0071 49.7727L42.1165 56.4034H42.1974L44.3111 49.7727H46.3565L43.348 58.5H40.9702L37.9574 49.7727H40.0071ZM47.407 58.5V49.7727H53.2876V51.294H49.2521V53.3736H52.9851V54.8949H49.2521V56.9787H53.3047V58.5H47.407Z" fill="#3B71FE"/>
</svg>
