<svg width="16" height="16" viewBox="0 0 16 16" fill="none" xmlns="http://www.w3.org/2000/svg">
<path d="M7.99922 9.79995C8.99336 9.79995 9.79922 8.99409 9.79922 7.99995C9.79922 7.00581 8.99336 6.19995 7.99922 6.19995C7.00508 6.19995 6.19922 7.00581 6.19922 7.99995C6.19922 8.99409 7.00508 9.79995 7.99922 9.79995Z" fill="#B1B5C4"/>
<path fill-rule="evenodd" clip-rule="evenodd" d="M5 2C3.34315 2 2 3.34315 2 5V11C2 12.6568 3.34315 14 5 14H11C12.6568 14 14 12.6568 14 11V5C14 3.34315 12.6568 2 11 2H5ZM8 11C9.65684 11 11 9.65684 11 8C11 6.34315 9.65684 5 8 5C6.34315 5 5 6.34315 5 8C5 9.65684 6.34315 11 8 11ZM12.2 4.4C12.2 4.73137 11.9314 5 11.6 5C11.2686 5 11 4.73137 11 4.4C11 4.06863 11.2686 3.8 11.6 3.8C11.9314 3.8 12.2 4.06863 12.2 4.4Z" fill="#B1B5C4"/>
</svg>
