<svg width="16" height="16" viewBox="0 0 16 16" fill="none" xmlns="http://www.w3.org/2000/svg">
<path fill-rule="evenodd" clip-rule="evenodd" d="M3.8 2C2.80589 2 2 2.80589 2 3.8V12.2C2 13.1941 2.80589 14 3.8 14H12.2C13.1941 14 14 13.1941 14 12.2V3.8C14 2.80589 13.1941 2 12.2 2H3.8ZM5 5.6C5.33137 5.6 5.6 5.33137 5.6 5C5.6 4.66863 5.33137 4.4 5 4.4C4.66863 4.4 4.4 4.66863 4.4 5C4.4 5.33137 4.66863 5.6 5 5.6ZM5 6.8C4.66863 6.8 4.4 7.06862 4.4 7.4V11C4.4 11.3314 4.66863 11.6 5 11.6C5.33137 11.6 5.6 11.3314 5.6 11V7.4C5.6 7.06862 5.33137 6.8 5 6.8ZM8 9.2C8 8.53724 8.53724 8 9.2 8C9.86276 8 10.4 8.53724 10.4 9.2V11C10.4 11.3314 10.6686 11.6 11 11.6C11.3314 11.6 11.6 11.3314 11.6 11V9.2C11.6 7.87454 10.5255 6.8 9.2 6.8C8.74076 6.8 8.31158 6.929 7.94684 7.15274C7.85264 6.94472 7.64324 6.8 7.4 6.8C7.06862 6.8 6.8 7.06862 6.8 7.4V11C6.8 11.3314 7.06862 11.6 7.4 11.6C7.73138 11.6 8 11.3314 8 11V9.2Z" fill="#B1B5C4"/>
</svg>
