<svg width="66" height="18" viewBox="0 0 66 18" fill="none" xmlns="http://www.w3.org/2000/svg">
<rect width="18" height="18" rx="5" fill="#3B71FE"/>
<path d="M6.0118 9.92202L7.93731 9.86274L8.56297 8.44389C8.63239 8.28647 8.49629 8.11783 8.32881 8.15722C7.80933 8.2794 7.09126 8.47811 6.68552 8.69045C6.29236 8.8962 5.99696 9.31938 5.82666 9.64516C5.75691 9.77858 5.86132 9.92665 6.0118 9.92202Z" fill="white"/>
<path d="M12.3498 13.7572L10.7218 10.7752C10.5661 10.4901 10.161 10.4774 9.98642 10.7513C9.47776 11.5496 8.78945 12.6081 8.46346 13.0346C8.0418 13.5863 7.58501 13.6782 7.40932 13.6552C6.92617 13.6323 5.82812 13.5449 5.30105 13.3794C4.77398 13.2139 5.04809 12.8752 5.30105 12.7588C5.60298 12.6198 6.35519 12.3726 6.88226 12.2071C7.40933 12.0416 7.80463 11.4026 7.9364 11.1038L9.91292 7.17313C10.418 6.09278 11.6127 3.94588 12.3506 4.00104C13.0885 4.05621 12.8777 4.8975 12.68 5.31125L11.6234 7.71822C11.5825 7.81144 11.5762 7.91554 11.606 8.01288C11.9954 9.28398 12.741 11.725 12.9436 12.414C13.1076 12.972 12.8834 13.4827 12.662 13.7902C12.5804 13.9035 12.4167 13.8797 12.3498 13.7572Z" fill="white"/>
<path d="M26.5483 13.5H24.2812L27.2259 4.77273H30.0341L32.9787 13.5H30.7116L28.6619 6.97159H28.5938L26.5483 13.5ZM26.2457 10.0653H30.9844V11.6676H26.2457V10.0653ZM33.93 13.5V6.95455H36.0138V13.5H33.93ZM34.9741 6.19176C34.6815 6.19176 34.43 6.09517 34.2198 5.90199C34.0096 5.70597 33.9045 5.47017 33.9045 5.1946C33.9045 4.92187 34.0096 4.68892 34.2198 4.49574C34.43 4.29972 34.6815 4.2017 34.9741 4.2017C35.2695 4.2017 35.521 4.29972 35.7283 4.49574C35.9386 4.68892 36.0437 4.92187 36.0437 5.1946C36.0437 5.47017 35.9386 5.70597 35.7283 5.90199C35.521 6.09517 35.2695 6.19176 34.9741 6.19176ZM37.3402 13.5V6.95455H39.3643V8.14773H39.4325C39.5518 7.71591 39.7464 7.39489 40.0163 7.18466C40.2862 6.97159 40.6001 6.86506 40.9581 6.86506C41.0547 6.86506 41.1541 6.87216 41.2564 6.88636C41.3587 6.89773 41.4538 6.91619 41.5419 6.94176V8.75284C41.4425 8.71875 41.3118 8.69176 41.1499 8.67188C40.9908 8.65199 40.8487 8.64205 40.7237 8.64205C40.4766 8.64205 40.2536 8.69744 40.0547 8.80824C39.8587 8.91619 39.7038 9.06818 39.5902 9.2642C39.4794 9.45739 39.424 9.68466 39.424 9.94602V13.5H37.3402ZM46.3903 6.95455V8.48864H42.261V6.95455H46.3903ZM43.1261 5.38636H45.2099V11.4418C45.2099 11.5696 45.2298 11.6733 45.2695 11.7528C45.3121 11.8295 45.3732 11.8849 45.4528 11.919C45.5323 11.9503 45.6275 11.9659 45.7383 11.9659C45.8178 11.9659 45.9016 11.9588 45.9897 11.9446C46.0806 11.9276 46.1488 11.9134 46.1942 11.902L46.5096 13.4062C46.4102 13.4347 46.2695 13.4702 46.0877 13.5128C45.9087 13.5554 45.6942 13.5824 45.4442 13.5938C44.9556 13.6165 44.5366 13.5597 44.1871 13.4233C43.8406 13.2841 43.5749 13.0682 43.3903 12.7756C43.2085 12.483 43.1204 12.1151 43.1261 11.6719V5.38636ZM47.4535 13.5V6.95455H49.4776V8.14773H49.5458C49.6651 7.71591 49.8597 7.39489 50.1296 7.18466C50.3995 6.97159 50.7134 6.86506 51.0714 6.86506C51.168 6.86506 51.2674 6.87216 51.3697 6.88636C51.4719 6.89773 51.5671 6.91619 51.6552 6.94176V8.75284C51.5558 8.71875 51.4251 8.69176 51.2631 8.67188C51.104 8.65199 50.962 8.64205 50.837 8.64205C50.5898 8.64205 50.3668 8.69744 50.168 8.80824C49.9719 8.91619 49.8171 9.06818 49.7035 9.2642C49.5927 9.45739 49.5373 9.68466 49.5373 9.94602V13.5H47.4535ZM54.1033 13.6108C53.6857 13.6108 53.315 13.5412 52.9911 13.402C52.6701 13.2599 52.4158 13.0469 52.2283 12.7628C52.0437 12.4759 51.9513 12.1165 51.9513 11.6847C51.9513 11.321 52.0153 11.0142 52.1431 10.7642C52.271 10.5142 52.4471 10.3111 52.6715 10.1548C52.896 9.99858 53.1545 9.88068 53.4471 9.80114C53.7397 9.71875 54.0522 9.66335 54.3846 9.63494C54.7567 9.60085 55.0565 9.56534 55.2837 9.52841C55.511 9.48864 55.6758 9.43324 55.7781 9.36222C55.8832 9.28835 55.9357 9.18466 55.9357 9.05114V9.02983C55.9357 8.81108 55.8604 8.64205 55.7099 8.52273C55.5593 8.40341 55.3562 8.34375 55.1005 8.34375C54.8249 8.34375 54.6033 8.40341 54.4357 8.52273C54.2681 8.64205 54.1616 8.80682 54.1161 9.01705L52.1942 8.94886C52.2511 8.55114 52.3974 8.19602 52.6332 7.88352C52.8718 7.56818 53.1985 7.32102 53.6133 7.14205C54.0309 6.96023 54.5323 6.86932 55.1175 6.86932C55.5352 6.86932 55.9201 6.91903 56.2724 7.01847C56.6246 7.11506 56.9315 7.2571 57.1928 7.4446C57.4542 7.62926 57.6559 7.85653 57.7979 8.12642C57.9428 8.39631 58.0153 8.70455 58.0153 9.05114V13.5H56.055V12.5881H56.0039C55.8874 12.8097 55.7383 12.9972 55.5565 13.1506C55.3775 13.304 55.1658 13.419 54.9215 13.4957C54.68 13.5724 54.4073 13.6108 54.1033 13.6108ZM54.7468 12.2472C54.9712 12.2472 55.1729 12.2017 55.3519 12.1108C55.5337 12.0199 55.6786 11.8949 55.7866 11.7358C55.8945 11.5739 55.9485 11.3864 55.9485 11.1733V10.5511C55.8888 10.5824 55.8164 10.6108 55.7312 10.6364C55.6488 10.6619 55.5579 10.6861 55.4585 10.7088C55.359 10.7315 55.2567 10.7514 55.1516 10.7685C55.0465 10.7855 54.9457 10.8011 54.8491 10.8153C54.6531 10.8466 54.4854 10.8949 54.3462 10.9602C54.2099 11.0256 54.1048 11.1108 54.0309 11.2159C53.9599 11.3182 53.9244 11.4403 53.9244 11.5824C53.9244 11.7983 54.0011 11.9631 54.1545 12.0767C54.3107 12.1903 54.5082 12.2472 54.7468 12.2472ZM65.4045 6.95455L63.1587 13.5H60.7724L58.5309 6.95455H60.7255L61.9315 11.4631H61.9996L63.2099 6.95455H65.4045Z" fill="#353945"/>
</svg>
