<svg width="16" height="16" viewBox="0 0 16 16" fill="none" xmlns="http://www.w3.org/2000/svg">
<path fill-rule="evenodd" clip-rule="evenodd" d="M8 14C11.3137 14 14 11.3137 14 8C14 4.68629 11.3137 2 8 2C4.68629 2 2 4.68629 2 8C2 9.35072 2.44633 10.5972 3.19956 11.6L3.19986 13.2625C3.19993 13.6429 3.54957 13.9273 3.92206 13.8498L5.6 13.5007C6.33495 13.8219 7.14668 14 8 14ZM4.82299 9.02426L6.47335 6.66663C6.65641 6.40511 7.01216 6.33271 7.28288 6.5019L8.87144 7.49474C9.07142 7.61972 9.32606 7.616 9.52226 7.4852L10.8255 6.61637C10.9269 6.54874 11.062 6.56212 11.1482 6.64833C11.236 6.73609 11.248 6.87416 11.1769 6.97586L9.52652 9.3335C9.34346 9.59504 8.98772 9.6674 8.717 9.4982L7.12844 8.50538C6.92846 8.3804 6.67383 8.38412 6.47762 8.51492L5.1744 9.38378C5.07296 9.4514 4.93788 9.43802 4.85167 9.3518C4.76392 9.26402 4.75182 9.12596 4.82299 9.02426Z" fill="#B1B5C4"/>
</svg>
