<svg width="40" height="7" viewBox="0 0 40 7" fill="none" xmlns="http://www.w3.org/2000/svg">
<path d="M39.9986 4.60916C39.9986 5.78758 39.3075 6.74646 37.8575 6.74646C36.4731 6.74646 35.7246 5.78754 35.7246 4.60916C35.7246 3.42266 36.4281 2.46375 37.8575 2.46375C39.3075 2.46375 39.9986 3.42266 39.9986 4.60916ZM38.8874 4.60916C38.8874 3.86957 38.3846 3.65831 37.8575 3.65831C37.3385 3.65831 36.8356 3.86957 36.8356 4.60916C36.8356 5.3487 37.3385 5.5518 37.8575 5.5518C38.3846 5.5518 38.8874 5.3487 38.8874 4.60916Z" fill="url(#paint0_linear_1116_13458)"/>
<path d="M30.9824 4.60922C30.9824 3.42273 31.9394 2.46381 33.1152 2.46381C33.4883 2.46381 33.837 2.56137 34.1452 2.7238V0.765261C34.1452 0.716526 34.1777 0.684021 34.2263 0.684021H35.1753C35.2158 0.684021 35.2564 0.716571 35.2564 0.765261V4.60922C35.2564 5.78765 34.2993 6.74652 33.1152 6.74652C31.9394 6.74652 30.9824 5.78765 30.9824 4.60922ZM33.1153 5.55186C33.6425 5.55186 34.1453 5.34877 34.1453 4.60922C34.1453 3.86964 33.6425 3.65838 33.1153 3.65838C32.5962 3.65838 32.0935 3.86964 32.0935 4.60922C32.0935 5.34877 32.5961 5.55186 33.1153 5.55186Z" fill="url(#paint1_linear_1116_13458)"/>
<path d="M20.9397 6.74646H19.9909C19.9422 6.74646 19.9098 6.71391 19.9098 6.66517V4.60916C19.9098 3.86957 19.4069 3.65831 18.8798 3.65831C18.3607 3.65831 17.858 3.86957 17.858 4.60916V6.66517C17.858 6.71391 17.8174 6.74646 17.7768 6.74646H16.8279C16.7793 6.74646 16.7468 6.71391 16.7468 6.66517V4.60916C16.7468 3.86957 16.2441 3.65831 15.7169 3.65831C15.1979 3.65831 14.695 3.86957 14.695 4.60916V6.66517C14.695 6.71391 14.6546 6.74646 14.614 6.74646H13.6651C13.6165 6.74646 13.584 6.71391 13.584 6.66517V4.60916C13.584 3.42266 14.3306 2.46375 15.7169 2.46375C16.3495 2.46375 16.9091 2.73194 17.2984 3.16253C17.6958 2.7319 18.2554 2.46375 18.8798 2.46375C20.2693 2.46375 21.0208 3.42266 21.0208 4.60916V6.66517C21.0208 6.71395 20.9803 6.74646 20.9397 6.74646Z" fill="url(#paint2_linear_1116_13458)"/>
<path d="M25.774 4.60916C25.774 5.78758 25.0829 6.74646 23.633 6.74646C22.2485 6.74646 21.5 5.78754 21.5 4.60916C21.5 3.42266 22.2035 2.46375 23.633 2.46375C25.0829 2.46375 25.774 3.42266 25.774 4.60916ZM24.6628 4.60916C24.6628 3.86957 24.1601 3.65831 23.633 3.65831C23.1139 3.65831 22.611 3.86957 22.611 4.60916C22.611 5.3487 23.1139 5.5518 23.633 5.5518C24.1601 5.5518 24.6628 5.3487 24.6628 4.60916Z" fill="url(#paint3_linear_1116_13458)"/>
<path d="M30.4351 6.74646H29.4863C29.4375 6.74646 29.4052 6.71391 29.4052 6.66517V4.60916C29.4052 3.86957 28.9024 3.65831 28.3752 3.65831C27.8561 3.65831 27.3533 3.86957 27.3533 4.60916V6.66517C27.3533 6.71391 27.3127 6.74646 27.2722 6.74646H26.3233C26.2747 6.74646 26.2422 6.71391 26.2422 6.66517V4.60916C26.2422 3.42266 26.9592 2.46375 28.3752 2.46375C29.7937 2.46375 30.5162 3.42266 30.5162 4.60916V6.66517C30.5162 6.71395 30.4757 6.74646 30.4351 6.74646Z" fill="url(#paint4_linear_1116_13458)"/>
<path d="M8.28344 6.74646H7.33468C7.28591 6.74646 7.25356 6.71391 7.25356 6.66517V4.60916C7.25356 3.86957 6.75066 3.65831 6.22354 3.65831C5.70449 3.65831 5.20172 3.86957 5.20172 4.60916V6.66517C5.20172 6.71391 5.16113 6.74646 5.1206 6.74646H4.1717C4.12306 6.74646 4.09058 6.71391 4.09058 6.66517V4.60916C4.09058 3.86957 3.58781 3.65831 3.0607 3.65831C2.54164 3.65831 2.03878 3.86957 2.03878 4.60916V6.66517C2.03878 6.71391 1.99833 6.74646 1.95775 6.74646H1.00885C0.960218 6.74646 0.927734 6.71391 0.927734 6.66517V4.60916C0.927734 3.42266 1.67431 2.46375 3.0607 2.46375C3.69322 2.46375 4.25282 2.73194 4.64212 3.16253C5.03952 2.7319 5.59912 2.46375 6.22354 2.46375C7.61308 2.46375 8.36456 3.42266 8.36456 4.60916V6.66517C8.36456 6.71395 8.32398 6.74646 8.28344 6.74646Z" fill="url(#paint5_linear_1116_13458)"/>
<path d="M13.1177 4.60916C13.1177 5.78758 12.4267 6.74646 10.9767 6.74646C9.59226 6.74646 8.84375 5.78754 8.84375 4.60916C8.84375 3.42266 9.54722 2.46375 10.9767 2.46375C12.4267 2.46375 13.1177 3.42266 13.1177 4.60916ZM12.0066 4.60916C12.0066 3.86957 11.5038 3.65831 10.9767 3.65831C10.4577 3.65831 9.95475 3.86957 9.95475 4.60916C9.95475 5.3487 10.4577 5.5518 10.9767 5.5518C11.5038 5.5518 12.0066 5.3487 12.0066 4.60916Z" fill="url(#paint6_linear_1116_13458)"/>
<defs>
<linearGradient id="paint0_linear_1116_13458" x1="37.8616" y1="2.46375" x2="37.8616" y2="6.74646" gradientUnits="userSpaceOnUse">
<stop stop-color="#FFBA00"/>
<stop offset="1" stop-color="#FF2E00"/>
</linearGradient>
<linearGradient id="paint1_linear_1116_13458" x1="33.1194" y1="0.684021" x2="33.1194" y2="6.74652" gradientUnits="userSpaceOnUse">
<stop stop-color="#FFBA00"/>
<stop offset="1" stop-color="#FF2E00"/>
</linearGradient>
<linearGradient id="paint2_linear_1116_13458" x1="17.3024" y1="2.46375" x2="17.3024" y2="6.74646" gradientUnits="userSpaceOnUse">
<stop stop-color="#FF30AE"/>
<stop offset="1" stop-color="#D1003A"/>
</linearGradient>
<linearGradient id="paint3_linear_1116_13458" x1="23.637" y1="2.46375" x2="23.637" y2="6.74646" gradientUnits="userSpaceOnUse">
<stop stop-color="#FF30AE"/>
<stop offset="1" stop-color="#D1003A"/>
</linearGradient>
<linearGradient id="paint4_linear_1116_13458" x1="28.3792" y1="2.46375" x2="28.3792" y2="6.74646" gradientUnits="userSpaceOnUse">
<stop stop-color="#FF30AE"/>
<stop offset="1" stop-color="#D1003A"/>
</linearGradient>
<linearGradient id="paint5_linear_1116_13458" x1="4.64613" y1="2.46375" x2="4.64613" y2="6.74646" gradientUnits="userSpaceOnUse">
<stop stop-color="#00D7E5"/>
<stop offset="1" stop-color="#0066AE"/>
</linearGradient>
<linearGradient id="paint6_linear_1116_13458" x1="10.9808" y1="2.46375" x2="10.9808" y2="6.74646" gradientUnits="userSpaceOnUse">
<stop stop-color="#00D7E5"/>
<stop offset="1" stop-color="#0066AE"/>
</linearGradient>
</defs>
</svg>
