<svg width="117" height="18" viewBox="0 0 117 18" fill="none" xmlns="http://www.w3.org/2000/svg">
<path d="M116.498 11.6541C116.498 15.1529 114.446 17.9999 110.141 17.9999C106.031 17.9999 103.809 15.1528 103.809 11.6541C103.809 8.13127 105.897 5.28418 110.141 5.28418C114.446 5.28418 116.498 8.13127 116.498 11.6541ZM113.199 11.6541C113.199 9.45818 111.706 8.83093 110.141 8.83093C108.6 8.83093 107.107 9.45818 107.107 11.6541C107.107 13.8498 108.6 14.4528 110.141 14.4528C111.706 14.4528 113.199 13.8498 113.199 11.6541Z" fill="url(#paint0_linear_1092_21770)"/>
<path d="M89.7344 11.6542C89.7344 8.13142 92.5758 5.28432 96.0669 5.28432C97.1745 5.28432 98.2099 5.57398 99.125 6.05626V0.241206C99.125 0.0965094 99.2214 0 99.3657 0H102.183C102.304 0 102.424 0.0966432 102.424 0.241206V11.6542C102.424 15.153 99.5823 18 96.0669 18C92.5758 18 89.7344 15.153 89.7344 11.6542ZM96.067 14.453C97.6323 14.453 99.1251 13.85 99.1251 11.6542C99.1251 9.45832 97.6322 8.83107 96.067 8.83107C94.5258 8.83107 93.0331 9.45832 93.0331 11.6542C93.0331 13.85 94.5256 14.453 96.067 14.453Z" fill="url(#paint1_linear_1092_21770)"/>
<path d="M59.9178 17.9999H57.1008C56.956 17.9999 56.86 17.9032 56.86 17.7585V11.6541C56.86 9.45818 55.3668 8.83093 53.8018 8.83093C52.2606 8.83093 50.7679 9.45818 50.7679 11.6541V17.7585C50.7679 17.9032 50.6474 17.9999 50.527 17.9999H47.7097C47.5653 17.9999 47.4688 17.9032 47.4688 17.7585V11.6541C47.4688 9.45818 45.9761 8.83093 44.4111 8.83093C42.8699 8.83093 41.3769 9.45818 41.3769 11.6541V17.7585C41.3769 17.9032 41.2568 17.9999 41.1363 17.9999H38.319C38.1746 17.9999 38.0781 17.9032 38.0781 17.7585V11.6541C38.0781 8.13127 40.2948 5.28418 44.4111 5.28418C46.2891 5.28418 47.9505 6.08048 49.1064 7.35893C50.2863 6.08035 51.9478 5.28418 53.8018 5.28418C57.9274 5.28418 60.1586 8.13127 60.1586 11.6541V17.7585C60.1586 17.9033 60.0383 17.9999 59.9178 17.9999Z" fill="url(#paint2_linear_1092_21770)"/>
<path d="M74.2718 11.6541C74.2718 15.1529 72.22 17.9999 67.915 17.9999C63.8044 17.9999 61.582 15.1528 61.582 11.6541C61.582 8.13127 63.6707 5.28418 67.915 5.28418C72.22 5.28418 74.2718 8.13127 74.2718 11.6541ZM70.9728 11.6541C70.9728 9.45818 69.48 8.83093 67.915 8.83093C66.3738 8.83093 64.8807 9.45818 64.8807 11.6541C64.8807 13.8498 66.3738 14.4528 67.915 14.4528C69.48 14.4528 70.9728 13.8498 70.9728 11.6541Z" fill="url(#paint3_linear_1092_21770)"/>
<path d="M88.1072 17.9999H85.2902C85.1454 17.9999 85.0493 17.9032 85.0493 17.7585V11.6541C85.0493 9.45818 83.5564 8.83093 81.9911 8.83093C80.45 8.83093 78.9572 9.45818 78.9572 11.6541V17.7585C78.9572 17.9032 78.8367 17.9999 78.7163 17.9999H75.899C75.7546 17.9999 75.6582 17.9032 75.6582 17.7585V11.6541C75.6582 8.13127 77.7872 5.28418 81.9911 5.28418C86.2028 5.28418 88.348 8.13127 88.348 11.6541V17.7585C88.348 17.9033 88.2277 17.9999 88.1072 17.9999Z" fill="url(#paint4_linear_1092_21770)"/>
<path d="M22.3377 17.9999H19.5207C19.3759 17.9999 19.2799 17.9032 19.2799 17.7585V11.6541C19.2799 9.45818 17.7867 8.83093 16.2217 8.83093C14.6806 8.83093 13.1878 9.45818 13.1878 11.6541V17.7585C13.1878 17.9032 13.0673 17.9999 12.947 17.9999H10.1296C9.98521 17.9999 9.88877 17.9032 9.88877 17.7585V11.6541C9.88877 9.45818 8.396 8.83093 6.83097 8.83093C5.28985 8.83093 3.79682 9.45818 3.79682 11.6541V17.7585C3.79682 17.9032 3.67673 17.9999 3.55624 17.9999H0.738893C0.594492 17.9999 0.498047 17.9032 0.498047 17.7585V11.6541C0.498047 8.13127 2.71468 5.28418 6.83097 5.28418C8.70898 5.28418 10.3705 6.08048 11.5263 7.35893C12.7062 6.08035 14.3677 5.28418 16.2217 5.28418C20.3473 5.28418 22.5785 8.13127 22.5785 11.6541V17.7585C22.5785 17.9033 22.458 17.9999 22.3377 17.9999Z" fill="url(#paint5_linear_1092_21770)"/>
<path d="M36.6917 11.6541C36.6917 15.1529 34.6399 17.9999 30.3349 17.9999C26.2243 17.9999 24.002 15.1528 24.002 11.6541C24.002 8.13127 26.0906 5.28418 30.3349 5.28418C34.6399 5.28418 36.6917 8.13127 36.6917 11.6541ZM33.3927 11.6541C33.3927 9.45818 31.8999 8.83093 30.3349 8.83093C28.7938 8.83093 27.3006 9.45818 27.3006 11.6541C27.3006 13.8498 28.7938 14.4528 30.3349 14.4528C31.8999 14.4528 33.3927 13.8498 33.3927 11.6541Z" fill="url(#paint6_linear_1092_21770)"/>
<defs>
<linearGradient id="paint0_linear_1092_21770" x1="110.153" y1="5.28418" x2="110.153" y2="17.9999" gradientUnits="userSpaceOnUse">
<stop stop-color="#FFBA00"/>
<stop offset="1" stop-color="#FF2E00"/>
</linearGradient>
<linearGradient id="paint1_linear_1092_21770" x1="96.0793" y1="0" x2="96.0793" y2="18" gradientUnits="userSpaceOnUse">
<stop stop-color="#FFBA00"/>
<stop offset="1" stop-color="#FF2E00"/>
</linearGradient>
<linearGradient id="paint2_linear_1092_21770" x1="49.1184" y1="5.28418" x2="49.1184" y2="17.9999" gradientUnits="userSpaceOnUse">
<stop stop-color="#FF30AE"/>
<stop offset="1" stop-color="#D1003A"/>
</linearGradient>
<linearGradient id="paint3_linear_1092_21770" x1="67.927" y1="5.28418" x2="67.927" y2="17.9999" gradientUnits="userSpaceOnUse">
<stop stop-color="#FF30AE"/>
<stop offset="1" stop-color="#D1003A"/>
</linearGradient>
<linearGradient id="paint4_linear_1092_21770" x1="82.0031" y1="5.28418" x2="82.0031" y2="17.9999" gradientUnits="userSpaceOnUse">
<stop stop-color="#FF30AE"/>
<stop offset="1" stop-color="#D1003A"/>
</linearGradient>
<linearGradient id="paint5_linear_1092_21770" x1="11.5382" y1="5.28418" x2="11.5382" y2="17.9999" gradientUnits="userSpaceOnUse">
<stop stop-color="#00D7E5"/>
<stop offset="1" stop-color="#0066AE"/>
</linearGradient>
<linearGradient id="paint6_linear_1092_21770" x1="30.3469" y1="5.28418" x2="30.3469" y2="17.9999" gradientUnits="userSpaceOnUse">
<stop stop-color="#00D7E5"/>
<stop offset="1" stop-color="#0066AE"/>
</linearGradient>
</defs>
</svg>
