<svg width="243" height="280" viewBox="0 0 243 280" fill="none" xmlns="http://www.w3.org/2000/svg">
<path d="M8.22581 4.11765C8.22581 6.39176 6.3844 8.23529 4.1129 8.23529C1.84141 8.23529 0 6.39176 0 4.11765C0 1.84353 1.84141 0 4.1129 0C6.3844 0 8.22581 1.84353 8.22581 4.11765Z" fill="url(#paint0_linear_1092_4014)" fill-opacity="0.1"/>
<path d="M32.9032 4.11765C32.9032 6.39176 31.0618 8.23529 28.7903 8.23529C26.5188 8.23529 24.6774 6.39176 24.6774 4.11765C24.6774 1.84353 26.5188 0 28.7903 0C31.0618 0 32.9032 1.84353 32.9032 4.11765Z" fill="url(#paint1_linear_1092_4014)" fill-opacity="0.1"/>
<path d="M57.5806 4.11765C57.5806 6.39176 55.7392 8.23529 53.4677 8.23529C51.1962 8.23529 49.3548 6.39176 49.3548 4.11765C49.3548 1.84353 51.1962 0 53.4677 0C55.7392 0 57.5806 1.84353 57.5806 4.11765Z" fill="url(#paint2_linear_1092_4014)" fill-opacity="0.1"/>
<path d="M82.2581 4.11765C82.2581 6.39176 80.4167 8.23529 78.1452 8.23529C75.8737 8.23529 74.0323 6.39176 74.0323 4.11765C74.0323 1.84353 75.8737 0 78.1452 0C80.4167 0 82.2581 1.84353 82.2581 4.11765Z" fill="url(#paint3_linear_1092_4014)" fill-opacity="0.1"/>
<path d="M106.935 4.11765C106.935 6.39176 105.094 8.23529 102.823 8.23529C100.551 8.23529 98.7097 6.39176 98.7097 4.11765C98.7097 1.84353 100.551 0 102.823 0C105.094 0 106.935 1.84353 106.935 4.11765Z" fill="url(#paint4_linear_1092_4014)" fill-opacity="0.1"/>
<path d="M131.613 4.11765C131.613 6.39176 129.771 8.23529 127.5 8.23529C125.229 8.23529 123.387 6.39176 123.387 4.11765C123.387 1.84353 125.229 0 127.5 0C129.771 0 131.613 1.84353 131.613 4.11765Z" fill="url(#paint5_linear_1092_4014)" fill-opacity="0.1"/>
<path d="M156.29 4.11765C156.29 6.39176 154.449 8.23529 152.177 8.23529C149.906 8.23529 148.065 6.39176 148.065 4.11765C148.065 1.84353 149.906 0 152.177 0C154.449 0 156.29 1.84353 156.29 4.11765Z" fill="url(#paint6_linear_1092_4014)" fill-opacity="0.1"/>
<path d="M180.968 4.11765C180.968 6.39176 179.126 8.23529 176.855 8.23529C174.583 8.23529 172.742 6.39176 172.742 4.11765C172.742 1.84353 174.583 0 176.855 0C179.126 0 180.968 1.84353 180.968 4.11765Z" fill="url(#paint7_linear_1092_4014)" fill-opacity="0.1"/>
<path d="M205.645 4.11765C205.645 6.39176 203.804 8.23529 201.532 8.23529C199.261 8.23529 197.419 6.39176 197.419 4.11765C197.419 1.84353 199.261 0 201.532 0C203.804 0 205.645 1.84353 205.645 4.11765Z" fill="url(#paint8_linear_1092_4014)" fill-opacity="0.1"/>
<path d="M230.323 4.11765C230.323 6.39176 228.481 8.23529 226.21 8.23529C223.938 8.23529 222.097 6.39176 222.097 4.11765C222.097 1.84353 223.938 0 226.21 0C228.481 0 230.323 1.84353 230.323 4.11765Z" fill="url(#paint9_linear_1092_4014)" fill-opacity="0.1"/>
<path d="M255 4.11765C255 6.39176 253.159 8.23529 250.887 8.23529C248.616 8.23529 246.774 6.39176 246.774 4.11765C246.774 1.84353 248.616 0 250.887 0C253.159 0 255 1.84353 255 4.11765Z" fill="url(#paint10_linear_1092_4014)" fill-opacity="0.1"/>
<path d="M8.22581 28.8235C8.22581 31.0976 6.3844 32.9412 4.1129 32.9412C1.84141 32.9412 0 31.0976 0 28.8235C0 26.5494 1.84141 24.7059 4.1129 24.7059C6.3844 24.7059 8.22581 26.5494 8.22581 28.8235Z" fill="url(#paint11_linear_1092_4014)" fill-opacity="0.1"/>
<path d="M32.9032 28.8235C32.9032 31.0976 31.0618 32.9412 28.7903 32.9412C26.5188 32.9412 24.6774 31.0976 24.6774 28.8235C24.6774 26.5494 26.5188 24.7059 28.7903 24.7059C31.0618 24.7059 32.9032 26.5494 32.9032 28.8235Z" fill="url(#paint12_linear_1092_4014)" fill-opacity="0.1"/>
<path d="M57.5806 28.8235C57.5806 31.0976 55.7392 32.9412 53.4677 32.9412C51.1962 32.9412 49.3548 31.0976 49.3548 28.8235C49.3548 26.5494 51.1962 24.7059 53.4677 24.7059C55.7392 24.7059 57.5806 26.5494 57.5806 28.8235Z" fill="url(#paint13_linear_1092_4014)" fill-opacity="0.1"/>
<path d="M82.2581 28.8235C82.2581 31.0976 80.4167 32.9412 78.1452 32.9412C75.8737 32.9412 74.0323 31.0976 74.0323 28.8235C74.0323 26.5494 75.8737 24.7059 78.1452 24.7059C80.4167 24.7059 82.2581 26.5494 82.2581 28.8235Z" fill="url(#paint14_linear_1092_4014)" fill-opacity="0.1"/>
<path d="M106.935 28.8235C106.935 31.0976 105.094 32.9412 102.823 32.9412C100.551 32.9412 98.7097 31.0976 98.7097 28.8235C98.7097 26.5494 100.551 24.7059 102.823 24.7059C105.094 24.7059 106.935 26.5494 106.935 28.8235Z" fill="url(#paint15_linear_1092_4014)" fill-opacity="0.1"/>
<path d="M131.613 28.8235C131.613 31.0976 129.771 32.9412 127.5 32.9412C125.229 32.9412 123.387 31.0976 123.387 28.8235C123.387 26.5494 125.229 24.7059 127.5 24.7059C129.771 24.7059 131.613 26.5494 131.613 28.8235Z" fill="url(#paint16_linear_1092_4014)" fill-opacity="0.1"/>
<path d="M156.29 28.8235C156.29 31.0976 154.449 32.9412 152.177 32.9412C149.906 32.9412 148.065 31.0976 148.065 28.8235C148.065 26.5494 149.906 24.7059 152.177 24.7059C154.449 24.7059 156.29 26.5494 156.29 28.8235Z" fill="url(#paint17_linear_1092_4014)" fill-opacity="0.1"/>
<path d="M180.968 28.8235C180.968 31.0976 179.126 32.9412 176.855 32.9412C174.583 32.9412 172.742 31.0976 172.742 28.8235C172.742 26.5494 174.583 24.7059 176.855 24.7059C179.126 24.7059 180.968 26.5494 180.968 28.8235Z" fill="url(#paint18_linear_1092_4014)" fill-opacity="0.1"/>
<path d="M205.645 28.8235C205.645 31.0976 203.804 32.9412 201.532 32.9412C199.261 32.9412 197.419 31.0976 197.419 28.8235C197.419 26.5494 199.261 24.7059 201.532 24.7059C203.804 24.7059 205.645 26.5494 205.645 28.8235Z" fill="url(#paint19_linear_1092_4014)" fill-opacity="0.1"/>
<path d="M230.323 28.8235C230.323 31.0976 228.481 32.9412 226.21 32.9412C223.938 32.9412 222.097 31.0976 222.097 28.8235C222.097 26.5494 223.938 24.7059 226.21 24.7059C228.481 24.7059 230.323 26.5494 230.323 28.8235Z" fill="url(#paint20_linear_1092_4014)" fill-opacity="0.1"/>
<path d="M255 28.8235C255 31.0976 253.159 32.9412 250.887 32.9412C248.616 32.9412 246.774 31.0976 246.774 28.8235C246.774 26.5494 248.616 24.7059 250.887 24.7059C253.159 24.7059 255 26.5494 255 28.8235Z" fill="url(#paint21_linear_1092_4014)" fill-opacity="0.1"/>
<path d="M8.22581 53.5294C8.22581 55.8035 6.3844 57.6471 4.1129 57.6471C1.84141 57.6471 0 55.8035 0 53.5294C0 51.2553 1.84141 49.4118 4.1129 49.4118C6.3844 49.4118 8.22581 51.2553 8.22581 53.5294Z" fill="url(#paint22_linear_1092_4014)" fill-opacity="0.1"/>
<path d="M32.9032 53.5294C32.9032 55.8035 31.0618 57.6471 28.7903 57.6471C26.5188 57.6471 24.6774 55.8035 24.6774 53.5294C24.6774 51.2553 26.5188 49.4118 28.7903 49.4118C31.0618 49.4118 32.9032 51.2553 32.9032 53.5294Z" fill="url(#paint23_linear_1092_4014)" fill-opacity="0.1"/>
<path d="M57.5806 53.5294C57.5806 55.8035 55.7392 57.6471 53.4677 57.6471C51.1962 57.6471 49.3548 55.8035 49.3548 53.5294C49.3548 51.2553 51.1962 49.4118 53.4677 49.4118C55.7392 49.4118 57.5806 51.2553 57.5806 53.5294Z" fill="url(#paint24_linear_1092_4014)" fill-opacity="0.1"/>
<path d="M82.2581 53.5294C82.2581 55.8035 80.4167 57.6471 78.1452 57.6471C75.8737 57.6471 74.0323 55.8035 74.0323 53.5294C74.0323 51.2553 75.8737 49.4118 78.1452 49.4118C80.4167 49.4118 82.2581 51.2553 82.2581 53.5294Z" fill="url(#paint25_linear_1092_4014)" fill-opacity="0.1"/>
<path d="M106.935 53.5294C106.935 55.8035 105.094 57.6471 102.823 57.6471C100.551 57.6471 98.7097 55.8035 98.7097 53.5294C98.7097 51.2553 100.551 49.4118 102.823 49.4118C105.094 49.4118 106.935 51.2553 106.935 53.5294Z" fill="url(#paint26_linear_1092_4014)" fill-opacity="0.1"/>
<path d="M131.613 53.5294C131.613 55.8035 129.771 57.6471 127.5 57.6471C125.229 57.6471 123.387 55.8035 123.387 53.5294C123.387 51.2553 125.229 49.4118 127.5 49.4118C129.771 49.4118 131.613 51.2553 131.613 53.5294Z" fill="url(#paint27_linear_1092_4014)" fill-opacity="0.1"/>
<path d="M156.29 53.5294C156.29 55.8035 154.449 57.6471 152.177 57.6471C149.906 57.6471 148.065 55.8035 148.065 53.5294C148.065 51.2553 149.906 49.4118 152.177 49.4118C154.449 49.4118 156.29 51.2553 156.29 53.5294Z" fill="url(#paint28_linear_1092_4014)" fill-opacity="0.1"/>
<path d="M180.968 53.5294C180.968 55.8035 179.126 57.6471 176.855 57.6471C174.583 57.6471 172.742 55.8035 172.742 53.5294C172.742 51.2553 174.583 49.4118 176.855 49.4118C179.126 49.4118 180.968 51.2553 180.968 53.5294Z" fill="url(#paint29_linear_1092_4014)" fill-opacity="0.1"/>
<path d="M205.645 53.5294C205.645 55.8035 203.804 57.6471 201.532 57.6471C199.261 57.6471 197.419 55.8035 197.419 53.5294C197.419 51.2553 199.261 49.4118 201.532 49.4118C203.804 49.4118 205.645 51.2553 205.645 53.5294Z" fill="url(#paint30_linear_1092_4014)" fill-opacity="0.1"/>
<path d="M230.323 53.5294C230.323 55.8035 228.481 57.6471 226.21 57.6471C223.938 57.6471 222.097 55.8035 222.097 53.5294C222.097 51.2553 223.938 49.4118 226.21 49.4118C228.481 49.4118 230.323 51.2553 230.323 53.5294Z" fill="url(#paint31_linear_1092_4014)" fill-opacity="0.1"/>
<path d="M255 53.5294C255 55.8035 253.159 57.6471 250.887 57.6471C248.616 57.6471 246.774 55.8035 246.774 53.5294C246.774 51.2553 248.616 49.4118 250.887 49.4118C253.159 49.4118 255 51.2553 255 53.5294Z" fill="url(#paint32_linear_1092_4014)" fill-opacity="0.1"/>
<path d="M8.22581 78.2353C8.22581 80.5094 6.3844 82.3529 4.1129 82.3529C1.84141 82.3529 0 80.5094 0 78.2353C0 75.9612 1.84141 74.1176 4.1129 74.1176C6.3844 74.1176 8.22581 75.9612 8.22581 78.2353Z" fill="url(#paint33_linear_1092_4014)" fill-opacity="0.1"/>
<path d="M32.9032 78.2353C32.9032 80.5094 31.0618 82.3529 28.7903 82.3529C26.5188 82.3529 24.6774 80.5094 24.6774 78.2353C24.6774 75.9612 26.5188 74.1176 28.7903 74.1176C31.0618 74.1176 32.9032 75.9612 32.9032 78.2353Z" fill="url(#paint34_linear_1092_4014)" fill-opacity="0.1"/>
<path d="M57.5806 78.2353C57.5806 80.5094 55.7392 82.3529 53.4677 82.3529C51.1962 82.3529 49.3548 80.5094 49.3548 78.2353C49.3548 75.9612 51.1962 74.1176 53.4677 74.1176C55.7392 74.1176 57.5806 75.9612 57.5806 78.2353Z" fill="url(#paint35_linear_1092_4014)" fill-opacity="0.1"/>
<path d="M82.2581 78.2353C82.2581 80.5094 80.4167 82.3529 78.1452 82.3529C75.8737 82.3529 74.0323 80.5094 74.0323 78.2353C74.0323 75.9612 75.8737 74.1176 78.1452 74.1176C80.4167 74.1176 82.2581 75.9612 82.2581 78.2353Z" fill="url(#paint36_linear_1092_4014)" fill-opacity="0.1"/>
<path d="M106.935 78.2353C106.935 80.5094 105.094 82.3529 102.823 82.3529C100.551 82.3529 98.7097 80.5094 98.7097 78.2353C98.7097 75.9612 100.551 74.1176 102.823 74.1176C105.094 74.1176 106.935 75.9612 106.935 78.2353Z" fill="url(#paint37_linear_1092_4014)" fill-opacity="0.1"/>
<path d="M131.613 78.2353C131.613 80.5094 129.771 82.3529 127.5 82.3529C125.229 82.3529 123.387 80.5094 123.387 78.2353C123.387 75.9612 125.229 74.1176 127.5 74.1176C129.771 74.1176 131.613 75.9612 131.613 78.2353Z" fill="url(#paint38_linear_1092_4014)" fill-opacity="0.1"/>
<path d="M156.29 78.2353C156.29 80.5094 154.449 82.3529 152.177 82.3529C149.906 82.3529 148.065 80.5094 148.065 78.2353C148.065 75.9612 149.906 74.1176 152.177 74.1176C154.449 74.1176 156.29 75.9612 156.29 78.2353Z" fill="url(#paint39_linear_1092_4014)" fill-opacity="0.1"/>
<path d="M180.968 78.2353C180.968 80.5094 179.126 82.3529 176.855 82.3529C174.583 82.3529 172.742 80.5094 172.742 78.2353C172.742 75.9612 174.583 74.1176 176.855 74.1176C179.126 74.1176 180.968 75.9612 180.968 78.2353Z" fill="url(#paint40_linear_1092_4014)" fill-opacity="0.1"/>
<path d="M205.645 78.2353C205.645 80.5094 203.804 82.3529 201.532 82.3529C199.261 82.3529 197.419 80.5094 197.419 78.2353C197.419 75.9612 199.261 74.1176 201.532 74.1176C203.804 74.1176 205.645 75.9612 205.645 78.2353Z" fill="url(#paint41_linear_1092_4014)" fill-opacity="0.1"/>
<path d="M230.323 78.2353C230.323 80.5094 228.481 82.3529 226.21 82.3529C223.938 82.3529 222.097 80.5094 222.097 78.2353C222.097 75.9612 223.938 74.1176 226.21 74.1176C228.481 74.1176 230.323 75.9612 230.323 78.2353Z" fill="url(#paint42_linear_1092_4014)" fill-opacity="0.1"/>
<path d="M255 78.2353C255 80.5094 253.159 82.3529 250.887 82.3529C248.616 82.3529 246.774 80.5094 246.774 78.2353C246.774 75.9612 248.616 74.1176 250.887 74.1176C253.159 74.1176 255 75.9612 255 78.2353Z" fill="url(#paint43_linear_1092_4014)" fill-opacity="0.1"/>
<path d="M8.22581 102.941C8.22581 105.215 6.3844 107.059 4.1129 107.059C1.84141 107.059 0 105.215 0 102.941C0 100.667 1.84141 98.8235 4.1129 98.8235C6.3844 98.8235 8.22581 100.667 8.22581 102.941Z" fill="url(#paint44_linear_1092_4014)" fill-opacity="0.1"/>
<path d="M32.9032 102.941C32.9032 105.215 31.0618 107.059 28.7903 107.059C26.5188 107.059 24.6774 105.215 24.6774 102.941C24.6774 100.667 26.5188 98.8235 28.7903 98.8235C31.0618 98.8235 32.9032 100.667 32.9032 102.941Z" fill="url(#paint45_linear_1092_4014)" fill-opacity="0.1"/>
<path d="M57.5806 102.941C57.5806 105.215 55.7392 107.059 53.4677 107.059C51.1962 107.059 49.3548 105.215 49.3548 102.941C49.3548 100.667 51.1962 98.8235 53.4677 98.8235C55.7392 98.8235 57.5806 100.667 57.5806 102.941Z" fill="url(#paint46_linear_1092_4014)" fill-opacity="0.1"/>
<path d="M82.2581 102.941C82.2581 105.215 80.4167 107.059 78.1452 107.059C75.8737 107.059 74.0323 105.215 74.0323 102.941C74.0323 100.667 75.8737 98.8235 78.1452 98.8235C80.4167 98.8235 82.2581 100.667 82.2581 102.941Z" fill="url(#paint47_linear_1092_4014)" fill-opacity="0.1"/>
<path d="M106.935 102.941C106.935 105.215 105.094 107.059 102.823 107.059C100.551 107.059 98.7097 105.215 98.7097 102.941C98.7097 100.667 100.551 98.8235 102.823 98.8235C105.094 98.8235 106.935 100.667 106.935 102.941Z" fill="url(#paint48_linear_1092_4014)" fill-opacity="0.1"/>
<path d="M131.613 102.941C131.613 105.215 129.771 107.059 127.5 107.059C125.229 107.059 123.387 105.215 123.387 102.941C123.387 100.667 125.229 98.8235 127.5 98.8235C129.771 98.8235 131.613 100.667 131.613 102.941Z" fill="url(#paint49_linear_1092_4014)" fill-opacity="0.1"/>
<path d="M156.29 102.941C156.29 105.215 154.449 107.059 152.177 107.059C149.906 107.059 148.065 105.215 148.065 102.941C148.065 100.667 149.906 98.8235 152.177 98.8235C154.449 98.8235 156.29 100.667 156.29 102.941Z" fill="url(#paint50_linear_1092_4014)" fill-opacity="0.1"/>
<path d="M180.968 102.941C180.968 105.215 179.126 107.059 176.855 107.059C174.583 107.059 172.742 105.215 172.742 102.941C172.742 100.667 174.583 98.8235 176.855 98.8235C179.126 98.8235 180.968 100.667 180.968 102.941Z" fill="url(#paint51_linear_1092_4014)" fill-opacity="0.1"/>
<path d="M205.645 102.941C205.645 105.215 203.804 107.059 201.532 107.059C199.261 107.059 197.419 105.215 197.419 102.941C197.419 100.667 199.261 98.8235 201.532 98.8235C203.804 98.8235 205.645 100.667 205.645 102.941Z" fill="url(#paint52_linear_1092_4014)" fill-opacity="0.1"/>
<path d="M230.323 102.941C230.323 105.215 228.481 107.059 226.21 107.059C223.938 107.059 222.097 105.215 222.097 102.941C222.097 100.667 223.938 98.8235 226.21 98.8235C228.481 98.8235 230.323 100.667 230.323 102.941Z" fill="url(#paint53_linear_1092_4014)" fill-opacity="0.1"/>
<path d="M255 102.941C255 105.215 253.159 107.059 250.887 107.059C248.616 107.059 246.774 105.215 246.774 102.941C246.774 100.667 248.616 98.8235 250.887 98.8235C253.159 98.8235 255 100.667 255 102.941Z" fill="url(#paint54_linear_1092_4014)" fill-opacity="0.1"/>
<path d="M8.22581 127.647C8.22581 129.921 6.3844 131.765 4.1129 131.765C1.84141 131.765 0 129.921 0 127.647C0 125.373 1.84141 123.529 4.1129 123.529C6.3844 123.529 8.22581 125.373 8.22581 127.647Z" fill="url(#paint55_linear_1092_4014)" fill-opacity="0.1"/>
<path d="M32.9032 127.647C32.9032 129.921 31.0618 131.765 28.7903 131.765C26.5188 131.765 24.6774 129.921 24.6774 127.647C24.6774 125.373 26.5188 123.529 28.7903 123.529C31.0618 123.529 32.9032 125.373 32.9032 127.647Z" fill="url(#paint56_linear_1092_4014)" fill-opacity="0.1"/>
<path d="M57.5806 127.647C57.5806 129.921 55.7392 131.765 53.4677 131.765C51.1962 131.765 49.3548 129.921 49.3548 127.647C49.3548 125.373 51.1962 123.529 53.4677 123.529C55.7392 123.529 57.5806 125.373 57.5806 127.647Z" fill="url(#paint57_linear_1092_4014)" fill-opacity="0.1"/>
<path d="M82.2581 127.647C82.2581 129.921 80.4167 131.765 78.1452 131.765C75.8737 131.765 74.0323 129.921 74.0323 127.647C74.0323 125.373 75.8737 123.529 78.1452 123.529C80.4167 123.529 82.2581 125.373 82.2581 127.647Z" fill="url(#paint58_linear_1092_4014)" fill-opacity="0.1"/>
<path d="M106.935 127.647C106.935 129.921 105.094 131.765 102.823 131.765C100.551 131.765 98.7097 129.921 98.7097 127.647C98.7097 125.373 100.551 123.529 102.823 123.529C105.094 123.529 106.935 125.373 106.935 127.647Z" fill="url(#paint59_linear_1092_4014)" fill-opacity="0.1"/>
<path d="M131.613 127.647C131.613 129.921 129.771 131.765 127.5 131.765C125.229 131.765 123.387 129.921 123.387 127.647C123.387 125.373 125.229 123.529 127.5 123.529C129.771 123.529 131.613 125.373 131.613 127.647Z" fill="url(#paint60_linear_1092_4014)" fill-opacity="0.1"/>
<path d="M156.29 127.647C156.29 129.921 154.449 131.765 152.177 131.765C149.906 131.765 148.065 129.921 148.065 127.647C148.065 125.373 149.906 123.529 152.177 123.529C154.449 123.529 156.29 125.373 156.29 127.647Z" fill="url(#paint61_linear_1092_4014)" fill-opacity="0.1"/>
<path d="M180.968 127.647C180.968 129.921 179.126 131.765 176.855 131.765C174.583 131.765 172.742 129.921 172.742 127.647C172.742 125.373 174.583 123.529 176.855 123.529C179.126 123.529 180.968 125.373 180.968 127.647Z" fill="url(#paint62_linear_1092_4014)" fill-opacity="0.1"/>
<path d="M205.645 127.647C205.645 129.921 203.804 131.765 201.532 131.765C199.261 131.765 197.419 129.921 197.419 127.647C197.419 125.373 199.261 123.529 201.532 123.529C203.804 123.529 205.645 125.373 205.645 127.647Z" fill="url(#paint63_linear_1092_4014)" fill-opacity="0.1"/>
<path d="M230.323 127.647C230.323 129.921 228.481 131.765 226.21 131.765C223.938 131.765 222.097 129.921 222.097 127.647C222.097 125.373 223.938 123.529 226.21 123.529C228.481 123.529 230.323 125.373 230.323 127.647Z" fill="url(#paint64_linear_1092_4014)" fill-opacity="0.1"/>
<path d="M255 127.647C255 129.921 253.159 131.765 250.887 131.765C248.616 131.765 246.774 129.921 246.774 127.647C246.774 125.373 248.616 123.529 250.887 123.529C253.159 123.529 255 125.373 255 127.647Z" fill="url(#paint65_linear_1092_4014)" fill-opacity="0.1"/>
<path d="M8.22581 152.353C8.22581 154.627 6.3844 156.471 4.1129 156.471C1.84141 156.471 0 154.627 0 152.353C0 150.079 1.84141 148.235 4.1129 148.235C6.3844 148.235 8.22581 150.079 8.22581 152.353Z" fill="url(#paint66_linear_1092_4014)" fill-opacity="0.1"/>
<path d="M32.9032 152.353C32.9032 154.627 31.0618 156.471 28.7903 156.471C26.5188 156.471 24.6774 154.627 24.6774 152.353C24.6774 150.079 26.5188 148.235 28.7903 148.235C31.0618 148.235 32.9032 150.079 32.9032 152.353Z" fill="url(#paint67_linear_1092_4014)" fill-opacity="0.1"/>
<path d="M57.5806 152.353C57.5806 154.627 55.7392 156.471 53.4677 156.471C51.1962 156.471 49.3548 154.627 49.3548 152.353C49.3548 150.079 51.1962 148.235 53.4677 148.235C55.7392 148.235 57.5806 150.079 57.5806 152.353Z" fill="url(#paint68_linear_1092_4014)" fill-opacity="0.1"/>
<path d="M82.2581 152.353C82.2581 154.627 80.4167 156.471 78.1452 156.471C75.8737 156.471 74.0323 154.627 74.0323 152.353C74.0323 150.079 75.8737 148.235 78.1452 148.235C80.4167 148.235 82.2581 150.079 82.2581 152.353Z" fill="url(#paint69_linear_1092_4014)" fill-opacity="0.1"/>
<path d="M106.935 152.353C106.935 154.627 105.094 156.471 102.823 156.471C100.551 156.471 98.7097 154.627 98.7097 152.353C98.7097 150.079 100.551 148.235 102.823 148.235C105.094 148.235 106.935 150.079 106.935 152.353Z" fill="url(#paint70_linear_1092_4014)" fill-opacity="0.1"/>
<path d="M131.613 152.353C131.613 154.627 129.771 156.471 127.5 156.471C125.229 156.471 123.387 154.627 123.387 152.353C123.387 150.079 125.229 148.235 127.5 148.235C129.771 148.235 131.613 150.079 131.613 152.353Z" fill="url(#paint71_linear_1092_4014)" fill-opacity="0.1"/>
<path d="M156.29 152.353C156.29 154.627 154.449 156.471 152.177 156.471C149.906 156.471 148.065 154.627 148.065 152.353C148.065 150.079 149.906 148.235 152.177 148.235C154.449 148.235 156.29 150.079 156.29 152.353Z" fill="url(#paint72_linear_1092_4014)" fill-opacity="0.1"/>
<path d="M180.968 152.353C180.968 154.627 179.126 156.471 176.855 156.471C174.583 156.471 172.742 154.627 172.742 152.353C172.742 150.079 174.583 148.235 176.855 148.235C179.126 148.235 180.968 150.079 180.968 152.353Z" fill="url(#paint73_linear_1092_4014)" fill-opacity="0.1"/>
<path d="M205.645 152.353C205.645 154.627 203.804 156.471 201.532 156.471C199.261 156.471 197.419 154.627 197.419 152.353C197.419 150.079 199.261 148.235 201.532 148.235C203.804 148.235 205.645 150.079 205.645 152.353Z" fill="url(#paint74_linear_1092_4014)" fill-opacity="0.1"/>
<path d="M230.323 152.353C230.323 154.627 228.481 156.471 226.21 156.471C223.938 156.471 222.097 154.627 222.097 152.353C222.097 150.079 223.938 148.235 226.21 148.235C228.481 148.235 230.323 150.079 230.323 152.353Z" fill="url(#paint75_linear_1092_4014)" fill-opacity="0.1"/>
<path d="M255 152.353C255 154.627 253.159 156.471 250.887 156.471C248.616 156.471 246.774 154.627 246.774 152.353C246.774 150.079 248.616 148.235 250.887 148.235C253.159 148.235 255 150.079 255 152.353Z" fill="url(#paint76_linear_1092_4014)" fill-opacity="0.1"/>
<path d="M8.22581 177.059C8.22581 179.333 6.3844 181.176 4.1129 181.176C1.84141 181.176 0 179.333 0 177.059C0 174.785 1.84141 172.941 4.1129 172.941C6.3844 172.941 8.22581 174.785 8.22581 177.059Z" fill="url(#paint77_linear_1092_4014)" fill-opacity="0.1"/>
<path d="M32.9032 177.059C32.9032 179.333 31.0618 181.176 28.7903 181.176C26.5188 181.176 24.6774 179.333 24.6774 177.059C24.6774 174.785 26.5188 172.941 28.7903 172.941C31.0618 172.941 32.9032 174.785 32.9032 177.059Z" fill="url(#paint78_linear_1092_4014)" fill-opacity="0.1"/>
<path d="M57.5806 177.059C57.5806 179.333 55.7392 181.176 53.4677 181.176C51.1962 181.176 49.3548 179.333 49.3548 177.059C49.3548 174.785 51.1962 172.941 53.4677 172.941C55.7392 172.941 57.5806 174.785 57.5806 177.059Z" fill="url(#paint79_linear_1092_4014)" fill-opacity="0.1"/>
<path d="M82.2581 177.059C82.2581 179.333 80.4167 181.176 78.1452 181.176C75.8737 181.176 74.0323 179.333 74.0323 177.059C74.0323 174.785 75.8737 172.941 78.1452 172.941C80.4167 172.941 82.2581 174.785 82.2581 177.059Z" fill="url(#paint80_linear_1092_4014)" fill-opacity="0.1"/>
<path d="M106.935 177.059C106.935 179.333 105.094 181.176 102.823 181.176C100.551 181.176 98.7097 179.333 98.7097 177.059C98.7097 174.785 100.551 172.941 102.823 172.941C105.094 172.941 106.935 174.785 106.935 177.059Z" fill="url(#paint81_linear_1092_4014)" fill-opacity="0.1"/>
<path d="M131.613 177.059C131.613 179.333 129.771 181.176 127.5 181.176C125.229 181.176 123.387 179.333 123.387 177.059C123.387 174.785 125.229 172.941 127.5 172.941C129.771 172.941 131.613 174.785 131.613 177.059Z" fill="url(#paint82_linear_1092_4014)" fill-opacity="0.1"/>
<path d="M156.29 177.059C156.29 179.333 154.449 181.176 152.177 181.176C149.906 181.176 148.065 179.333 148.065 177.059C148.065 174.785 149.906 172.941 152.177 172.941C154.449 172.941 156.29 174.785 156.29 177.059Z" fill="url(#paint83_linear_1092_4014)" fill-opacity="0.1"/>
<path d="M180.968 177.059C180.968 179.333 179.126 181.176 176.855 181.176C174.583 181.176 172.742 179.333 172.742 177.059C172.742 174.785 174.583 172.941 176.855 172.941C179.126 172.941 180.968 174.785 180.968 177.059Z" fill="url(#paint84_linear_1092_4014)" fill-opacity="0.1"/>
<path d="M205.645 177.059C205.645 179.333 203.804 181.176 201.532 181.176C199.261 181.176 197.419 179.333 197.419 177.059C197.419 174.785 199.261 172.941 201.532 172.941C203.804 172.941 205.645 174.785 205.645 177.059Z" fill="url(#paint85_linear_1092_4014)" fill-opacity="0.1"/>
<path d="M230.323 177.059C230.323 179.333 228.481 181.176 226.21 181.176C223.938 181.176 222.097 179.333 222.097 177.059C222.097 174.785 223.938 172.941 226.21 172.941C228.481 172.941 230.323 174.785 230.323 177.059Z" fill="url(#paint86_linear_1092_4014)" fill-opacity="0.1"/>
<path d="M255 177.059C255 179.333 253.159 181.176 250.887 181.176C248.616 181.176 246.774 179.333 246.774 177.059C246.774 174.785 248.616 172.941 250.887 172.941C253.159 172.941 255 174.785 255 177.059Z" fill="url(#paint87_linear_1092_4014)" fill-opacity="0.1"/>
<path d="M8.22581 201.765C8.22581 204.039 6.3844 205.882 4.1129 205.882C1.84141 205.882 0 204.039 0 201.765C0 199.491 1.84141 197.647 4.1129 197.647C6.3844 197.647 8.22581 199.491 8.22581 201.765Z" fill="url(#paint88_linear_1092_4014)" fill-opacity="0.1"/>
<path d="M32.9032 201.765C32.9032 204.039 31.0618 205.882 28.7903 205.882C26.5188 205.882 24.6774 204.039 24.6774 201.765C24.6774 199.491 26.5188 197.647 28.7903 197.647C31.0618 197.647 32.9032 199.491 32.9032 201.765Z" fill="url(#paint89_linear_1092_4014)" fill-opacity="0.1"/>
<path d="M57.5806 201.765C57.5806 204.039 55.7392 205.882 53.4677 205.882C51.1962 205.882 49.3548 204.039 49.3548 201.765C49.3548 199.491 51.1962 197.647 53.4677 197.647C55.7392 197.647 57.5806 199.491 57.5806 201.765Z" fill="url(#paint90_linear_1092_4014)" fill-opacity="0.1"/>
<path d="M82.2581 201.765C82.2581 204.039 80.4167 205.882 78.1452 205.882C75.8737 205.882 74.0323 204.039 74.0323 201.765C74.0323 199.491 75.8737 197.647 78.1452 197.647C80.4167 197.647 82.2581 199.491 82.2581 201.765Z" fill="url(#paint91_linear_1092_4014)" fill-opacity="0.1"/>
<path d="M106.935 201.765C106.935 204.039 105.094 205.882 102.823 205.882C100.551 205.882 98.7097 204.039 98.7097 201.765C98.7097 199.491 100.551 197.647 102.823 197.647C105.094 197.647 106.935 199.491 106.935 201.765Z" fill="url(#paint92_linear_1092_4014)" fill-opacity="0.1"/>
<path d="M131.613 201.765C131.613 204.039 129.771 205.882 127.5 205.882C125.229 205.882 123.387 204.039 123.387 201.765C123.387 199.491 125.229 197.647 127.5 197.647C129.771 197.647 131.613 199.491 131.613 201.765Z" fill="url(#paint93_linear_1092_4014)" fill-opacity="0.1"/>
<path d="M156.29 201.765C156.29 204.039 154.449 205.882 152.177 205.882C149.906 205.882 148.065 204.039 148.065 201.765C148.065 199.491 149.906 197.647 152.177 197.647C154.449 197.647 156.29 199.491 156.29 201.765Z" fill="url(#paint94_linear_1092_4014)" fill-opacity="0.1"/>
<path d="M180.968 201.765C180.968 204.039 179.126 205.882 176.855 205.882C174.583 205.882 172.742 204.039 172.742 201.765C172.742 199.491 174.583 197.647 176.855 197.647C179.126 197.647 180.968 199.491 180.968 201.765Z" fill="url(#paint95_linear_1092_4014)" fill-opacity="0.1"/>
<path d="M205.645 201.765C205.645 204.039 203.804 205.882 201.532 205.882C199.261 205.882 197.419 204.039 197.419 201.765C197.419 199.491 199.261 197.647 201.532 197.647C203.804 197.647 205.645 199.491 205.645 201.765Z" fill="url(#paint96_linear_1092_4014)" fill-opacity="0.1"/>
<path d="M230.323 201.765C230.323 204.039 228.481 205.882 226.21 205.882C223.938 205.882 222.097 204.039 222.097 201.765C222.097 199.491 223.938 197.647 226.21 197.647C228.481 197.647 230.323 199.491 230.323 201.765Z" fill="url(#paint97_linear_1092_4014)" fill-opacity="0.1"/>
<path d="M255 201.765C255 204.039 253.159 205.882 250.887 205.882C248.616 205.882 246.774 204.039 246.774 201.765C246.774 199.491 248.616 197.647 250.887 197.647C253.159 197.647 255 199.491 255 201.765Z" fill="url(#paint98_linear_1092_4014)" fill-opacity="0.1"/>
<path d="M8.22581 226.471C8.22581 228.745 6.3844 230.588 4.1129 230.588C1.84141 230.588 0 228.745 0 226.471C0 224.196 1.84141 222.353 4.1129 222.353C6.3844 222.353 8.22581 224.196 8.22581 226.471Z" fill="url(#paint99_linear_1092_4014)" fill-opacity="0.1"/>
<path d="M32.9032 226.471C32.9032 228.745 31.0618 230.588 28.7903 230.588C26.5188 230.588 24.6774 228.745 24.6774 226.471C24.6774 224.196 26.5188 222.353 28.7903 222.353C31.0618 222.353 32.9032 224.196 32.9032 226.471Z" fill="url(#paint100_linear_1092_4014)" fill-opacity="0.1"/>
<path d="M57.5806 226.471C57.5806 228.745 55.7392 230.588 53.4677 230.588C51.1962 230.588 49.3548 228.745 49.3548 226.471C49.3548 224.196 51.1962 222.353 53.4677 222.353C55.7392 222.353 57.5806 224.196 57.5806 226.471Z" fill="url(#paint101_linear_1092_4014)" fill-opacity="0.1"/>
<path d="M82.2581 226.471C82.2581 228.745 80.4167 230.588 78.1452 230.588C75.8737 230.588 74.0323 228.745 74.0323 226.471C74.0323 224.196 75.8737 222.353 78.1452 222.353C80.4167 222.353 82.2581 224.196 82.2581 226.471Z" fill="url(#paint102_linear_1092_4014)" fill-opacity="0.1"/>
<path d="M106.935 226.471C106.935 228.745 105.094 230.588 102.823 230.588C100.551 230.588 98.7097 228.745 98.7097 226.471C98.7097 224.196 100.551 222.353 102.823 222.353C105.094 222.353 106.935 224.196 106.935 226.471Z" fill="url(#paint103_linear_1092_4014)" fill-opacity="0.1"/>
<path d="M131.613 226.471C131.613 228.745 129.771 230.588 127.5 230.588C125.229 230.588 123.387 228.745 123.387 226.471C123.387 224.196 125.229 222.353 127.5 222.353C129.771 222.353 131.613 224.196 131.613 226.471Z" fill="url(#paint104_linear_1092_4014)" fill-opacity="0.1"/>
<path d="M156.29 226.471C156.29 228.745 154.449 230.588 152.177 230.588C149.906 230.588 148.065 228.745 148.065 226.471C148.065 224.196 149.906 222.353 152.177 222.353C154.449 222.353 156.29 224.196 156.29 226.471Z" fill="url(#paint105_linear_1092_4014)" fill-opacity="0.1"/>
<path d="M180.968 226.471C180.968 228.745 179.126 230.588 176.855 230.588C174.583 230.588 172.742 228.745 172.742 226.471C172.742 224.196 174.583 222.353 176.855 222.353C179.126 222.353 180.968 224.196 180.968 226.471Z" fill="url(#paint106_linear_1092_4014)" fill-opacity="0.1"/>
<path d="M205.645 226.471C205.645 228.745 203.804 230.588 201.532 230.588C199.261 230.588 197.419 228.745 197.419 226.471C197.419 224.196 199.261 222.353 201.532 222.353C203.804 222.353 205.645 224.196 205.645 226.471Z" fill="url(#paint107_linear_1092_4014)" fill-opacity="0.1"/>
<path d="M230.323 226.471C230.323 228.745 228.481 230.588 226.21 230.588C223.938 230.588 222.097 228.745 222.097 226.471C222.097 224.196 223.938 222.353 226.21 222.353C228.481 222.353 230.323 224.196 230.323 226.471Z" fill="url(#paint108_linear_1092_4014)" fill-opacity="0.1"/>
<path d="M255 226.471C255 228.745 253.159 230.588 250.887 230.588C248.616 230.588 246.774 228.745 246.774 226.471C246.774 224.196 248.616 222.353 250.887 222.353C253.159 222.353 255 224.196 255 226.471Z" fill="url(#paint109_linear_1092_4014)" fill-opacity="0.1"/>
<path d="M8.22581 251.176C8.22581 253.451 6.3844 255.294 4.1129 255.294C1.84141 255.294 0 253.451 0 251.176C0 248.902 1.84141 247.059 4.1129 247.059C6.3844 247.059 8.22581 248.902 8.22581 251.176Z" fill="url(#paint110_linear_1092_4014)" fill-opacity="0.1"/>
<path d="M32.9032 251.176C32.9032 253.451 31.0618 255.294 28.7903 255.294C26.5188 255.294 24.6774 253.451 24.6774 251.176C24.6774 248.902 26.5188 247.059 28.7903 247.059C31.0618 247.059 32.9032 248.902 32.9032 251.176Z" fill="url(#paint111_linear_1092_4014)" fill-opacity="0.1"/>
<path d="M57.5806 251.176C57.5806 253.451 55.7392 255.294 53.4677 255.294C51.1962 255.294 49.3548 253.451 49.3548 251.176C49.3548 248.902 51.1962 247.059 53.4677 247.059C55.7392 247.059 57.5806 248.902 57.5806 251.176Z" fill="url(#paint112_linear_1092_4014)" fill-opacity="0.1"/>
<path d="M82.2581 251.176C82.2581 253.451 80.4167 255.294 78.1452 255.294C75.8737 255.294 74.0323 253.451 74.0323 251.176C74.0323 248.902 75.8737 247.059 78.1452 247.059C80.4167 247.059 82.2581 248.902 82.2581 251.176Z" fill="url(#paint113_linear_1092_4014)" fill-opacity="0.1"/>
<path d="M106.935 251.176C106.935 253.451 105.094 255.294 102.823 255.294C100.551 255.294 98.7097 253.451 98.7097 251.176C98.7097 248.902 100.551 247.059 102.823 247.059C105.094 247.059 106.935 248.902 106.935 251.176Z" fill="url(#paint114_linear_1092_4014)" fill-opacity="0.1"/>
<path d="M131.613 251.176C131.613 253.451 129.771 255.294 127.5 255.294C125.229 255.294 123.387 253.451 123.387 251.176C123.387 248.902 125.229 247.059 127.5 247.059C129.771 247.059 131.613 248.902 131.613 251.176Z" fill="url(#paint115_linear_1092_4014)" fill-opacity="0.1"/>
<path d="M156.29 251.176C156.29 253.451 154.449 255.294 152.177 255.294C149.906 255.294 148.065 253.451 148.065 251.176C148.065 248.902 149.906 247.059 152.177 247.059C154.449 247.059 156.29 248.902 156.29 251.176Z" fill="url(#paint116_linear_1092_4014)" fill-opacity="0.1"/>
<path d="M180.968 251.176C180.968 253.451 179.126 255.294 176.855 255.294C174.583 255.294 172.742 253.451 172.742 251.176C172.742 248.902 174.583 247.059 176.855 247.059C179.126 247.059 180.968 248.902 180.968 251.176Z" fill="url(#paint117_linear_1092_4014)" fill-opacity="0.1"/>
<path d="M205.645 251.176C205.645 253.451 203.804 255.294 201.532 255.294C199.261 255.294 197.419 253.451 197.419 251.176C197.419 248.902 199.261 247.059 201.532 247.059C203.804 247.059 205.645 248.902 205.645 251.176Z" fill="url(#paint118_linear_1092_4014)" fill-opacity="0.1"/>
<path d="M230.323 251.176C230.323 253.451 228.481 255.294 226.21 255.294C223.938 255.294 222.097 253.451 222.097 251.176C222.097 248.902 223.938 247.059 226.21 247.059C228.481 247.059 230.323 248.902 230.323 251.176Z" fill="url(#paint119_linear_1092_4014)" fill-opacity="0.1"/>
<path d="M255 251.176C255 253.451 253.159 255.294 250.887 255.294C248.616 255.294 246.774 253.451 246.774 251.176C246.774 248.902 248.616 247.059 250.887 247.059C253.159 247.059 255 248.902 255 251.176Z" fill="url(#paint120_linear_1092_4014)" fill-opacity="0.1"/>
<path d="M8.22581 275.882C8.22581 278.156 6.3844 280 4.1129 280C1.84141 280 0 278.156 0 275.882C0 273.608 1.84141 271.765 4.1129 271.765C6.3844 271.765 8.22581 273.608 8.22581 275.882Z" fill="url(#paint121_linear_1092_4014)" fill-opacity="0.1"/>
<path d="M32.9032 275.882C32.9032 278.156 31.0618 280 28.7903 280C26.5188 280 24.6774 278.156 24.6774 275.882C24.6774 273.608 26.5188 271.765 28.7903 271.765C31.0618 271.765 32.9032 273.608 32.9032 275.882Z" fill="url(#paint122_linear_1092_4014)" fill-opacity="0.1"/>
<path d="M57.5806 275.882C57.5806 278.156 55.7392 280 53.4677 280C51.1962 280 49.3548 278.156 49.3548 275.882C49.3548 273.608 51.1962 271.765 53.4677 271.765C55.7392 271.765 57.5806 273.608 57.5806 275.882Z" fill="url(#paint123_linear_1092_4014)" fill-opacity="0.1"/>
<path d="M82.2581 275.882C82.2581 278.156 80.4167 280 78.1452 280C75.8737 280 74.0323 278.156 74.0323 275.882C74.0323 273.608 75.8737 271.765 78.1452 271.765C80.4167 271.765 82.2581 273.608 82.2581 275.882Z" fill="url(#paint124_linear_1092_4014)" fill-opacity="0.1"/>
<path d="M106.935 275.882C106.935 278.156 105.094 280 102.823 280C100.551 280 98.7097 278.156 98.7097 275.882C98.7097 273.608 100.551 271.765 102.823 271.765C105.094 271.765 106.935 273.608 106.935 275.882Z" fill="url(#paint125_linear_1092_4014)" fill-opacity="0.1"/>
<path d="M131.613 275.882C131.613 278.156 129.771 280 127.5 280C125.229 280 123.387 278.156 123.387 275.882C123.387 273.608 125.229 271.765 127.5 271.765C129.771 271.765 131.613 273.608 131.613 275.882Z" fill="url(#paint126_linear_1092_4014)" fill-opacity="0.1"/>
<path d="M156.29 275.882C156.29 278.156 154.449 280 152.177 280C149.906 280 148.065 278.156 148.065 275.882C148.065 273.608 149.906 271.765 152.177 271.765C154.449 271.765 156.29 273.608 156.29 275.882Z" fill="url(#paint127_linear_1092_4014)" fill-opacity="0.1"/>
<path d="M180.968 275.882C180.968 278.156 179.126 280 176.855 280C174.583 280 172.742 278.156 172.742 275.882C172.742 273.608 174.583 271.765 176.855 271.765C179.126 271.765 180.968 273.608 180.968 275.882Z" fill="url(#paint128_linear_1092_4014)" fill-opacity="0.1"/>
<path d="M205.645 275.882C205.645 278.156 203.804 280 201.532 280C199.261 280 197.419 278.156 197.419 275.882C197.419 273.608 199.261 271.765 201.532 271.765C203.804 271.765 205.645 273.608 205.645 275.882Z" fill="url(#paint129_linear_1092_4014)" fill-opacity="0.1"/>
<path d="M230.323 275.882C230.323 278.156 228.481 280 226.21 280C223.938 280 222.097 278.156 222.097 275.882C222.097 273.608 223.938 271.765 226.21 271.765C228.481 271.765 230.323 273.608 230.323 275.882Z" fill="url(#paint130_linear_1092_4014)" fill-opacity="0.1"/>
<path d="M255 275.882C255 278.156 253.159 280 250.887 280C248.616 280 246.774 278.156 246.774 275.882C246.774 273.608 248.616 271.765 250.887 271.765C253.159 271.765 255 273.608 255 275.882Z" fill="url(#paint131_linear_1092_4014)" fill-opacity="0.1"/>
<defs>
<linearGradient id="paint0_linear_1092_4014" x1="173.5" y1="47" x2="77.5" y2="179.5" gradientUnits="userSpaceOnUse">
<stop stop-color="#4089F8"/>
<stop offset="1" stop-color="#F2F2F2" stop-opacity="0"/>
</linearGradient>
<linearGradient id="paint1_linear_1092_4014" x1="173.5" y1="47" x2="77.5" y2="179.5" gradientUnits="userSpaceOnUse">
<stop stop-color="#4089F8"/>
<stop offset="1" stop-color="#F2F2F2" stop-opacity="0"/>
</linearGradient>
<linearGradient id="paint2_linear_1092_4014" x1="173.5" y1="47" x2="77.5" y2="179.5" gradientUnits="userSpaceOnUse">
<stop stop-color="#4089F8"/>
<stop offset="1" stop-color="#F2F2F2" stop-opacity="0"/>
</linearGradient>
<linearGradient id="paint3_linear_1092_4014" x1="173.5" y1="47" x2="77.5" y2="179.5" gradientUnits="userSpaceOnUse">
<stop stop-color="#4089F8"/>
<stop offset="1" stop-color="#F2F2F2" stop-opacity="0"/>
</linearGradient>
<linearGradient id="paint4_linear_1092_4014" x1="173.5" y1="47" x2="77.5" y2="179.5" gradientUnits="userSpaceOnUse">
<stop stop-color="#4089F8"/>
<stop offset="1" stop-color="#F2F2F2" stop-opacity="0"/>
</linearGradient>
<linearGradient id="paint5_linear_1092_4014" x1="173.5" y1="47" x2="77.5" y2="179.5" gradientUnits="userSpaceOnUse">
<stop stop-color="#4089F8"/>
<stop offset="1" stop-color="#F2F2F2" stop-opacity="0"/>
</linearGradient>
<linearGradient id="paint6_linear_1092_4014" x1="173.5" y1="47" x2="77.5" y2="179.5" gradientUnits="userSpaceOnUse">
<stop stop-color="#4089F8"/>
<stop offset="1" stop-color="#F2F2F2" stop-opacity="0"/>
</linearGradient>
<linearGradient id="paint7_linear_1092_4014" x1="173.5" y1="47" x2="77.5" y2="179.5" gradientUnits="userSpaceOnUse">
<stop stop-color="#4089F8"/>
<stop offset="1" stop-color="#F2F2F2" stop-opacity="0"/>
</linearGradient>
<linearGradient id="paint8_linear_1092_4014" x1="173.5" y1="47" x2="77.5" y2="179.5" gradientUnits="userSpaceOnUse">
<stop stop-color="#4089F8"/>
<stop offset="1" stop-color="#F2F2F2" stop-opacity="0"/>
</linearGradient>
<linearGradient id="paint9_linear_1092_4014" x1="173.5" y1="47" x2="77.5" y2="179.5" gradientUnits="userSpaceOnUse">
<stop stop-color="#4089F8"/>
<stop offset="1" stop-color="#F2F2F2" stop-opacity="0"/>
</linearGradient>
<linearGradient id="paint10_linear_1092_4014" x1="173.5" y1="47" x2="77.5" y2="179.5" gradientUnits="userSpaceOnUse">
<stop stop-color="#4089F8"/>
<stop offset="1" stop-color="#F2F2F2" stop-opacity="0"/>
</linearGradient>
<linearGradient id="paint11_linear_1092_4014" x1="173.5" y1="47" x2="77.5" y2="179.5" gradientUnits="userSpaceOnUse">
<stop stop-color="#4089F8"/>
<stop offset="1" stop-color="#F2F2F2" stop-opacity="0"/>
</linearGradient>
<linearGradient id="paint12_linear_1092_4014" x1="173.5" y1="47" x2="77.5" y2="179.5" gradientUnits="userSpaceOnUse">
<stop stop-color="#4089F8"/>
<stop offset="1" stop-color="#F2F2F2" stop-opacity="0"/>
</linearGradient>
<linearGradient id="paint13_linear_1092_4014" x1="173.5" y1="47" x2="77.5" y2="179.5" gradientUnits="userSpaceOnUse">
<stop stop-color="#4089F8"/>
<stop offset="1" stop-color="#F2F2F2" stop-opacity="0"/>
</linearGradient>
<linearGradient id="paint14_linear_1092_4014" x1="173.5" y1="47" x2="77.5" y2="179.5" gradientUnits="userSpaceOnUse">
<stop stop-color="#4089F8"/>
<stop offset="1" stop-color="#F2F2F2" stop-opacity="0"/>
</linearGradient>
<linearGradient id="paint15_linear_1092_4014" x1="173.5" y1="47" x2="77.5" y2="179.5" gradientUnits="userSpaceOnUse">
<stop stop-color="#4089F8"/>
<stop offset="1" stop-color="#F2F2F2" stop-opacity="0"/>
</linearGradient>
<linearGradient id="paint16_linear_1092_4014" x1="173.5" y1="47" x2="77.5" y2="179.5" gradientUnits="userSpaceOnUse">
<stop stop-color="#4089F8"/>
<stop offset="1" stop-color="#F2F2F2" stop-opacity="0"/>
</linearGradient>
<linearGradient id="paint17_linear_1092_4014" x1="173.5" y1="47" x2="77.5" y2="179.5" gradientUnits="userSpaceOnUse">
<stop stop-color="#4089F8"/>
<stop offset="1" stop-color="#F2F2F2" stop-opacity="0"/>
</linearGradient>
<linearGradient id="paint18_linear_1092_4014" x1="173.5" y1="47" x2="77.5" y2="179.5" gradientUnits="userSpaceOnUse">
<stop stop-color="#4089F8"/>
<stop offset="1" stop-color="#F2F2F2" stop-opacity="0"/>
</linearGradient>
<linearGradient id="paint19_linear_1092_4014" x1="173.5" y1="47" x2="77.5" y2="179.5" gradientUnits="userSpaceOnUse">
<stop stop-color="#4089F8"/>
<stop offset="1" stop-color="#F2F2F2" stop-opacity="0"/>
</linearGradient>
<linearGradient id="paint20_linear_1092_4014" x1="173.5" y1="47" x2="77.5" y2="179.5" gradientUnits="userSpaceOnUse">
<stop stop-color="#4089F8"/>
<stop offset="1" stop-color="#F2F2F2" stop-opacity="0"/>
</linearGradient>
<linearGradient id="paint21_linear_1092_4014" x1="173.5" y1="47" x2="77.5" y2="179.5" gradientUnits="userSpaceOnUse">
<stop stop-color="#4089F8"/>
<stop offset="1" stop-color="#F2F2F2" stop-opacity="0"/>
</linearGradient>
<linearGradient id="paint22_linear_1092_4014" x1="173.5" y1="47" x2="77.5" y2="179.5" gradientUnits="userSpaceOnUse">
<stop stop-color="#4089F8"/>
<stop offset="1" stop-color="#F2F2F2" stop-opacity="0"/>
</linearGradient>
<linearGradient id="paint23_linear_1092_4014" x1="173.5" y1="47" x2="77.5" y2="179.5" gradientUnits="userSpaceOnUse">
<stop stop-color="#4089F8"/>
<stop offset="1" stop-color="#F2F2F2" stop-opacity="0"/>
</linearGradient>
<linearGradient id="paint24_linear_1092_4014" x1="173.5" y1="47" x2="77.5" y2="179.5" gradientUnits="userSpaceOnUse">
<stop stop-color="#4089F8"/>
<stop offset="1" stop-color="#F2F2F2" stop-opacity="0"/>
</linearGradient>
<linearGradient id="paint25_linear_1092_4014" x1="173.5" y1="47" x2="77.5" y2="179.5" gradientUnits="userSpaceOnUse">
<stop stop-color="#4089F8"/>
<stop offset="1" stop-color="#F2F2F2" stop-opacity="0"/>
</linearGradient>
<linearGradient id="paint26_linear_1092_4014" x1="173.5" y1="47" x2="77.5" y2="179.5" gradientUnits="userSpaceOnUse">
<stop stop-color="#4089F8"/>
<stop offset="1" stop-color="#F2F2F2" stop-opacity="0"/>
</linearGradient>
<linearGradient id="paint27_linear_1092_4014" x1="173.5" y1="47" x2="77.5" y2="179.5" gradientUnits="userSpaceOnUse">
<stop stop-color="#4089F8"/>
<stop offset="1" stop-color="#F2F2F2" stop-opacity="0"/>
</linearGradient>
<linearGradient id="paint28_linear_1092_4014" x1="173.5" y1="47" x2="77.5" y2="179.5" gradientUnits="userSpaceOnUse">
<stop stop-color="#4089F8"/>
<stop offset="1" stop-color="#F2F2F2" stop-opacity="0"/>
</linearGradient>
<linearGradient id="paint29_linear_1092_4014" x1="173.5" y1="47" x2="77.5" y2="179.5" gradientUnits="userSpaceOnUse">
<stop stop-color="#4089F8"/>
<stop offset="1" stop-color="#F2F2F2" stop-opacity="0"/>
</linearGradient>
<linearGradient id="paint30_linear_1092_4014" x1="173.5" y1="47" x2="77.5" y2="179.5" gradientUnits="userSpaceOnUse">
<stop stop-color="#4089F8"/>
<stop offset="1" stop-color="#F2F2F2" stop-opacity="0"/>
</linearGradient>
<linearGradient id="paint31_linear_1092_4014" x1="173.5" y1="47" x2="77.5" y2="179.5" gradientUnits="userSpaceOnUse">
<stop stop-color="#4089F8"/>
<stop offset="1" stop-color="#F2F2F2" stop-opacity="0"/>
</linearGradient>
<linearGradient id="paint32_linear_1092_4014" x1="173.5" y1="47" x2="77.5" y2="179.5" gradientUnits="userSpaceOnUse">
<stop stop-color="#4089F8"/>
<stop offset="1" stop-color="#F2F2F2" stop-opacity="0"/>
</linearGradient>
<linearGradient id="paint33_linear_1092_4014" x1="173.5" y1="47" x2="77.5" y2="179.5" gradientUnits="userSpaceOnUse">
<stop stop-color="#4089F8"/>
<stop offset="1" stop-color="#F2F2F2" stop-opacity="0"/>
</linearGradient>
<linearGradient id="paint34_linear_1092_4014" x1="173.5" y1="47" x2="77.5" y2="179.5" gradientUnits="userSpaceOnUse">
<stop stop-color="#4089F8"/>
<stop offset="1" stop-color="#F2F2F2" stop-opacity="0"/>
</linearGradient>
<linearGradient id="paint35_linear_1092_4014" x1="173.5" y1="47" x2="77.5" y2="179.5" gradientUnits="userSpaceOnUse">
<stop stop-color="#4089F8"/>
<stop offset="1" stop-color="#F2F2F2" stop-opacity="0"/>
</linearGradient>
<linearGradient id="paint36_linear_1092_4014" x1="173.5" y1="47" x2="77.5" y2="179.5" gradientUnits="userSpaceOnUse">
<stop stop-color="#4089F8"/>
<stop offset="1" stop-color="#F2F2F2" stop-opacity="0"/>
</linearGradient>
<linearGradient id="paint37_linear_1092_4014" x1="173.5" y1="47" x2="77.5" y2="179.5" gradientUnits="userSpaceOnUse">
<stop stop-color="#4089F8"/>
<stop offset="1" stop-color="#F2F2F2" stop-opacity="0"/>
</linearGradient>
<linearGradient id="paint38_linear_1092_4014" x1="173.5" y1="47" x2="77.5" y2="179.5" gradientUnits="userSpaceOnUse">
<stop stop-color="#4089F8"/>
<stop offset="1" stop-color="#F2F2F2" stop-opacity="0"/>
</linearGradient>
<linearGradient id="paint39_linear_1092_4014" x1="173.5" y1="47" x2="77.5" y2="179.5" gradientUnits="userSpaceOnUse">
<stop stop-color="#4089F8"/>
<stop offset="1" stop-color="#F2F2F2" stop-opacity="0"/>
</linearGradient>
<linearGradient id="paint40_linear_1092_4014" x1="173.5" y1="47" x2="77.5" y2="179.5" gradientUnits="userSpaceOnUse">
<stop stop-color="#4089F8"/>
<stop offset="1" stop-color="#F2F2F2" stop-opacity="0"/>
</linearGradient>
<linearGradient id="paint41_linear_1092_4014" x1="173.5" y1="47" x2="77.5" y2="179.5" gradientUnits="userSpaceOnUse">
<stop stop-color="#4089F8"/>
<stop offset="1" stop-color="#F2F2F2" stop-opacity="0"/>
</linearGradient>
<linearGradient id="paint42_linear_1092_4014" x1="173.5" y1="47" x2="77.5" y2="179.5" gradientUnits="userSpaceOnUse">
<stop stop-color="#4089F8"/>
<stop offset="1" stop-color="#F2F2F2" stop-opacity="0"/>
</linearGradient>
<linearGradient id="paint43_linear_1092_4014" x1="173.5" y1="47" x2="77.5" y2="179.5" gradientUnits="userSpaceOnUse">
<stop stop-color="#4089F8"/>
<stop offset="1" stop-color="#F2F2F2" stop-opacity="0"/>
</linearGradient>
<linearGradient id="paint44_linear_1092_4014" x1="173.5" y1="47" x2="77.5" y2="179.5" gradientUnits="userSpaceOnUse">
<stop stop-color="#4089F8"/>
<stop offset="1" stop-color="#F2F2F2" stop-opacity="0"/>
</linearGradient>
<linearGradient id="paint45_linear_1092_4014" x1="173.5" y1="47" x2="77.5" y2="179.5" gradientUnits="userSpaceOnUse">
<stop stop-color="#4089F8"/>
<stop offset="1" stop-color="#F2F2F2" stop-opacity="0"/>
</linearGradient>
<linearGradient id="paint46_linear_1092_4014" x1="173.5" y1="47" x2="77.5" y2="179.5" gradientUnits="userSpaceOnUse">
<stop stop-color="#4089F8"/>
<stop offset="1" stop-color="#F2F2F2" stop-opacity="0"/>
</linearGradient>
<linearGradient id="paint47_linear_1092_4014" x1="173.5" y1="47" x2="77.5" y2="179.5" gradientUnits="userSpaceOnUse">
<stop stop-color="#4089F8"/>
<stop offset="1" stop-color="#F2F2F2" stop-opacity="0"/>
</linearGradient>
<linearGradient id="paint48_linear_1092_4014" x1="173.5" y1="47" x2="77.5" y2="179.5" gradientUnits="userSpaceOnUse">
<stop stop-color="#4089F8"/>
<stop offset="1" stop-color="#F2F2F2" stop-opacity="0"/>
</linearGradient>
<linearGradient id="paint49_linear_1092_4014" x1="173.5" y1="47" x2="77.5" y2="179.5" gradientUnits="userSpaceOnUse">
<stop stop-color="#4089F8"/>
<stop offset="1" stop-color="#F2F2F2" stop-opacity="0"/>
</linearGradient>
<linearGradient id="paint50_linear_1092_4014" x1="173.5" y1="47" x2="77.5" y2="179.5" gradientUnits="userSpaceOnUse">
<stop stop-color="#4089F8"/>
<stop offset="1" stop-color="#F2F2F2" stop-opacity="0"/>
</linearGradient>
<linearGradient id="paint51_linear_1092_4014" x1="173.5" y1="47" x2="77.5" y2="179.5" gradientUnits="userSpaceOnUse">
<stop stop-color="#4089F8"/>
<stop offset="1" stop-color="#F2F2F2" stop-opacity="0"/>
</linearGradient>
<linearGradient id="paint52_linear_1092_4014" x1="173.5" y1="47" x2="77.5" y2="179.5" gradientUnits="userSpaceOnUse">
<stop stop-color="#4089F8"/>
<stop offset="1" stop-color="#F2F2F2" stop-opacity="0"/>
</linearGradient>
<linearGradient id="paint53_linear_1092_4014" x1="173.5" y1="47" x2="77.5" y2="179.5" gradientUnits="userSpaceOnUse">
<stop stop-color="#4089F8"/>
<stop offset="1" stop-color="#F2F2F2" stop-opacity="0"/>
</linearGradient>
<linearGradient id="paint54_linear_1092_4014" x1="173.5" y1="47" x2="77.5" y2="179.5" gradientUnits="userSpaceOnUse">
<stop stop-color="#4089F8"/>
<stop offset="1" stop-color="#F2F2F2" stop-opacity="0"/>
</linearGradient>
<linearGradient id="paint55_linear_1092_4014" x1="173.5" y1="47" x2="77.5" y2="179.5" gradientUnits="userSpaceOnUse">
<stop stop-color="#4089F8"/>
<stop offset="1" stop-color="#F2F2F2" stop-opacity="0"/>
</linearGradient>
<linearGradient id="paint56_linear_1092_4014" x1="173.5" y1="47" x2="77.5" y2="179.5" gradientUnits="userSpaceOnUse">
<stop stop-color="#4089F8"/>
<stop offset="1" stop-color="#F2F2F2" stop-opacity="0"/>
</linearGradient>
<linearGradient id="paint57_linear_1092_4014" x1="173.5" y1="47" x2="77.5" y2="179.5" gradientUnits="userSpaceOnUse">
<stop stop-color="#4089F8"/>
<stop offset="1" stop-color="#F2F2F2" stop-opacity="0"/>
</linearGradient>
<linearGradient id="paint58_linear_1092_4014" x1="173.5" y1="47" x2="77.5" y2="179.5" gradientUnits="userSpaceOnUse">
<stop stop-color="#4089F8"/>
<stop offset="1" stop-color="#F2F2F2" stop-opacity="0"/>
</linearGradient>
<linearGradient id="paint59_linear_1092_4014" x1="173.5" y1="47" x2="77.5" y2="179.5" gradientUnits="userSpaceOnUse">
<stop stop-color="#4089F8"/>
<stop offset="1" stop-color="#F2F2F2" stop-opacity="0"/>
</linearGradient>
<linearGradient id="paint60_linear_1092_4014" x1="173.5" y1="47" x2="77.5" y2="179.5" gradientUnits="userSpaceOnUse">
<stop stop-color="#4089F8"/>
<stop offset="1" stop-color="#F2F2F2" stop-opacity="0"/>
</linearGradient>
<linearGradient id="paint61_linear_1092_4014" x1="173.5" y1="47" x2="77.5" y2="179.5" gradientUnits="userSpaceOnUse">
<stop stop-color="#4089F8"/>
<stop offset="1" stop-color="#F2F2F2" stop-opacity="0"/>
</linearGradient>
<linearGradient id="paint62_linear_1092_4014" x1="173.5" y1="47" x2="77.5" y2="179.5" gradientUnits="userSpaceOnUse">
<stop stop-color="#4089F8"/>
<stop offset="1" stop-color="#F2F2F2" stop-opacity="0"/>
</linearGradient>
<linearGradient id="paint63_linear_1092_4014" x1="173.5" y1="47" x2="77.5" y2="179.5" gradientUnits="userSpaceOnUse">
<stop stop-color="#4089F8"/>
<stop offset="1" stop-color="#F2F2F2" stop-opacity="0"/>
</linearGradient>
<linearGradient id="paint64_linear_1092_4014" x1="173.5" y1="47" x2="77.5" y2="179.5" gradientUnits="userSpaceOnUse">
<stop stop-color="#4089F8"/>
<stop offset="1" stop-color="#F2F2F2" stop-opacity="0"/>
</linearGradient>
<linearGradient id="paint65_linear_1092_4014" x1="173.5" y1="47" x2="77.5" y2="179.5" gradientUnits="userSpaceOnUse">
<stop stop-color="#4089F8"/>
<stop offset="1" stop-color="#F2F2F2" stop-opacity="0"/>
</linearGradient>
<linearGradient id="paint66_linear_1092_4014" x1="173.5" y1="47" x2="77.5" y2="179.5" gradientUnits="userSpaceOnUse">
<stop stop-color="#4089F8"/>
<stop offset="1" stop-color="#F2F2F2" stop-opacity="0"/>
</linearGradient>
<linearGradient id="paint67_linear_1092_4014" x1="173.5" y1="47" x2="77.5" y2="179.5" gradientUnits="userSpaceOnUse">
<stop stop-color="#4089F8"/>
<stop offset="1" stop-color="#F2F2F2" stop-opacity="0"/>
</linearGradient>
<linearGradient id="paint68_linear_1092_4014" x1="173.5" y1="47" x2="77.5" y2="179.5" gradientUnits="userSpaceOnUse">
<stop stop-color="#4089F8"/>
<stop offset="1" stop-color="#F2F2F2" stop-opacity="0"/>
</linearGradient>
<linearGradient id="paint69_linear_1092_4014" x1="173.5" y1="47" x2="77.5" y2="179.5" gradientUnits="userSpaceOnUse">
<stop stop-color="#4089F8"/>
<stop offset="1" stop-color="#F2F2F2" stop-opacity="0"/>
</linearGradient>
<linearGradient id="paint70_linear_1092_4014" x1="173.5" y1="47" x2="77.5" y2="179.5" gradientUnits="userSpaceOnUse">
<stop stop-color="#4089F8"/>
<stop offset="1" stop-color="#F2F2F2" stop-opacity="0"/>
</linearGradient>
<linearGradient id="paint71_linear_1092_4014" x1="173.5" y1="47" x2="77.5" y2="179.5" gradientUnits="userSpaceOnUse">
<stop stop-color="#4089F8"/>
<stop offset="1" stop-color="#F2F2F2" stop-opacity="0"/>
</linearGradient>
<linearGradient id="paint72_linear_1092_4014" x1="173.5" y1="47" x2="77.5" y2="179.5" gradientUnits="userSpaceOnUse">
<stop stop-color="#4089F8"/>
<stop offset="1" stop-color="#F2F2F2" stop-opacity="0"/>
</linearGradient>
<linearGradient id="paint73_linear_1092_4014" x1="173.5" y1="47" x2="77.5" y2="179.5" gradientUnits="userSpaceOnUse">
<stop stop-color="#4089F8"/>
<stop offset="1" stop-color="#F2F2F2" stop-opacity="0"/>
</linearGradient>
<linearGradient id="paint74_linear_1092_4014" x1="173.5" y1="47" x2="77.5" y2="179.5" gradientUnits="userSpaceOnUse">
<stop stop-color="#4089F8"/>
<stop offset="1" stop-color="#F2F2F2" stop-opacity="0"/>
</linearGradient>
<linearGradient id="paint75_linear_1092_4014" x1="173.5" y1="47" x2="77.5" y2="179.5" gradientUnits="userSpaceOnUse">
<stop stop-color="#4089F8"/>
<stop offset="1" stop-color="#F2F2F2" stop-opacity="0"/>
</linearGradient>
<linearGradient id="paint76_linear_1092_4014" x1="173.5" y1="47" x2="77.5" y2="179.5" gradientUnits="userSpaceOnUse">
<stop stop-color="#4089F8"/>
<stop offset="1" stop-color="#F2F2F2" stop-opacity="0"/>
</linearGradient>
<linearGradient id="paint77_linear_1092_4014" x1="173.5" y1="47" x2="77.5" y2="179.5" gradientUnits="userSpaceOnUse">
<stop stop-color="#4089F8"/>
<stop offset="1" stop-color="#F2F2F2" stop-opacity="0"/>
</linearGradient>
<linearGradient id="paint78_linear_1092_4014" x1="173.5" y1="47" x2="77.5" y2="179.5" gradientUnits="userSpaceOnUse">
<stop stop-color="#4089F8"/>
<stop offset="1" stop-color="#F2F2F2" stop-opacity="0"/>
</linearGradient>
<linearGradient id="paint79_linear_1092_4014" x1="173.5" y1="47" x2="77.5" y2="179.5" gradientUnits="userSpaceOnUse">
<stop stop-color="#4089F8"/>
<stop offset="1" stop-color="#F2F2F2" stop-opacity="0"/>
</linearGradient>
<linearGradient id="paint80_linear_1092_4014" x1="173.5" y1="47" x2="77.5" y2="179.5" gradientUnits="userSpaceOnUse">
<stop stop-color="#4089F8"/>
<stop offset="1" stop-color="#F2F2F2" stop-opacity="0"/>
</linearGradient>
<linearGradient id="paint81_linear_1092_4014" x1="173.5" y1="47" x2="77.5" y2="179.5" gradientUnits="userSpaceOnUse">
<stop stop-color="#4089F8"/>
<stop offset="1" stop-color="#F2F2F2" stop-opacity="0"/>
</linearGradient>
<linearGradient id="paint82_linear_1092_4014" x1="173.5" y1="47" x2="77.5" y2="179.5" gradientUnits="userSpaceOnUse">
<stop stop-color="#4089F8"/>
<stop offset="1" stop-color="#F2F2F2" stop-opacity="0"/>
</linearGradient>
<linearGradient id="paint83_linear_1092_4014" x1="173.5" y1="47" x2="77.5" y2="179.5" gradientUnits="userSpaceOnUse">
<stop stop-color="#4089F8"/>
<stop offset="1" stop-color="#F2F2F2" stop-opacity="0"/>
</linearGradient>
<linearGradient id="paint84_linear_1092_4014" x1="173.5" y1="47" x2="77.5" y2="179.5" gradientUnits="userSpaceOnUse">
<stop stop-color="#4089F8"/>
<stop offset="1" stop-color="#F2F2F2" stop-opacity="0"/>
</linearGradient>
<linearGradient id="paint85_linear_1092_4014" x1="173.5" y1="47" x2="77.5" y2="179.5" gradientUnits="userSpaceOnUse">
<stop stop-color="#4089F8"/>
<stop offset="1" stop-color="#F2F2F2" stop-opacity="0"/>
</linearGradient>
<linearGradient id="paint86_linear_1092_4014" x1="173.5" y1="47" x2="77.5" y2="179.5" gradientUnits="userSpaceOnUse">
<stop stop-color="#4089F8"/>
<stop offset="1" stop-color="#F2F2F2" stop-opacity="0"/>
</linearGradient>
<linearGradient id="paint87_linear_1092_4014" x1="173.5" y1="47" x2="77.5" y2="179.5" gradientUnits="userSpaceOnUse">
<stop stop-color="#4089F8"/>
<stop offset="1" stop-color="#F2F2F2" stop-opacity="0"/>
</linearGradient>
<linearGradient id="paint88_linear_1092_4014" x1="173.5" y1="47" x2="77.5" y2="179.5" gradientUnits="userSpaceOnUse">
<stop stop-color="#4089F8"/>
<stop offset="1" stop-color="#F2F2F2" stop-opacity="0"/>
</linearGradient>
<linearGradient id="paint89_linear_1092_4014" x1="173.5" y1="47" x2="77.5" y2="179.5" gradientUnits="userSpaceOnUse">
<stop stop-color="#4089F8"/>
<stop offset="1" stop-color="#F2F2F2" stop-opacity="0"/>
</linearGradient>
<linearGradient id="paint90_linear_1092_4014" x1="173.5" y1="47" x2="77.5" y2="179.5" gradientUnits="userSpaceOnUse">
<stop stop-color="#4089F8"/>
<stop offset="1" stop-color="#F2F2F2" stop-opacity="0"/>
</linearGradient>
<linearGradient id="paint91_linear_1092_4014" x1="173.5" y1="47" x2="77.5" y2="179.5" gradientUnits="userSpaceOnUse">
<stop stop-color="#4089F8"/>
<stop offset="1" stop-color="#F2F2F2" stop-opacity="0"/>
</linearGradient>
<linearGradient id="paint92_linear_1092_4014" x1="173.5" y1="47" x2="77.5" y2="179.5" gradientUnits="userSpaceOnUse">
<stop stop-color="#4089F8"/>
<stop offset="1" stop-color="#F2F2F2" stop-opacity="0"/>
</linearGradient>
<linearGradient id="paint93_linear_1092_4014" x1="173.5" y1="47" x2="77.5" y2="179.5" gradientUnits="userSpaceOnUse">
<stop stop-color="#4089F8"/>
<stop offset="1" stop-color="#F2F2F2" stop-opacity="0"/>
</linearGradient>
<linearGradient id="paint94_linear_1092_4014" x1="173.5" y1="47" x2="77.5" y2="179.5" gradientUnits="userSpaceOnUse">
<stop stop-color="#4089F8"/>
<stop offset="1" stop-color="#F2F2F2" stop-opacity="0"/>
</linearGradient>
<linearGradient id="paint95_linear_1092_4014" x1="173.5" y1="47" x2="77.5" y2="179.5" gradientUnits="userSpaceOnUse">
<stop stop-color="#4089F8"/>
<stop offset="1" stop-color="#F2F2F2" stop-opacity="0"/>
</linearGradient>
<linearGradient id="paint96_linear_1092_4014" x1="173.5" y1="47" x2="77.5" y2="179.5" gradientUnits="userSpaceOnUse">
<stop stop-color="#4089F8"/>
<stop offset="1" stop-color="#F2F2F2" stop-opacity="0"/>
</linearGradient>
<linearGradient id="paint97_linear_1092_4014" x1="173.5" y1="47" x2="77.5" y2="179.5" gradientUnits="userSpaceOnUse">
<stop stop-color="#4089F8"/>
<stop offset="1" stop-color="#F2F2F2" stop-opacity="0"/>
</linearGradient>
<linearGradient id="paint98_linear_1092_4014" x1="173.5" y1="47" x2="77.5" y2="179.5" gradientUnits="userSpaceOnUse">
<stop stop-color="#4089F8"/>
<stop offset="1" stop-color="#F2F2F2" stop-opacity="0"/>
</linearGradient>
<linearGradient id="paint99_linear_1092_4014" x1="173.5" y1="47" x2="77.5" y2="179.5" gradientUnits="userSpaceOnUse">
<stop stop-color="#4089F8"/>
<stop offset="1" stop-color="#F2F2F2" stop-opacity="0"/>
</linearGradient>
<linearGradient id="paint100_linear_1092_4014" x1="173.5" y1="47" x2="77.5" y2="179.5" gradientUnits="userSpaceOnUse">
<stop stop-color="#4089F8"/>
<stop offset="1" stop-color="#F2F2F2" stop-opacity="0"/>
</linearGradient>
<linearGradient id="paint101_linear_1092_4014" x1="173.5" y1="47" x2="77.5" y2="179.5" gradientUnits="userSpaceOnUse">
<stop stop-color="#4089F8"/>
<stop offset="1" stop-color="#F2F2F2" stop-opacity="0"/>
</linearGradient>
<linearGradient id="paint102_linear_1092_4014" x1="173.5" y1="47" x2="77.5" y2="179.5" gradientUnits="userSpaceOnUse">
<stop stop-color="#4089F8"/>
<stop offset="1" stop-color="#F2F2F2" stop-opacity="0"/>
</linearGradient>
<linearGradient id="paint103_linear_1092_4014" x1="173.5" y1="47" x2="77.5" y2="179.5" gradientUnits="userSpaceOnUse">
<stop stop-color="#4089F8"/>
<stop offset="1" stop-color="#F2F2F2" stop-opacity="0"/>
</linearGradient>
<linearGradient id="paint104_linear_1092_4014" x1="173.5" y1="47" x2="77.5" y2="179.5" gradientUnits="userSpaceOnUse">
<stop stop-color="#4089F8"/>
<stop offset="1" stop-color="#F2F2F2" stop-opacity="0"/>
</linearGradient>
<linearGradient id="paint105_linear_1092_4014" x1="173.5" y1="47" x2="77.5" y2="179.5" gradientUnits="userSpaceOnUse">
<stop stop-color="#4089F8"/>
<stop offset="1" stop-color="#F2F2F2" stop-opacity="0"/>
</linearGradient>
<linearGradient id="paint106_linear_1092_4014" x1="173.5" y1="47" x2="77.5" y2="179.5" gradientUnits="userSpaceOnUse">
<stop stop-color="#4089F8"/>
<stop offset="1" stop-color="#F2F2F2" stop-opacity="0"/>
</linearGradient>
<linearGradient id="paint107_linear_1092_4014" x1="173.5" y1="47" x2="77.5" y2="179.5" gradientUnits="userSpaceOnUse">
<stop stop-color="#4089F8"/>
<stop offset="1" stop-color="#F2F2F2" stop-opacity="0"/>
</linearGradient>
<linearGradient id="paint108_linear_1092_4014" x1="173.5" y1="47" x2="77.5" y2="179.5" gradientUnits="userSpaceOnUse">
<stop stop-color="#4089F8"/>
<stop offset="1" stop-color="#F2F2F2" stop-opacity="0"/>
</linearGradient>
<linearGradient id="paint109_linear_1092_4014" x1="173.5" y1="47" x2="77.5" y2="179.5" gradientUnits="userSpaceOnUse">
<stop stop-color="#4089F8"/>
<stop offset="1" stop-color="#F2F2F2" stop-opacity="0"/>
</linearGradient>
<linearGradient id="paint110_linear_1092_4014" x1="173.5" y1="47" x2="77.5" y2="179.5" gradientUnits="userSpaceOnUse">
<stop stop-color="#4089F8"/>
<stop offset="1" stop-color="#F2F2F2" stop-opacity="0"/>
</linearGradient>
<linearGradient id="paint111_linear_1092_4014" x1="173.5" y1="47" x2="77.5" y2="179.5" gradientUnits="userSpaceOnUse">
<stop stop-color="#4089F8"/>
<stop offset="1" stop-color="#F2F2F2" stop-opacity="0"/>
</linearGradient>
<linearGradient id="paint112_linear_1092_4014" x1="173.5" y1="47" x2="77.5" y2="179.5" gradientUnits="userSpaceOnUse">
<stop stop-color="#4089F8"/>
<stop offset="1" stop-color="#F2F2F2" stop-opacity="0"/>
</linearGradient>
<linearGradient id="paint113_linear_1092_4014" x1="173.5" y1="47" x2="77.5" y2="179.5" gradientUnits="userSpaceOnUse">
<stop stop-color="#4089F8"/>
<stop offset="1" stop-color="#F2F2F2" stop-opacity="0"/>
</linearGradient>
<linearGradient id="paint114_linear_1092_4014" x1="173.5" y1="47" x2="77.5" y2="179.5" gradientUnits="userSpaceOnUse">
<stop stop-color="#4089F8"/>
<stop offset="1" stop-color="#F2F2F2" stop-opacity="0"/>
</linearGradient>
<linearGradient id="paint115_linear_1092_4014" x1="173.5" y1="47" x2="77.5" y2="179.5" gradientUnits="userSpaceOnUse">
<stop stop-color="#4089F8"/>
<stop offset="1" stop-color="#F2F2F2" stop-opacity="0"/>
</linearGradient>
<linearGradient id="paint116_linear_1092_4014" x1="173.5" y1="47" x2="77.5" y2="179.5" gradientUnits="userSpaceOnUse">
<stop stop-color="#4089F8"/>
<stop offset="1" stop-color="#F2F2F2" stop-opacity="0"/>
</linearGradient>
<linearGradient id="paint117_linear_1092_4014" x1="173.5" y1="47" x2="77.5" y2="179.5" gradientUnits="userSpaceOnUse">
<stop stop-color="#4089F8"/>
<stop offset="1" stop-color="#F2F2F2" stop-opacity="0"/>
</linearGradient>
<linearGradient id="paint118_linear_1092_4014" x1="173.5" y1="47" x2="77.5" y2="179.5" gradientUnits="userSpaceOnUse">
<stop stop-color="#4089F8"/>
<stop offset="1" stop-color="#F2F2F2" stop-opacity="0"/>
</linearGradient>
<linearGradient id="paint119_linear_1092_4014" x1="173.5" y1="47" x2="77.5" y2="179.5" gradientUnits="userSpaceOnUse">
<stop stop-color="#4089F8"/>
<stop offset="1" stop-color="#F2F2F2" stop-opacity="0"/>
</linearGradient>
<linearGradient id="paint120_linear_1092_4014" x1="173.5" y1="47" x2="77.5" y2="179.5" gradientUnits="userSpaceOnUse">
<stop stop-color="#4089F8"/>
<stop offset="1" stop-color="#F2F2F2" stop-opacity="0"/>
</linearGradient>
<linearGradient id="paint121_linear_1092_4014" x1="173.5" y1="47" x2="77.5" y2="179.5" gradientUnits="userSpaceOnUse">
<stop stop-color="#4089F8"/>
<stop offset="1" stop-color="#F2F2F2" stop-opacity="0"/>
</linearGradient>
<linearGradient id="paint122_linear_1092_4014" x1="173.5" y1="47" x2="77.5" y2="179.5" gradientUnits="userSpaceOnUse">
<stop stop-color="#4089F8"/>
<stop offset="1" stop-color="#F2F2F2" stop-opacity="0"/>
</linearGradient>
<linearGradient id="paint123_linear_1092_4014" x1="173.5" y1="47" x2="77.5" y2="179.5" gradientUnits="userSpaceOnUse">
<stop stop-color="#4089F8"/>
<stop offset="1" stop-color="#F2F2F2" stop-opacity="0"/>
</linearGradient>
<linearGradient id="paint124_linear_1092_4014" x1="173.5" y1="47" x2="77.5" y2="179.5" gradientUnits="userSpaceOnUse">
<stop stop-color="#4089F8"/>
<stop offset="1" stop-color="#F2F2F2" stop-opacity="0"/>
</linearGradient>
<linearGradient id="paint125_linear_1092_4014" x1="173.5" y1="47" x2="77.5" y2="179.5" gradientUnits="userSpaceOnUse">
<stop stop-color="#4089F8"/>
<stop offset="1" stop-color="#F2F2F2" stop-opacity="0"/>
</linearGradient>
<linearGradient id="paint126_linear_1092_4014" x1="173.5" y1="47" x2="77.5" y2="179.5" gradientUnits="userSpaceOnUse">
<stop stop-color="#4089F8"/>
<stop offset="1" stop-color="#F2F2F2" stop-opacity="0"/>
</linearGradient>
<linearGradient id="paint127_linear_1092_4014" x1="173.5" y1="47" x2="77.5" y2="179.5" gradientUnits="userSpaceOnUse">
<stop stop-color="#4089F8"/>
<stop offset="1" stop-color="#F2F2F2" stop-opacity="0"/>
</linearGradient>
<linearGradient id="paint128_linear_1092_4014" x1="173.5" y1="47" x2="77.5" y2="179.5" gradientUnits="userSpaceOnUse">
<stop stop-color="#4089F8"/>
<stop offset="1" stop-color="#F2F2F2" stop-opacity="0"/>
</linearGradient>
<linearGradient id="paint129_linear_1092_4014" x1="173.5" y1="47" x2="77.5" y2="179.5" gradientUnits="userSpaceOnUse">
<stop stop-color="#4089F8"/>
<stop offset="1" stop-color="#F2F2F2" stop-opacity="0"/>
</linearGradient>
<linearGradient id="paint130_linear_1092_4014" x1="173.5" y1="47" x2="77.5" y2="179.5" gradientUnits="userSpaceOnUse">
<stop stop-color="#4089F8"/>
<stop offset="1" stop-color="#F2F2F2" stop-opacity="0"/>
</linearGradient>
<linearGradient id="paint131_linear_1092_4014" x1="173.5" y1="47" x2="77.5" y2="179.5" gradientUnits="userSpaceOnUse">
<stop stop-color="#4089F8"/>
<stop offset="1" stop-color="#F2F2F2" stop-opacity="0"/>
</linearGradient>
</defs>
</svg>
