<svg width="24" height="24" viewBox="0 0 24 24" fill="none" xmlns="http://www.w3.org/2000/svg">
<path fill-rule="evenodd" clip-rule="evenodd" d="M19.2414 6.75471C19.5106 6.87613 19.6977 7.14501 19.6977 7.45719V17.345C19.5553 17.3028 19.4035 17.2575 19.2414 17.2088V6.75471ZM17.9939 4.80305C18.0191 4.80106 18.0446 4.80005 18.0704 4.80005H18.9193C20.4 4.80005 21.6004 5.98969 21.6004 7.45719V18.6C21.6004 19.2213 21.0047 19.6728 20.3997 19.51C19.9946 19.4009 19.3895 19.224 18.5527 18.9725L18.4643 18.9459C18.3023 18.8972 17.9606 18.7938 17.6568 18.7018C15.8148 18.7966 14.1879 19.3104 12.76 20.2442C12.4408 20.4529 12.0266 20.4519 11.7084 20.2418C10.1896 19.2386 8.42414 18.7206 6.39141 18.6875C6.07649 18.7828 5.70699 18.8946 5.53645 18.9459L5.44804 18.9725C4.61132 19.224 4.00615 19.4009 3.60105 19.51C2.9961 19.6728 2.40039 19.2213 2.40039 18.6L2.40039 7.45719C2.40039 5.98969 3.60075 4.80005 5.08147 4.80005H5.94676C5.98659 4.80005 6.02585 4.80248 6.0644 4.80719C6.10293 4.80248 6.14216 4.80006 6.18197 4.80006C8.45628 4.80006 10.481 5.31481 12.239 6.34472C13.9362 5.36042 15.8595 4.8464 17.9939 4.80305ZM5.23062 6.68576L5.23062 17.0669C5.14593 17.0925 5.07283 17.1146 5.01917 17.1307L4.93763 17.1553C4.70723 17.2246 4.49648 17.2876 4.30309 17.345L4.30309 7.45719C4.30309 7.03114 4.65159 6.68576 5.08147 6.68576H5.23062ZM7.1336 16.4951L7.1336 6.72165C8.68575 6.84112 10.0661 7.2593 11.285 7.97623L11.285 15.9498C9.6541 15.9827 8.48289 16.1371 7.22309 16.4704C7.19893 16.4768 7.16934 16.4849 7.1336 16.4951ZM11.2512 17.8365C11.2625 17.8416 11.2737 17.8468 11.285 17.8519V17.8358C11.2737 17.836 11.2624 17.8363 11.2512 17.8365ZM13.1893 17.8502V17.8564C13.1935 17.8545 13.1976 17.8526 13.2017 17.8507C13.1976 17.8506 13.1935 17.8504 13.1893 17.8502ZM17.3407 16.6347V6.72238C15.803 6.84296 14.4226 7.26187 13.1893 7.97966L13.1893 15.9633C14.5805 16.0152 15.6432 16.1702 16.7777 16.4704C16.8709 16.4951 17.0453 16.5461 17.3407 16.6347ZM20.5643 18.6001C20.5643 18.5437 20.6185 18.5026 20.6735 18.5174C20.6387 18.5081 20.6024 18.4982 20.5643 18.4877V18.6001ZM3.43819 18.6001C3.43819 18.5481 3.39217 18.5091 3.3419 18.5149L3.33335 18.5162L3.43819 18.4877V18.6001Z" fill="white"/>
</svg>
