<svg width="24" height="24" viewBox="0 0 24 24" fill="none" xmlns="http://www.w3.org/2000/svg">
<path d="M19.9966 6.46676C19.9973 5.97906 19.8532 5.50214 19.5825 5.09641C19.3119 4.69069 18.9269 4.37443 18.4764 4.1877C18.0259 4.00098 17.53 3.95219 17.0517 4.04752C16.5734 4.14285 16.1342 4.37801 15.7897 4.7232L13.5422 6.97064L8.35154 5.24307C8.21334 5.19963 8.06594 5.19455 7.92508 5.22836C7.78421 5.26216 7.65517 5.33359 7.55174 5.43502L5.64822 7.32255C5.55803 7.41379 5.49111 7.52539 5.45311 7.64792C5.4151 7.77046 5.40714 7.90034 5.42988 8.0266C5.45263 8.15287 5.50541 8.2718 5.58378 8.37338C5.66215 8.47496 5.7638 8.55619 5.88016 8.61023L10.0231 10.4898L7.94364 12.5692L6.57599 11.8814C6.42832 11.8015 6.25925 11.7701 6.09273 11.7916C5.92622 11.8131 5.7707 11.8865 5.64822 12.0014L4.23258 13.449C4.08361 13.5989 4 13.8016 4 14.0129C4 14.2242 4.08361 14.4269 4.23258 14.5767L9.42327 19.7674C9.57312 19.9164 9.77584 20 9.98713 20C10.1984 20 10.4011 19.9164 10.551 19.7674L11.9986 18.3518C12.1187 18.233 12.198 18.0792 12.2253 17.9126C12.2526 17.7459 12.2265 17.5749 12.1506 17.424L11.4628 16.0564L13.5422 13.9769L15.4218 18.1198C15.4758 18.2362 15.557 18.3379 15.6586 18.4162C15.7602 18.4946 15.8791 18.5474 16.0054 18.5701C16.1317 18.5929 16.2615 18.5849 16.3841 18.5469C16.5066 18.5089 16.6182 18.442 16.7094 18.3518L18.597 16.4643C18.6984 16.3608 18.7698 16.2318 18.8036 16.0909C18.8374 15.9501 18.8324 15.8027 18.7889 15.6645L17.0614 10.4738L19.2768 8.21033C19.5065 7.98204 19.6885 7.71029 19.8121 7.41094C19.9356 7.11158 19.9984 6.79062 19.9966 6.46676ZM18.1411 7.08261L15.5497 9.67396C15.4483 9.77739 15.3769 9.90643 15.3431 10.0473C15.3093 10.1882 15.3143 10.3356 15.3578 10.4738L17.0854 15.6565L16.3655 16.3763L14.486 12.2413C14.4327 12.1239 14.3517 12.0211 14.25 11.9417C14.1484 11.8623 14.029 11.8087 13.9021 11.7854C13.7742 11.7621 13.6426 11.7703 13.5185 11.8093C13.3945 11.8483 13.2818 11.917 13.1903 12.0094L9.89515 15.3365C9.77685 15.4547 9.69857 15.607 9.67131 15.772C9.64405 15.937 9.66919 16.1064 9.74319 16.2563L10.399 17.6L9.95114 18.0479L5.92815 14.0169L6.40003 13.601L7.76769 14.2888C7.91764 14.3628 8.08702 14.3879 8.252 14.3607C8.41699 14.3334 8.56928 14.2551 8.68746 14.1368L11.9986 10.8097C12.0905 10.7185 12.1589 10.6064 12.1979 10.4829C12.2369 10.3595 12.2454 10.2284 12.2226 10.101C12.1998 9.97355 12.1464 9.85356 12.067 9.75132C11.9876 9.64907 11.8845 9.56764 11.7667 9.514L7.59973 7.63447L8.31955 6.91465L13.5022 8.64222C13.6404 8.68565 13.7878 8.69074 13.9287 8.65693C14.0696 8.62312 14.1986 8.55169 14.302 8.45027L16.8934 5.85892C16.9731 5.77742 17.0683 5.71266 17.1733 5.66845C17.2784 5.62425 17.3913 5.60147 17.5052 5.60147C17.6192 5.60147 17.7321 5.62425 17.8371 5.66845C17.9422 5.71266 18.0374 5.77742 18.1171 5.85892C18.2005 5.93621 18.2665 6.03041 18.3106 6.13523C18.3548 6.24005 18.376 6.35307 18.373 6.46676C18.3774 6.57969 18.3591 6.69235 18.3192 6.79811C18.2794 6.90387 18.2188 7.0006 18.1411 7.08261Z" fill="#3B71FE"/>
</svg>
