<svg width="25" height="24" viewBox="0 0 25 24" fill="none" xmlns="http://www.w3.org/2000/svg">
<path d="M3.5 11C3.30222 11 3.10888 11.0586 2.94443 11.1685C2.77998 11.2784 2.65181 11.4346 2.57612 11.6173C2.50043 11.8 2.48063 12.0011 2.51922 12.1951C2.5578 12.3891 2.65304 12.5673 2.79289 12.7071C2.93275 12.847 3.11093 12.9422 3.30491 12.9808C3.49889 13.0194 3.69996 12.9996 3.88268 12.9239C4.06541 12.8482 4.22159 12.72 4.33147 12.5556C4.44135 12.3911 4.5 12.1978 4.5 12C4.5 11.7348 4.39464 11.4804 4.20711 11.2929C4.01957 11.1054 3.76522 11 3.5 11ZM5.43 17.66C5.28955 17.7996 5.19372 17.9778 5.15465 18.1719C5.11559 18.3661 5.13504 18.5674 5.21055 18.7505C5.28607 18.9336 5.41423 19.0901 5.57881 19.2003C5.74339 19.3104 5.93697 19.3692 6.135 19.3692C6.33304 19.3692 6.52661 19.3104 6.69119 19.2003C6.85577 19.0901 6.98394 18.9336 7.05945 18.7505C7.13496 18.5674 7.15442 18.3661 7.11535 18.1719C7.07628 17.9778 6.98045 17.7996 6.84 17.66C6.65264 17.4737 6.39919 17.3692 6.135 17.3692C5.87082 17.3692 5.61736 17.4737 5.43 17.66ZM6.84 6.34C6.98045 6.20039 7.07628 6.02221 7.11535 5.82807C7.15442 5.63393 7.13496 5.43256 7.05945 5.24948C6.98394 5.06641 6.85577 4.90988 6.69119 4.79974C6.52661 4.68959 6.33304 4.63079 6.135 4.63079C5.93697 4.63079 5.74339 4.68959 5.57881 4.79974C5.41423 4.90988 5.28607 5.06641 5.21055 5.24948C5.13504 5.43256 5.11559 5.63393 5.15465 5.82807C5.19372 6.02221 5.28955 6.20039 5.43 6.34C5.61736 6.52625 5.87082 6.63079 6.135 6.63079C6.39919 6.63079 6.65264 6.52625 6.84 6.34ZM12.5 4C12.6978 4 12.8911 3.94135 13.0556 3.83147C13.22 3.72159 13.3482 3.56541 13.4239 3.38268C13.4996 3.19996 13.5194 2.99889 13.4808 2.80491C13.4422 2.61093 13.347 2.43275 13.2071 2.29289C13.0673 2.15304 12.8891 2.0578 12.6951 2.01922C12.5011 1.98063 12.3 2.00043 12.1173 2.07612C11.9346 2.15181 11.7784 2.27998 11.6685 2.44443C11.5587 2.60888 11.5 2.80222 11.5 3C11.5 3.26522 11.6054 3.51957 11.7929 3.70711C11.9804 3.89464 12.2348 4 12.5 4ZM18.16 17.66C18.0196 17.7996 17.9237 17.9778 17.8847 18.1719C17.8456 18.3661 17.865 18.5674 17.9406 18.7505C18.0161 18.9336 18.1442 19.0901 18.3088 19.2003C18.4734 19.3104 18.667 19.3692 18.865 19.3692C19.063 19.3692 19.2566 19.3104 19.4212 19.2003C19.5858 19.0901 19.7139 18.9336 19.7894 18.7505C19.865 18.5674 19.8844 18.3661 19.8453 18.1719C19.8063 17.9778 19.7104 17.7996 19.57 17.66C19.3826 17.4737 19.1292 17.3692 18.865 17.3692C18.6008 17.3692 18.3474 17.4737 18.16 17.66ZM21.5 11C21.3022 11 21.1089 11.0586 20.9444 11.1685C20.78 11.2784 20.6518 11.4346 20.5761 11.6173C20.5004 11.8 20.4806 12.0011 20.5192 12.1951C20.5578 12.3891 20.653 12.5673 20.7929 12.7071C20.9327 12.847 21.1109 12.9422 21.3049 12.9808C21.4989 13.0194 21.7 12.9996 21.8827 12.9239C22.0654 12.8482 22.2216 12.72 22.3315 12.5556C22.4414 12.3911 22.5 12.1978 22.5 12C22.5 11.7348 22.3946 11.4804 22.2071 11.2929C22.0196 11.1054 21.7652 11 21.5 11ZM18.16 4.93C18.0196 5.06961 17.9237 5.24779 17.8847 5.44193C17.8456 5.63607 17.865 5.83744 17.9406 6.02052C18.0161 6.20359 18.1442 6.36012 18.3088 6.47026C18.4734 6.58041 18.667 6.63921 18.865 6.63921C19.063 6.63921 19.2566 6.58041 19.4212 6.47026C19.5858 6.36012 19.7139 6.20359 19.7894 6.02052C19.865 5.83744 19.8844 5.63607 19.8453 5.44193C19.8063 5.24779 19.7104 5.06961 19.57 4.93C19.3826 4.74375 19.1292 4.63921 18.865 4.63921C18.6008 4.63921 18.3474 4.74375 18.16 4.93ZM12.5 20C12.3022 20 12.1089 20.0586 11.9444 20.1685C11.78 20.2784 11.6518 20.4346 11.5761 20.6173C11.5004 20.8 11.4806 21.0011 11.5192 21.1951C11.5578 21.3891 11.653 21.5673 11.7929 21.7071C11.9327 21.847 12.1109 21.9422 12.3049 21.9808C12.4989 22.0194 12.7 21.9996 12.8827 21.9239C13.0654 21.8482 13.2216 21.72 13.3315 21.5556C13.4414 21.3911 13.5 21.1978 13.5 21C13.5 20.7348 13.3946 20.4804 13.2071 20.2929C13.0196 20.1054 12.7652 20 12.5 20ZM12.5 6C11.3133 6 10.1533 6.35189 9.16658 7.01118C8.17988 7.67047 7.41085 8.60754 6.95672 9.7039C6.5026 10.8003 6.38378 12.0067 6.61529 13.1705C6.8468 14.3344 7.41824 15.4035 8.25736 16.2426C9.09648 17.0818 10.1656 17.6532 11.3295 17.8847C12.4933 18.1162 13.6997 17.9974 14.7961 17.5433C15.8925 17.0892 16.8295 16.3201 17.4888 15.3334C18.1481 14.3467 18.5 13.1867 18.5 12C18.5 10.4087 17.8679 8.88258 16.7426 7.75736C15.6174 6.63214 14.0913 6 12.5 6ZM12.5 16C11.7089 16 10.9355 15.7654 10.2777 15.3259C9.61992 14.8864 9.10723 14.2616 8.80448 13.5307C8.50173 12.7998 8.42252 11.9956 8.57686 11.2196C8.7312 10.4437 9.11216 9.73098 9.67157 9.17157C10.231 8.61216 10.9437 8.2312 11.7196 8.07686C12.4956 7.92252 13.2998 8.00173 14.0307 8.30448C14.7616 8.60723 15.3864 9.11992 15.8259 9.77772C16.2654 10.4355 16.5 11.2089 16.5 12C16.5 13.0609 16.0786 14.0783 15.3284 14.8284C14.5783 15.5786 13.5609 16 12.5 16Z" fill="white"/>
</svg>
