<svg width="280" height="300" viewBox="0 0 280 300" fill="none" xmlns="http://www.w3.org/2000/svg">
<path d="M75.0983 29.27C77.3393 24.1478 72.1778 17.0483 71.4589 13.3639C46.0095 6.67805 55.1486 27.3829 60.81 36.8185L68.089 37.6274L68.4385 33.7303C68.4385 32.6401 73.5886 32.7208 75.0983 29.27Z" fill="#F1B09B"/>
<path fill-rule="evenodd" clip-rule="evenodd" d="M71.4341 13.2401C71.5024 13.2268 71.5685 13.2714 71.5818 13.3396C71.753 14.2167 72.1821 15.2975 72.7097 16.5151C72.8565 16.854 73.0109 17.2033 73.1689 17.561C73.5765 18.4832 74.0089 19.4615 74.4011 20.463C74.4265 20.5278 74.3946 20.6008 74.3298 20.6262C74.2651 20.6515 74.192 20.6196 74.1667 20.5549C73.7765 19.5587 73.3476 18.5882 72.9408 17.6677C72.7821 17.3088 72.6269 16.9575 72.4786 16.6152C71.9521 15.4 71.5118 14.2955 71.3347 13.3878C71.3213 13.3196 71.3659 13.2535 71.4341 13.2401ZM75.3567 23.8905C75.4248 23.876 75.4917 23.9193 75.5062 23.9873C75.9011 25.8367 75.9331 27.6745 75.2131 29.3203C74.6816 30.535 73.7139 31.3197 72.684 31.8695C71.8414 32.3192 70.9469 32.6166 70.2079 32.8622C70.0461 32.916 69.8918 32.9673 69.7471 33.0171C69.6813 33.0398 69.6096 33.0049 69.587 32.9391C69.5643 32.8734 69.5992 32.8017 69.665 32.7791C69.8141 32.7277 69.9715 32.6753 70.1354 32.6208C70.874 32.3751 71.7436 32.0859 72.5654 31.6473C73.5668 31.1128 74.4817 30.3637 74.9824 29.2194C75.673 27.6407 75.649 25.8623 75.2599 24.0399C75.2454 23.9719 75.2887 23.905 75.3567 23.8905Z" fill="#EC8E65"/>
<path d="M68.44 33.7305L68.0904 37.6275L65.72 37.3641C65.4972 37.367 65.2556 37.338 64.9902 37.283L65.72 37.3641C66.9018 37.3487 67.5569 36.4353 68.44 33.7305Z" fill="#EC8E65"/>
<path d="M78.7575 72.0766C78.7575 91.8259 71.7109 107.836 63.0184 107.836C54.3259 107.836 47.2793 91.8259 47.2793 72.0766C47.2793 52.3273 54.3259 36.3174 63.0184 36.3174C86.69 36.3174 78.7575 52.3273 78.7575 72.0766Z" fill="#F6BC33"/>
<path d="M78.7573 77.4907L73.9727 65.7808L77.876 83.9122L78.7573 77.4907Z" fill="#D89B0E"/>
<path d="M113.033 23.7683L112.349 24.7931L123.596 26.3221L120.59 20.9097L119.749 24.8564L113.288 23.6606C113.189 23.6423 113.089 23.6846 113.033 23.7683Z" fill="#F0E898"/>
<path d="M111.317 24.5623L110.102 26.8672L123.073 26.0514L111.575 24.4304C111.47 24.4156 111.366 24.4683 111.317 24.5623Z" fill="#D5482A"/>
<path d="M102.86 43.9427L110.235 26.6029L123.054 25.9697L114.9 45.0778L104.147 45.777C103.168 45.8389 102.341 44.8833 102.86 43.9427Z" fill="#EC6C47"/>
<path d="M114.835 45.169L104.083 45.8683C103.103 45.9302 102.404 44.9345 102.795 44.034C102.936 44.5594 104.306 45.3045 108.662 44.0814C114.107 42.5524 113.967 42.6236 116.104 38.1659C117.813 34.5998 120.616 30.463 121.803 28.8404L114.835 45.169Z" fill="#EC8E67"/>
<path d="M123.053 25.9708L114.899 45.0789C115.549 45.5544 116.473 45.3017 116.79 44.5614L124.847 25.7665L123.053 25.9708Z" fill="#B83013"/>
<path d="M124.848 25.7659L121.108 20.8887C120.906 20.6248 120.508 20.626 120.307 20.891L119.406 22.0814L123.054 25.9702L124.848 25.7659Z" fill="#D5482A"/>
<path d="M124.848 25.7659L121.108 20.8887C120.906 20.6248 120.508 20.626 120.307 20.891L119.406 22.0814C119.747 21.9323 120.539 21.6559 120.62 21.779C120.7 21.9021 124.848 25.7659 124.848 25.7659Z" fill="#EC6C47"/>
<path d="M116.752 53.2634L105.024 47.3327L90.8709 65.799C88.4895 59.1939 82.6219 44.3936 78.2002 40.1884C72.8158 35.0677 61.7339 36.6556 67.5975 51.9167C69.4903 57.2784 72.2772 64.3823 74.6955 70.9207C81.9746 90.602 97.2063 84.2662 101.25 81.0312C109.338 74.561 116.752 53.2634 116.752 53.2634Z" fill="#F6BC33"/>
<path d="M105.024 47.3316C110.685 51.9149 115.268 54.4756 116.751 53.2626C118.234 52.0496 107.664 48.0172 105.024 47.3316Z" fill="#D89B0E"/>
<path d="M107.18 37.8975C105.697 39.515 108.393 41.1591 108.393 44.2328C108.393 44.8773 107.186 47.3886 106.91 48.2767C108.683 49.4 112.471 51.9162 115.032 51.9162C115.672 51.0759 116.459 50.2059 117.424 49.3287C122.984 44.2745 122.685 39.9457 122.416 36.0549L122.411 35.9839C122.142 32.0749 120.929 32.8837 118.233 37.0623C115.694 40.9978 112.437 42.3804 111.628 41.6451C110.145 40.2972 108.662 36.2799 107.18 37.8975Z" fill="#F1B09B"/>
<path d="M115.032 51.9161C112.471 51.9161 108.683 49.3999 106.91 48.2766C107.024 47.9106 107.315 47.1982 107.315 47.1982C107.315 47.1982 114.054 51.2841 115.537 51.2841C115.359 51.4964 115.191 51.7071 115.032 51.9161Z" fill="#EFF0EA"/>
<path fill-rule="evenodd" clip-rule="evenodd" d="M122.407 35.9215C122.442 35.9191 122.472 35.9453 122.474 35.98C122.476 36.0049 122.478 36.0298 122.479 36.0547C122.645 38.4547 122.823 41.0364 121.621 43.8535C121.607 43.8855 121.57 43.9003 121.538 43.8867C121.506 43.8731 121.492 43.8361 121.505 43.8041C122.695 41.0149 122.519 38.4593 122.353 36.0558L122.349 35.9887C122.346 35.954 122.372 35.9239 122.407 35.9215ZM119.936 46.6093C119.964 46.6303 119.969 46.6698 119.948 46.6975C119.289 47.5683 118.473 48.4604 117.466 49.3757C116.504 50.2504 115.719 51.1176 115.082 51.9547C115.061 51.9824 115.021 51.9877 114.994 51.9666C114.966 51.9456 114.961 51.9061 114.982 51.8784C115.624 51.035 116.414 50.1622 117.382 49.2825C118.383 48.3719 119.194 47.4854 119.848 46.6215C119.869 46.5938 119.908 46.5883 119.936 46.6093Z" fill="#3F487F"/>
<path fill-rule="evenodd" clip-rule="evenodd" d="M105.101 47.3681C105.156 47.4105 105.166 47.4896 105.124 47.5447L90.9699 65.8773C90.9418 65.9137 90.8961 65.9319 90.8507 65.9247C90.8053 65.9176 90.7674 65.8863 90.7518 65.843C89.4947 62.3562 87.2655 56.5844 84.7912 51.2963C84.7617 51.2333 84.7889 51.1584 84.8519 51.1289C84.9149 51.0994 84.9898 51.1266 85.0193 51.1896C87.4475 56.3794 89.6392 62.0317 90.9107 65.5419L104.924 47.3908C104.967 47.3357 105.046 47.3256 105.101 47.3681Z" fill="#D89B0E"/>
<path fill-rule="evenodd" clip-rule="evenodd" d="M116.794 53.1442C116.859 53.1671 116.894 53.2389 116.871 53.3045L116.752 53.2632L116.634 53.2218C116.656 53.1561 116.728 53.1214 116.794 53.1442ZM116.752 53.2632C116.634 53.2218 116.634 53.2216 116.634 53.2218L116.628 53.237L116.612 53.2826C116.598 53.3229 116.577 53.3829 116.549 53.4616C116.492 53.6188 116.409 53.8504 116.3 54.1475C116.082 54.7418 115.761 55.5981 115.35 56.6461C114.53 58.7421 113.351 61.6039 111.92 64.6675C110.49 67.7313 108.807 70.995 106.979 73.8955C105.149 76.7978 103.178 79.3281 101.172 80.9326C101.118 80.9761 101.109 81.0553 101.153 81.1096C101.196 81.1639 101.275 81.1727 101.33 81.1293C103.368 79.4987 105.357 76.9405 107.192 74.0298C109.028 71.1172 110.715 67.8434 112.149 64.774C113.582 61.7044 114.763 58.8374 115.585 56.7379C115.996 55.6881 116.317 54.8301 116.536 54.2343C116.646 53.9365 116.729 53.7042 116.786 53.5463C116.814 53.4673 116.835 53.407 116.85 53.3663L116.866 53.3202L116.871 53.3048C116.871 53.3046 116.871 53.3045 116.752 53.2632Z" fill="#D89B0E"/>
<path d="M59.6778 52.0614C55.095 54.0834 57.2512 60.9579 49.5678 62.8451C48.9619 62.9939 48.3572 63.1192 47.7559 63.22L62.6432 36.4233C66.2829 40.3306 64.2605 50.0395 59.6778 52.0614Z" fill="#3E4885"/>
<path d="M62.6432 36.424C64.6921 29.6311 61.7543 25.0919 60.4062 23.7438C60.4062 23.7438 58.2495 23.0698 58.2495 20.9131C58.2495 17.2467 62.6978 16.3301 64.4501 19.4381C65.1242 20.6337 66.6272 20.9036 67.4956 20.6548C69.9647 19.9473 71.756 19.2137 73.212 18.352L72.9424 17.678L67.2809 19.7001C66.2923 18.0376 63.5334 15.0092 60.4062 16.1954C56.4973 17.6781 52.4789 29.4239 62.6432 36.424Z" fill="#EC8E65"/>
<path d="M60.7516 6.54722C72.8937 2.07268 76.2961 10.396 76.4362 14.4146C73.4064 1.91402 60.9601 6.47088 60.7528 6.54678L60.7516 6.54722Z" fill="#3052A9"/>
<path d="M76.5346 12.9933C76.0026 9.00757 69.6539 1.17281 58.7874 6.4006C58.9344 6.3299 72.2888 0.821426 76.5346 12.9933Z" fill="#3052A9"/>
<path d="M62.3724 36.154C64.4213 29.3611 61.4835 24.8219 60.1354 23.4738C60.1354 23.4738 57.9787 22.7998 57.9787 20.6431C57.9787 16.9767 62.427 16.0601 64.1793 19.1681C64.8534 20.3638 66.3564 20.6336 67.2248 20.3848C85.6118 15.1162 73.8846 4.33301 62.1574 6.48861C49.509 8.81354 46.4495 37.9082 40.131 37.9082C35.8175 37.9082 28.4587 47.7371 31.2894 55.1508C34.1201 62.5646 41.6137 64.4629 49.2971 62.5757C56.9804 60.6886 54.8242 53.814 59.407 51.7921C63.9897 49.7702 66.0121 40.0612 62.3724 36.154Z" fill="#05185A"/>
<path d="M40.4638 59.7763C44.3088 60.9532 54.0761 58.4456 53.8506 46.3891C53.8536 46.5521 53.2979 60.9873 40.4638 59.7763Z" fill="#312E63"/>
<path d="M38.9769 58.1088C42.2674 59.5233 51.1586 58.2494 52.1271 47.5524C52.114 47.6971 50.2232 60.4246 38.9769 58.1088Z" fill="#312E63"/>
<path d="M37.2413 57.3541C40.1928 58.6229 48.1681 57.4802 49.0368 47.8852C49.0251 48.015 47.3291 59.4313 37.2413 57.3541Z" fill="#312E63"/>
<path d="M57.1692 51.3763C64.0437 47.602 62.4711 39.065 61.213 36.6836C63.3698 45.9575 59.236 50.0733 56.63 51.1067C52.5322 61.6746 45.4869 62.5194 42.7461 61.4859C50.9416 64.6132 55.1023 56.7232 57.1692 51.3763Z" fill="#312E63"/>
<path d="M56.3642 50.5675C62.6187 45.9305 61.3966 39.4693 60.0037 36.8184C62.5918 44.6904 58.566 48.8601 56.0948 50.1631C51.5657 59.7605 45.4907 61.5758 43.1543 61.0815C49.2202 62.3647 54.4772 55.0157 56.3642 50.5675Z" fill="#312E63"/>
<path d="M58.2369 275.428L58.0781 247.098L76.6201 248.105C76.6201 254.778 78.0568 264.345 78.0568 264.345L58.2369 275.428Z" fill="#F26AAA"/>
<path d="M58.0781 247.098L76.872 248.483V252.638L58.0781 254.023V247.098Z" fill="#3F4785"/>
<path d="M75.831 259.309C66.7084 257.44 70.4282 269.497 58.1168 263.151L58.1168 279.057C58.1168 280.455 59.2408 281.586 60.6389 281.576C68.5855 281.517 92.8538 281.343 97.5276 281.343C117.004 281.343 90.5955 262.333 75.831 259.309Z" fill="#355FB3"/>
<path d="M60.6391 281.575C68.5858 281.517 92.8541 281.342 97.5278 281.342C102.831 281.342 104.733 279.932 104.393 277.82C97.5408 274.047 75.8312 277.82 74.4789 276.309C69.1402 268.754 61.3465 269.3 58.1171 270.517L58.1171 279.056C58.1171 280.455 59.2411 281.585 60.6391 281.575Z" fill="white"/>
<path fill-rule="evenodd" clip-rule="evenodd" d="M101.679 280.915C101.66 280.848 101.7 280.778 101.766 280.76C102.784 280.474 103.46 280.068 103.856 279.577C104.248 279.091 104.375 278.508 104.267 277.84C104.256 277.771 104.303 277.706 104.372 277.695C104.44 277.684 104.505 277.731 104.516 277.8C104.633 278.526 104.496 279.184 104.052 279.735C103.611 280.282 102.88 280.709 101.834 281.002C101.768 281.021 101.698 280.982 101.679 280.915Z" fill="#260500"/>
<path fill-rule="evenodd" clip-rule="evenodd" d="M77.2663 260.201C79.5232 258.75 80.755 257.041 81.3224 255.634C81.6205 254.895 81.7328 254.245 81.7195 253.763C81.7128 253.522 81.6749 253.331 81.6202 253.195C81.5647 253.057 81.5009 252.996 81.4551 252.972C81.0128 252.744 80.5228 252.837 79.9977 253.23C79.4689 253.627 78.9461 254.304 78.4981 255.138C77.6705 256.678 77.1432 258.667 77.2663 260.201ZM79.6955 252.828C80.3091 252.367 81.0092 252.176 81.6859 252.524C81.876 252.622 82.0053 252.803 82.0876 253.008C82.1706 253.214 82.2152 253.467 82.2229 253.749C82.2385 254.315 82.1076 255.034 81.7895 255.823C81.1515 257.405 79.751 259.293 77.194 260.84C77.1225 260.883 77.0341 260.888 76.9581 260.853C76.8822 260.818 76.8286 260.747 76.8152 260.665C76.5344 258.945 77.1244 256.63 78.0544 254.899C78.5205 254.032 79.0854 253.285 79.6955 252.828Z" fill="#3F4785"/>
<path fill-rule="evenodd" clip-rule="evenodd" d="M77.5965 260.741C80.9615 261.903 83.7514 261.675 85.6732 260.97C86.6688 260.605 87.4264 260.115 87.9124 259.629C88.4116 259.129 88.5785 258.685 88.5272 258.404C88.4083 257.75 87.9869 257.227 87.3231 256.89C86.6551 256.552 85.7425 256.406 84.6741 256.53C82.6088 256.772 80.0016 258.022 77.5965 260.741ZM87.5508 256.441C88.3323 256.837 88.8713 257.481 89.0227 258.313C89.1196 258.846 88.8023 259.451 88.2686 259.985C87.7217 260.532 86.8976 261.058 85.8466 261.443C83.7403 262.215 80.702 262.429 77.0779 261.091C77.0008 261.062 76.9425 260.998 76.9216 260.918C76.9007 260.839 76.92 260.754 76.9732 260.691C79.5097 257.703 82.3318 256.297 84.6157 256.03C85.7564 255.897 86.7737 256.047 87.5508 256.441Z" fill="#3F4785"/>
<path fill-rule="evenodd" clip-rule="evenodd" d="M58.1159 278.931C58.1855 278.931 58.2418 278.987 58.2418 279.057C58.2418 280.386 59.3099 281.459 60.6371 281.449C68.5833 281.391 92.8523 281.216 97.5267 281.216C97.5962 281.216 97.6526 281.273 97.6526 281.342C97.6526 281.412 97.5962 281.468 97.5267 281.468C92.8535 281.468 68.5859 281.643 60.6389 281.701C59.17 281.712 57.99 280.524 57.99 279.057C57.99 278.987 58.0464 278.931 58.1159 278.931Z" fill="#260500"/>
<path d="M56.7254 251.882H91.0332C91.1957 251.882 91.3285 251.788 91.2974 251.628C89.5288 242.544 84.211 142.46 75.6124 93.6123L50.5557 93.4834C27.3877 110.856 49.1705 138.689 51.5628 165.508C53.1843 183.686 57.2291 230.56 56.7254 251.882Z" fill="#355EBA"/>
<path d="M50.5557 93.4834C27.3877 110.856 49.1705 138.689 51.5628 165.508C51.83 168.503 52.1628 172.276 52.5303 176.586L82.3759 146.74C80.4132 127.002 78.1564 108.064 75.6124 93.6123L50.5557 93.4834Z" fill="#48ACFA"/>
<path fill-rule="evenodd" clip-rule="evenodd" d="M85.665 186.786C85.8036 186.775 85.9251 186.878 85.9364 187.017C86.8376 198.077 87.6443 208.549 88.3512 217.727C88.702 222.28 89.0282 226.515 89.3292 230.345C89.7832 236.121 90.1799 240.976 90.5173 244.617C90.8557 248.267 91.1327 250.674 91.3448 251.572C91.3767 251.708 91.2929 251.843 91.1576 251.875C91.0222 251.907 90.8866 251.823 90.8546 251.688C90.6325 250.747 90.3527 248.298 90.0158 244.663C89.6781 241.019 89.2811 236.161 88.8271 230.385C88.526 226.553 88.1997 222.318 87.8489 217.764C87.142 208.586 86.3356 198.117 85.4344 187.057C85.4231 186.919 85.5264 186.797 85.665 186.786Z" fill="#3F487F"/>
<path d="M56.7266 251.881H63.1481C70.4511 235.891 82.035 206.553 86.0642 187.162C85.9926 186.41 85.7588 184.395 85.6865 183.637L56.7266 251.881Z" fill="#3F4785"/>
<path d="M53.198 164.375C42.3192 192.68 23.9863 213.439 16.1797 220.28L40.9845 272.03C53.4918 259.061 80.1434 221.993 86.6908 177.47C90.5941 142.844 84.4245 109.096 75.6106 93.6086C75.6106 93.6086 55.8422 93.2339 55.5904 93.7376C49.7984 124.712 57.2272 131.008 57.605 134.911C57.9827 138.814 56.8495 155.687 53.198 164.375Z" fill="#48ACFA"/>
<path fill-rule="evenodd" clip-rule="evenodd" d="M53.2902 164.139C53.42 164.189 53.4848 164.335 53.4349 164.465C42.5395 192.813 24.1804 213.605 16.3475 220.469C16.2429 220.561 16.0838 220.55 15.9921 220.446C15.9005 220.341 15.9109 220.182 16.0155 220.09C23.7958 213.272 42.1026 192.546 52.9648 164.284C53.0147 164.154 53.1604 164.089 53.2902 164.139Z" fill="#3F487F"/>
<path fill-rule="evenodd" clip-rule="evenodd" d="M54.3558 101.811C54.4853 101.862 54.5491 102.008 54.4983 102.138C51.5376 109.686 52.3621 116.866 53.9368 122.661C54.688 125.426 55.6084 127.871 56.3694 129.892C56.4062 129.989 56.4427 130.086 56.4787 130.182C56.8683 131.218 57.2116 132.141 57.4572 132.927C57.7013 133.709 57.8573 134.382 57.8573 134.911C57.8573 136.881 57.6679 142.085 57.0216 147.883C56.376 153.676 55.2715 160.092 53.4307 164.472C53.3768 164.6 53.2292 164.661 53.101 164.607C52.9728 164.553 52.9125 164.405 52.9664 164.277C54.7771 159.969 55.8761 153.614 56.5211 147.828C57.1654 142.047 57.3537 136.862 57.3537 134.911C57.3537 134.464 57.2186 133.853 56.9764 133.078C56.7359 132.307 56.3979 131.398 56.0073 130.359C55.9709 130.262 55.9339 130.164 55.8966 130.065C55.1363 128.046 54.2084 125.582 53.4508 122.793C51.8607 116.941 51.0144 109.641 54.0295 101.954C54.0802 101.824 54.2264 101.761 54.3558 101.811Z" fill="#3F487F"/>
<path d="M16.1797 220.28C31.6671 223.551 47.5321 272.282 40.3549 272.282C19.5964 272.282 18.572 237.53 16.1797 220.28Z" fill="#260500"/>
<path d="M29.9033 233.372C29.9033 233.372 22.2227 220.529 16.0529 220.277L6.73047 228.336L21.5939 245.838C24.8952 238.421 26.7133 237.193 29.9033 233.372Z" fill="#F26AAA"/>
<path d="M29.9055 233.372C29.9055 233.372 22.2248 220.529 16.0551 220.277L14.9219 221.257C18.2017 222.987 25.5529 228.109 28.7185 234.757C29.095 234.327 29.4885 233.872 29.9055 233.372Z" fill="#3F4785"/>
<path d="M25.249 238.787C22.7308 229.822 13.2873 236.52 13.2873 222.67L1.1412 232.41C0.404136 233.001 0.0582492 233.947 0.248938 234.873C2.7549 247.033 7.61596 269.93 9.25809 275.05C10.6393 279.356 15.1129 284.134 17.0647 283.43C23.31 283.385 25.1231 253.649 25.249 238.787Z" fill="#355FB3"/>
<path d="M0.248938 234.873C2.7549 247.034 7.61596 269.931 9.25809 275.05C10.6393 279.357 15.1129 284.135 17.0647 283.43C13.5391 275.693 8.3767 256.919 9.25809 250.875C11.7763 238.284 9.71977 229.451 8.3767 226.608L1.1412 232.41C0.404136 233.001 0.0582492 233.948 0.248938 234.873Z" fill="white"/>
<path fill-rule="evenodd" clip-rule="evenodd" d="M8.47213 226.529C8.51564 226.583 8.50692 226.662 8.45267 226.706L2.53477 231.451C2.48051 231.495 2.40127 231.486 2.35776 231.432C2.31426 231.377 2.32297 231.298 2.37723 231.255L8.29513 226.509C8.34938 226.466 8.42863 226.474 8.47213 226.529Z" fill="#260500"/>
<path fill-rule="evenodd" clip-rule="evenodd" d="M1.23644 232.332C1.27995 232.386 1.27124 232.465 1.21698 232.509C0.516426 233.071 0.188228 233.97 0.369274 234.848C1.06349 238.217 1.93846 242.41 2.87566 246.82C2.89011 246.888 2.84669 246.955 2.77867 246.969C2.71064 246.984 2.64378 246.94 2.62933 246.872C1.69202 242.461 0.816941 238.268 0.122631 234.899C-0.0776994 233.927 0.285876 232.933 1.05944 232.312C1.1137 232.269 1.19294 232.278 1.23644 232.332ZM6.09889 262.211C6.16673 262.195 6.23411 262.238 6.24939 262.306C7.56746 268.159 8.72524 272.986 9.375 275.012C9.64025 275.839 10.0215 276.685 10.4786 277.508C10.5124 277.569 10.4905 277.645 10.4297 277.679C10.3689 277.713 10.2923 277.691 10.2585 277.63C9.7949 276.796 9.40642 275.934 9.13521 275.089C8.48127 273.05 7.32091 268.21 6.00371 262.361C5.98844 262.293 6.03105 262.226 6.09889 262.211ZM13.944 282.093C13.9892 282.04 14.0687 282.034 14.1216 282.079C14.6992 282.572 15.2578 282.945 15.759 283.161C16.2626 283.378 16.6903 283.431 17.019 283.312C17.0844 283.288 17.1565 283.322 17.1801 283.388C17.2037 283.453 17.1698 283.525 17.1044 283.549C16.6887 283.699 16.1887 283.621 15.6591 283.392C15.127 283.162 14.5469 282.773 13.958 282.27C13.9052 282.225 13.8989 282.146 13.944 282.093Z" fill="#260500"/>
<path fill-rule="evenodd" clip-rule="evenodd" d="M25.0879 239.257C27.4119 240.598 29.4952 240.911 31.0056 240.77C31.7992 240.697 32.4282 240.499 32.8506 240.266C33.0622 240.15 33.214 240.029 33.31 239.918C33.4073 239.805 33.4329 239.72 33.4329 239.669C33.4329 239.171 33.1261 238.778 32.5354 238.492C31.9407 238.203 31.0996 238.049 30.1531 238.032C28.4047 238.002 26.3953 238.445 25.0879 239.257ZM32.7552 238.038C33.4453 238.373 33.9366 238.907 33.9366 239.669C33.9366 239.883 33.8353 240.08 33.691 240.247C33.5453 240.416 33.3408 240.571 33.0936 240.707C32.5983 240.98 31.8993 241.193 31.0521 241.272C29.3537 241.43 27.0332 241.05 24.4872 239.486C24.4159 239.442 24.3711 239.365 24.3674 239.282C24.3638 239.198 24.4019 239.118 24.4691 239.069C25.8692 238.031 28.1969 237.495 30.1617 237.529C31.1464 237.546 32.069 237.706 32.7552 238.038Z" fill="#3F4785"/>
<path fill-rule="evenodd" clip-rule="evenodd" d="M24.7571 239.795C25.2658 243.318 26.7469 245.694 28.2535 247.079C29.0339 247.797 29.8172 248.246 30.4719 248.455C31.1444 248.67 31.6156 248.615 31.8426 248.44C32.3689 248.035 32.6413 247.421 32.6361 246.677C32.6309 245.928 32.3427 245.05 31.7424 244.157C30.5819 242.432 28.2756 240.687 24.7571 239.795ZM33.1397 246.673C33.1458 247.549 32.8199 248.324 32.1498 248.839C31.7207 249.169 31.0375 249.165 30.3185 248.935C29.5818 248.699 28.7365 248.208 27.9126 247.45C26.2614 245.931 24.6792 243.329 24.2089 239.494C24.1989 239.412 24.2293 239.331 24.2904 239.276C24.3515 239.221 24.4356 239.199 24.5157 239.218C28.3342 240.104 30.8769 241.968 32.1603 243.876C32.8013 244.829 33.1337 245.802 33.1397 246.673Z" fill="#3F4785"/>
<path d="M216.828 198.545C215.729 179.247 215.316 168.428 216.828 149.129L176.385 141.246C170.814 135.934 251.034 134.582 260.758 134.438C261.385 134.429 261.975 134.189 262.419 133.746C268.571 127.597 269.889 120.894 265.054 100.012C228.36 100.012 183.954 102.837 169.401 108.445C161.11 111.64 115.615 121.429 153.288 161.946C166.829 176.511 196.564 189.949 216.828 198.545Z" fill="#0B1F83"/>
<path d="M216.831 149.13C217.802 167.857 218.05 178.909 216.831 198.546C204.759 196.676 211.016 147.399 216.831 149.13Z" fill="#42447C"/>
<path d="M239.604 153.141L216.795 149.202L214.008 167.415L224.683 172.302L239.604 153.141Z" fill="#FEFEFE"/>
<path fill-rule="evenodd" clip-rule="evenodd" d="M213.863 167.349C213.827 167.428 213.862 167.52 213.941 167.556L224.616 172.443C224.694 172.479 224.787 172.445 224.823 172.366C224.859 172.287 224.824 172.195 224.746 172.159L214.071 167.272C213.992 167.236 213.899 167.27 213.863 167.349ZM218.173 149.563C218.159 149.649 218.216 149.729 218.301 149.743L239.576 153.294C239.661 153.308 239.741 153.251 239.756 153.166C239.77 153.08 239.712 153 239.627 152.986L218.353 149.435C218.268 149.421 218.187 149.478 218.173 149.563Z" fill="#444779"/>
<path d="M216.805 149.12L214.008 167.414L217.742 168.987L218.524 149.433L216.805 149.12Z" fill="#444779"/>
<path d="M219.716 169.134C219.215 159.188 231.36 165.069 226.642 151.029L243.023 153.534C244.74 153.796 245.916 155.395 245.641 157.11C244.228 165.918 240.245 190.774 239.502 195.632C236.353 216.222 220.526 185.231 219.716 169.134Z" fill="#355CB7"/>
<path d="M245.713 156.674C244.367 165.065 240.26 190.692 239.504 195.633C238.647 201.239 236.849 203.021 234.671 202.321C231.79 194.467 239.288 172.127 237.91 170.453C230.786 163.588 232.623 155.437 234.431 152.22L243.459 153.6C244.937 153.826 245.95 155.197 245.713 156.674Z" fill="#EEEFE9"/>
<path fill-rule="evenodd" clip-rule="evenodd" d="M234.278 152.197C234.265 152.282 234.323 152.362 234.409 152.375L236.97 152.767C237.056 152.78 237.136 152.721 237.149 152.636C237.162 152.55 237.103 152.47 237.018 152.457L234.456 152.066C234.371 152.053 234.291 152.111 234.278 152.197ZM240.883 153.207C240.87 153.292 240.929 153.372 241.014 153.385L243.436 153.755C244.83 153.968 245.783 155.26 245.56 156.649C245.546 156.735 245.604 156.815 245.69 156.828C245.775 156.842 245.855 156.784 245.869 156.699C246.12 155.135 245.046 153.685 243.484 153.446L241.062 153.076C240.976 153.063 240.896 153.121 240.883 153.207ZM245.26 159.508C245.175 159.494 245.095 159.553 245.081 159.638C244.861 161.006 244.611 162.567 244.341 164.254C244.327 164.34 244.385 164.42 244.471 164.434C244.556 164.447 244.636 164.389 244.65 164.304C244.92 162.616 245.17 161.056 245.39 159.687C245.403 159.602 245.345 159.522 245.26 159.508ZM243.985 167.472C243.899 167.458 243.819 167.516 243.806 167.601L241.775 180.297C240.665 187.252 239.683 193.434 239.351 195.61C239.338 195.695 239.396 195.775 239.482 195.788C239.567 195.801 239.647 195.742 239.66 195.657C239.992 193.483 240.974 187.302 242.084 180.347L244.115 167.651C244.128 167.566 244.07 167.485 243.985 167.472Z" fill="#345267"/>
<path fill-rule="evenodd" clip-rule="evenodd" d="M238.392 199.935C238.313 199.9 238.22 199.935 238.185 200.013C237.72 201.041 237.183 201.686 236.606 202.021C236.034 202.353 235.404 202.393 234.72 202.173C234.638 202.147 234.55 202.192 234.523 202.274C234.497 202.357 234.542 202.445 234.624 202.471C235.378 202.714 236.103 202.675 236.763 202.292C237.418 201.911 237.99 201.202 238.47 200.143C238.505 200.064 238.471 199.971 238.392 199.935Z" fill="#345267"/>
<path fill-rule="evenodd" clip-rule="evenodd" d="M220.349 170.822C218.471 172.93 216.493 173.936 214.937 174.303C214.112 174.498 213.413 174.511 212.913 174.42C212.662 174.375 212.472 174.305 212.343 174.229C212.211 174.151 212.166 174.081 212.153 174.042C211.99 173.559 212.156 173.073 212.651 172.588C213.149 172.099 213.942 171.658 214.893 171.321C216.625 170.706 218.765 170.47 220.349 170.822ZM212.213 172.141C211.62 172.722 211.293 173.448 211.559 174.241C211.637 174.471 211.816 174.644 212.024 174.767C212.235 174.892 212.501 174.981 212.801 175.036C213.403 175.145 214.191 175.122 215.081 174.912C216.866 174.491 219.097 173.311 221.151 170.851C221.218 170.771 221.24 170.663 221.211 170.564C221.183 170.464 221.106 170.385 221.007 170.353C219.222 169.774 216.67 170.026 214.684 170.731C213.688 171.085 212.801 171.564 212.213 172.141Z" fill="#FEFEFE"/>
<path fill-rule="evenodd" clip-rule="evenodd" d="M220.914 171.301C221.577 175.006 220.888 177.886 219.844 179.783C219.3 180.772 218.663 181.489 218.076 181.92C217.471 182.364 216.99 182.458 216.722 182.365C216.065 182.139 215.588 181.621 215.344 180.876C215.097 180.125 215.089 179.145 215.392 178.042C215.974 175.922 217.694 173.393 220.914 171.301ZM214.749 181.071C215.045 181.972 215.648 182.657 216.518 182.957C217.086 183.153 217.793 182.904 218.447 182.424C219.119 181.93 219.813 181.138 220.392 180.085C221.554 177.974 222.273 174.786 221.441 170.729C221.421 170.629 221.353 170.545 221.259 170.504C221.165 170.464 221.058 170.471 220.971 170.525C217.394 172.728 215.443 175.492 214.789 177.876C214.462 179.067 214.455 180.176 214.749 181.071Z" fill="#FEFEFE"/>
<path d="M207.925 229.872L208.369 206.729L189.944 206.729L186.728 218.021L207.925 229.872Z" fill="#FEFEFE"/>
<path fill-rule="evenodd" clip-rule="evenodd" d="M207.926 206.214C207.839 206.214 207.769 206.284 207.769 206.371L207.769 229.871C207.769 229.957 207.839 230.027 207.926 230.027C208.012 230.027 208.082 229.957 208.082 229.871L208.082 206.371C208.082 206.284 208.012 206.214 207.926 206.214ZM189.987 206.578C189.904 206.554 189.817 206.603 189.794 206.686L186.578 217.977C186.554 218.06 186.602 218.147 186.685 218.17C186.768 218.194 186.855 218.146 186.879 218.063L190.095 206.771C190.118 206.688 190.07 206.602 189.987 206.578Z" fill="#444779"/>
<path d="M208.064 205.917L189.942 206.729L189.097 209.698C189.097 209.698 203.955 211.846 208.064 214.287L208.064 205.917Z" fill="#444779"/>
<path d="M189.107 212.634C198.862 210.635 194.886 223.529 208.051 216.742L208.053 233.313C208.053 235.05 206.651 236.455 204.914 236.443C195.993 236.378 170.82 236.2 165.906 236.201C145.077 236.203 173.317 215.87 189.107 212.634Z" fill="#355CB7"/>
<path d="M205.356 236.445C196.858 236.384 170.904 236.2 165.906 236.2C160.234 236.201 158.201 234.694 158.564 232.434C165.891 228.398 189.109 232.431 190.555 230.815C196.263 222.735 204.598 223.318 208.052 224.619L208.053 233.751C208.053 235.247 206.851 236.456 205.356 236.445Z" fill="#EEEFE9"/>
<path fill-rule="evenodd" clip-rule="evenodd" d="M208.052 224.463C207.966 224.463 207.896 224.533 207.896 224.619L207.896 227.21C207.896 227.297 207.966 227.367 208.052 227.367C208.139 227.367 208.209 227.297 208.209 227.21L208.209 224.619C208.209 224.533 208.139 224.463 208.052 224.463ZM208.053 231.145C207.966 231.145 207.896 231.215 207.896 231.301L207.897 233.751C207.897 235.161 206.764 236.299 205.357 236.289C205.271 236.288 205.2 236.358 205.2 236.444C205.199 236.53 205.269 236.601 205.355 236.602C206.938 236.613 208.21 235.332 208.21 233.751L208.209 231.301C208.209 231.215 208.139 231.145 208.053 231.145ZM202.486 236.425C202.487 236.338 202.417 236.268 202.331 236.267C200.945 236.257 199.365 236.246 197.655 236.234C197.569 236.233 197.498 236.303 197.498 236.389C197.497 236.476 197.567 236.546 197.653 236.547C199.362 236.559 200.943 236.57 202.328 236.58C202.415 236.58 202.485 236.511 202.486 236.425ZM194.421 236.368C194.422 236.282 194.352 236.212 194.266 236.211L181.409 236.124C174.366 236.079 168.106 236.043 165.906 236.044C165.82 236.044 165.75 236.114 165.75 236.2C165.75 236.287 165.82 236.357 165.906 236.357C168.105 236.356 174.363 236.392 181.407 236.437L194.264 236.524C194.35 236.524 194.421 236.455 194.421 236.368Z" fill="#345267"/>
<path fill-rule="evenodd" clip-rule="evenodd" d="M161.485 235.751C161.508 235.668 161.46 235.581 161.376 235.558C160.29 235.253 159.572 234.821 159.153 234.301C158.738 233.786 158.603 233.169 158.717 232.46C158.731 232.375 158.673 232.294 158.588 232.281C158.502 232.267 158.422 232.325 158.408 232.41C158.283 233.192 158.43 233.903 158.91 234.497C159.385 235.087 160.172 235.545 161.292 235.859C161.375 235.882 161.461 235.834 161.485 235.751Z" fill="#6DE277"/>
<path d="M261.824 134.424C275.514 126.97 265.762 102.188 265.762 102.188L222.904 102.134C222.904 102.134 190.521 104.104 179.507 116.232C168.493 128.36 174.897 196.696 170.648 207.157L211.797 207.95C217.749 198.096 210.329 136.034 212.14 135.334C213.951 134.635 261.486 134.957 261.824 134.424Z" fill="#4AABF8"/>
<path fill-rule="evenodd" clip-rule="evenodd" d="M265.909 102.131C265.909 102.131 265.909 102.131 265.764 102.188C265.618 102.245 265.618 102.245 265.618 102.245L265.62 102.249L265.625 102.262C265.63 102.274 265.636 102.292 265.645 102.315C265.663 102.362 265.689 102.431 265.723 102.522C265.791 102.705 265.889 102.973 266.008 103.318C266.247 104.008 266.574 105.003 266.923 106.22C267.622 108.654 268.411 111.975 268.773 115.526C269.499 122.646 268.505 130.609 261.752 134.286L261.901 134.561C268.838 130.784 269.812 122.629 269.084 115.494C268.72 111.919 267.926 108.579 267.224 106.133C266.873 104.91 266.545 103.91 266.304 103.216C266.184 102.869 266.085 102.598 266.017 102.413C265.982 102.321 265.956 102.251 265.937 102.203C265.928 102.179 265.921 102.161 265.917 102.149L265.911 102.135L265.909 102.131ZM212.211 135.473C212.211 135.473 212.207 135.477 212.198 135.48L212.086 135.188C212.016 135.215 211.969 135.269 211.937 135.319C211.905 135.37 211.879 135.432 211.858 135.498C211.817 135.632 211.785 135.812 211.761 136.029C211.713 136.465 211.692 137.082 211.693 137.854C211.695 139.399 211.785 141.586 211.929 144.238C212.074 146.904 212.273 150.046 212.49 153.484C212.705 156.882 212.939 160.568 213.156 164.369C213.593 172.02 213.966 180.144 213.998 187.347C214.029 194.555 213.717 200.825 212.791 204.775L213.096 204.846C214.031 200.857 214.342 194.553 214.31 187.346C214.279 180.135 213.906 172.004 213.468 164.351C213.251 160.544 213.017 156.858 212.802 153.462C212.585 150.027 212.386 146.889 212.242 144.221C212.098 141.569 212.008 139.39 212.006 137.853C212.004 137.084 212.025 136.482 212.072 136.063C212.095 135.853 212.124 135.697 212.157 135.592C212.174 135.539 212.189 135.505 212.201 135.486C212.208 135.475 212.212 135.472 212.211 135.473ZM172.45 189.483C172.524 185.57 172.549 181.251 172.574 176.721L172.261 176.72C172.237 181.25 172.211 185.567 172.137 189.477L172.45 189.483ZM171.693 203.189C171.921 201.463 172.086 199.373 172.207 196.996L171.895 196.981C171.774 199.353 171.61 201.434 171.383 203.148C171.156 204.865 170.869 206.204 170.505 207.098L170.795 207.216C171.174 206.283 171.466 204.912 171.693 203.189Z" fill="#1081B0"/>
<path d="M170.65 207.158C179.254 205.281 208.759 206.063 211.846 207.94C197.714 209.974 174.28 208.785 170.65 207.158Z" fill="#42447C"/>
<path fill-rule="evenodd" clip-rule="evenodd" d="M188.849 212.848C186.482 211.309 185.187 209.507 184.589 208.024C184.272 207.238 184.154 206.549 184.168 206.041C184.175 205.786 184.214 205.588 184.271 205.449C184.328 205.307 184.39 205.251 184.427 205.232C184.879 204.999 185.385 205.089 185.939 205.505C186.498 205.923 187.053 206.641 187.531 207.53C188.401 209.148 188.958 211.228 188.849 212.848ZM186.315 205.004C185.651 204.506 184.884 204.292 184.14 204.676C183.924 204.787 183.78 204.991 183.69 205.215C183.599 205.442 183.55 205.718 183.542 206.024C183.525 206.635 183.667 207.41 184.009 208.258C184.695 209.959 186.2 211.986 188.942 213.644C189.031 213.698 189.141 213.704 189.235 213.661C189.329 213.617 189.396 213.53 189.413 213.427C189.715 211.575 189.08 209.09 188.082 207.234C187.582 206.303 186.974 205.498 186.315 205.004Z" fill="#444779"/>
<path fill-rule="evenodd" clip-rule="evenodd" d="M188.463 213.483C184.901 214.699 181.95 214.453 179.916 213.708C178.856 213.32 178.052 212.798 177.537 212.284C177.006 211.753 176.841 211.292 176.892 211.012C177.016 210.329 177.456 209.779 178.156 209.425C178.861 209.068 179.828 208.912 180.964 209.044C183.148 209.299 185.908 210.616 188.463 213.483ZM177.873 208.867C177.027 209.295 176.441 209.995 176.276 210.9C176.168 211.492 176.521 212.153 177.095 212.726C177.685 213.316 178.572 213.882 179.701 214.296C181.964 215.125 185.224 215.353 189.108 213.918C189.204 213.882 189.277 213.802 189.303 213.704C189.329 213.605 189.305 213.5 189.239 213.422C186.52 210.219 183.492 208.709 181.037 208.423C179.811 208.279 178.714 208.441 177.873 208.867Z" fill="#444779"/>
<path d="M223.742 40.8056C231.272 30.7026 240.363 44.1328 238.452 48.8177C237.568 50.983 229.737 67.4421 228.812 71.2255C228.033 74.4116 232.226 103.506 232.226 103.506L218.19 104.678C218.19 104.678 211.336 86.0389 214.077 69.483C215.667 59.8778 220.47 45.196 223.742 40.8056Z" fill="#EC6C47"/>
<path d="M258.754 39.5329C251.405 30.7379 234.671 29.393 225.007 39.5327C219.216 45.6077 226.275 68.0087 218.194 104.972L265.775 102.186C260.658 75.0889 264.374 46.2583 258.754 39.5329Z" fill="#EC6C47"/>
<path fill-rule="evenodd" clip-rule="evenodd" d="M222.459 62.6079C222.373 62.6077 222.303 62.6776 222.302 62.764C222.287 70.6768 222.029 80.3836 220.408 91.7912C220.396 91.8767 220.456 91.9559 220.541 91.9681C220.627 91.9802 220.706 91.9207 220.718 91.8352C222.341 80.4074 222.6 70.6845 222.615 62.7647C222.615 62.6783 222.546 62.6081 222.459 62.6079Z" fill="#D5482A"/>
<path d="M225.321 104.338L216.447 92.6136C216.447 92.6136 249.929 90.2012 250.353 88.9696C250.719 87.9073 245.161 47.1565 245.161 41.956C245.161 33.812 253.154 34.7135 255.176 36.1809C267.94 45.4393 272.452 90.096 267.464 98.4759C260.157 110.751 225.321 104.338 225.321 104.338Z" fill="#EC6C47"/>
<path fill-rule="evenodd" clip-rule="evenodd" d="M247.278 61.9831C247.192 61.9935 247.131 62.0715 247.142 62.1572C247.421 64.4571 247.708 66.7956 247.988 69.0849C248.472 73.0345 248.939 76.8377 249.318 80.0439C249.618 82.5762 249.863 84.7348 250.021 86.2982C250.1 87.0801 250.156 87.7116 250.186 88.1661C250.202 88.3935 250.21 88.5746 250.212 88.7072C250.212 88.7737 250.211 88.8258 250.209 88.8645C250.208 88.8874 250.206 88.9019 250.205 88.9101C250.204 88.9103 250.204 88.9105 250.204 88.9107C250.193 88.9199 250.174 88.9335 250.142 88.9505C250.079 88.9846 249.983 89.0229 249.853 89.0643C249.593 89.1469 249.219 89.2346 248.743 89.3261C247.792 89.509 246.453 89.7037 244.855 89.9033C241.659 90.3023 237.436 90.7191 233.225 91.0976C229.014 91.4761 224.816 91.8161 221.671 92.0615C220.099 92.1842 218.789 92.2832 217.873 92.3515C217.415 92.3857 217.055 92.4122 216.81 92.4302C216.687 92.4392 216.593 92.446 216.53 92.4506L216.436 92.4575L216.434 92.4576C216.434 92.4576 216.434 92.4576 216.445 92.6136C216.457 92.7696 216.457 92.7696 216.457 92.7696L216.647 92.7558C216.699 92.752 216.761 92.7475 216.833 92.7422C217.078 92.7243 217.438 92.6977 217.896 92.6635C218.813 92.5952 220.123 92.4961 221.696 92.3734C224.841 92.128 229.041 91.7879 233.253 91.4093C237.465 91.0307 241.692 90.6135 244.894 90.2138C246.494 90.014 247.841 89.8182 248.802 89.6334C249.282 89.5411 249.67 89.4507 249.948 89.3625C250.086 89.3186 250.202 89.2735 250.29 89.2262C250.335 89.2025 250.376 89.176 250.411 89.1456C250.444 89.1161 250.48 89.0751 250.499 89.0205C250.513 88.9799 250.518 88.9297 250.521 88.8845C250.524 88.8348 250.525 88.774 250.525 88.7036C250.523 88.5626 250.514 88.3749 250.499 88.1452C250.468 87.6855 250.411 87.0498 250.332 86.2668C250.174 84.7006 249.929 82.5397 249.629 80.0072C249.249 76.8004 248.783 72.9959 248.299 69.0457C248.018 66.7566 247.731 64.4185 247.452 62.1195C247.442 62.0338 247.364 61.9727 247.278 61.9831ZM216.445 92.6136L216.457 92.7696C216.37 92.7759 216.295 92.711 216.289 92.6249C216.283 92.5387 216.348 92.4638 216.434 92.4576L216.445 92.6136ZM267.738 66.2079C267.653 66.2222 267.596 66.3029 267.61 66.3881C268.766 73.2795 269.334 80.2175 269.29 85.9703C269.269 88.8468 269.094 91.4242 268.766 93.5499C268.437 95.6794 267.955 97.3407 267.327 98.3958C265.532 101.412 262.033 103.298 257.755 104.419C253.48 105.539 248.456 105.888 243.651 105.854C238.848 105.819 234.272 105.402 230.895 104.993C229.207 104.788 227.82 104.586 226.854 104.435C226.372 104.359 225.995 104.297 225.738 104.253C225.61 104.231 225.512 104.214 225.447 104.202C225.414 104.196 225.389 104.192 225.372 104.189L225.354 104.185L225.349 104.184L225.348 104.184C225.348 104.184 225.347 104.184 225.319 104.338C225.291 104.492 225.291 104.492 225.291 104.492L225.297 104.493L225.317 104.497C225.333 104.5 225.359 104.504 225.392 104.51C225.458 104.522 225.557 104.539 225.686 104.561C225.943 104.605 226.322 104.668 226.806 104.744C227.774 104.896 229.165 105.099 230.858 105.304C234.241 105.713 238.83 106.132 243.649 106.166C248.467 106.201 253.522 105.852 257.834 104.722C262.142 103.593 265.738 101.677 267.596 98.5558C268.255 97.4483 268.744 95.7389 269.075 93.5976C269.407 91.4525 269.581 88.8591 269.603 85.9726C269.647 80.1996 269.078 73.2434 267.919 66.3363C267.904 66.2511 267.824 66.1936 267.738 66.2079ZM225.165 104.31C225.15 104.395 225.206 104.476 225.291 104.492L225.319 104.338L225.347 104.184C225.262 104.169 225.181 104.225 225.165 104.31Z" fill="#D5482A"/>
<path d="M216.446 92.6143C219.64 94.6604 225.127 100.63 225.318 104.339C222.683 103.253 217.979 98.6275 216.446 92.6143Z" fill="#3E4981"/>
<path d="M204.249 94.6071C207.326 92.2756 218.191 94.04 218.191 94.04C220.568 95.9412 224.053 99.9026 225.004 102.754C225.004 102.754 219.934 101.17 214.864 103.229C212.915 104.021 214.258 101.776 214.864 101.17C216.924 99.1101 195.377 101.329 204.249 94.6071Z" fill="#F1B09B"/>
<path d="M245.172 11.7241C242.575 10.3925 237.337 6.81599 237.164 3.16241C237.744 4.82075 240.159 8.85475 245.172 11.7241Z" fill="#444779"/>
<path d="M246.222 13.2905C243.894 11.5308 239.352 7.10428 239.811 3.47555C240.097 5.20917 241.779 9.59925 246.222 13.2905Z" fill="#444779"/>
<path d="M251.604 12.109C260.205 17.1161 252.249 24.8406 247.944 28.1921C243.128 24.3598 250.363 20.7668 249.04 20.37C247.717 19.9732 245.272 21.1041 237.69 17.0395C236.815 16.5703 236.134 16.062 235.615 15.5292C232.539 12.3699 234.737 6.32451 236.767 4.47863C237.757 7.2965 240.666 9.27977 243.232 10.2049C242.308 9.49735 240.313 6.99081 241.939 4.47863C244.34 8.91188 247.85 9.92393 251.604 12.109Z" fill="#05185A"/>
<path d="M235.739 38.7627C237.352 40.4397 244.132 41.5776 248.916 38.7627C249.577 37.4446 246.534 25.2928 248.662 23.8113C252.616 21.058 248.411 18.1801 246.065 19.2056C244.657 19.8212 243.405 18.8056 242.466 18.0234C238.587 14.5193 236.416 13.1675 235.739 14.5814C230.421 25.6884 234.283 29.1346 235.507 30.3865C235.97 30.8592 236.09 32.4252 236.046 34.2445C235.997 36.2794 234.577 37.5548 235.739 38.7627Z" fill="#F1B09B"/>
<path fill-rule="evenodd" clip-rule="evenodd" d="M248.055 18.954C247.368 18.7791 246.628 18.7889 246.002 19.0625C245.35 19.3477 244.732 19.2585 244.154 18.9964C243.571 18.7322 243.04 18.2978 242.569 17.9054C240.631 16.155 239.106 14.9296 237.976 14.3206C237.412 14.0171 236.925 13.8545 236.523 13.8739C236.318 13.8838 236.133 13.9409 235.974 14.0513C235.816 14.1613 235.692 14.3181 235.598 14.514C232.931 20.0845 232.554 23.7579 233.016 26.2088C233.454 28.5313 234.642 29.7337 235.29 30.3884C235.327 30.4261 235.362 30.4619 235.396 30.496C235.486 30.5884 235.571 30.7476 235.643 30.9798C235.715 31.2092 235.771 31.4959 235.811 31.8296C235.892 32.4967 235.911 33.3345 235.89 34.2409C235.871 35.0051 235.655 35.6512 235.456 36.2498C235.397 36.4265 235.339 36.599 235.288 36.7692C235.179 37.1361 235.102 37.4959 235.134 37.8478C235.167 38.2063 235.313 38.5452 235.626 38.8713C236.056 39.3183 236.812 39.7138 237.758 40.0153C238.709 40.3183 239.871 40.5318 241.13 40.6036C243.645 40.747 246.569 40.3253 248.995 38.8977L249.035 38.8743L249.056 38.833C249.111 38.7237 249.139 38.575 249.154 38.408C249.17 38.2373 249.172 38.0314 249.164 37.7974C249.148 37.3294 249.091 36.7355 249.011 36.0607C248.931 35.3852 248.828 34.6247 248.72 33.8226L248.719 33.82C248.611 33.0182 248.497 32.1744 248.394 31.3296C248.188 29.6364 248.029 27.9466 248.053 26.5901C248.065 25.9115 248.123 25.3238 248.24 24.864C248.359 24.3994 248.532 24.0927 248.751 23.9399C249.758 23.2385 250.272 22.5116 250.408 21.8161C250.544 21.1162 250.292 20.482 249.842 19.9864C249.393 19.4927 248.743 19.1291 248.055 18.954ZM250.101 21.7561C249.986 22.3426 249.542 23.0078 248.572 23.6831C248.26 23.9007 248.062 24.2978 247.937 24.7865C247.811 25.28 247.752 25.895 247.74 26.5845C247.716 27.9644 247.877 29.6726 248.083 31.3674C248.186 32.2143 248.301 33.0598 248.409 33.861L248.41 33.8646C248.518 34.6673 248.621 35.4251 248.7 36.0973C248.78 36.7703 248.836 37.3536 248.851 37.8081C248.859 38.0355 248.857 38.2272 248.843 38.38C248.832 38.5053 248.813 38.5948 248.792 38.6539C246.443 40.0206 243.606 40.4314 241.147 40.2912C239.911 40.2207 238.776 40.0112 237.853 39.7172C236.925 39.4216 236.228 39.0459 235.852 38.6544C235.584 38.3766 235.472 38.1031 235.446 37.8192C235.419 37.5286 235.482 37.2159 235.588 36.8586C235.634 36.7048 235.688 36.5433 235.745 36.3738C235.947 35.7699 236.183 35.0646 236.202 34.2485C236.224 33.3356 236.205 32.4807 236.122 31.7919C236.08 31.4475 236.022 31.1404 235.942 30.8864C235.863 30.6351 235.76 30.4213 235.619 30.2773C235.586 30.2432 235.551 30.2075 235.514 30.1701C234.875 29.5243 233.744 28.3787 233.323 26.1508C232.878 23.7888 233.229 20.1856 235.88 14.6491C235.955 14.4916 236.047 14.3813 236.153 14.3083C236.257 14.2357 236.383 14.1938 236.538 14.1864C236.854 14.1712 237.279 14.3004 237.828 14.5961C238.921 15.1853 240.421 16.3872 242.362 18.1397L242.364 18.1418L242.366 18.1438C242.834 18.5332 243.396 18.9966 244.025 19.2814C244.659 19.5688 245.372 19.6795 246.128 19.3492C246.675 19.11 247.34 19.095 247.978 19.2572C248.615 19.4195 249.209 19.7551 249.61 20.1968C250.01 20.6367 250.214 21.1741 250.101 21.7561Z" fill="#EC8E67"/>
<path d="M245.592 30.3868C243.913 31.939 238.559 30.9659 235.505 30.3867C235.967 30.8594 236.087 32.4254 236.043 34.2447C239.078 34.0351 244.296 33.1323 245.592 30.3868Z" fill="#EC8E67"/>
<path d="M178.319 106.099L159.547 73.2471H203.098C203.544 73.2471 203.956 73.4845 204.18 73.8703L222.434 105.317L178.319 106.099Z" fill="#1C43AE"/>
<path d="M204.18 73.8701L222.434 105.316H234.245C234.807 105.316 235.262 104.861 235.262 104.3C235.262 103.738 234.807 103.283 234.245 103.283H223.06L205.273 72.0025C205.051 71.6113 204.636 71.3696 204.186 71.3696H163.743C163.555 71.3696 163.37 71.4117 163.201 71.4929L159.547 73.2469H203.098C203.544 73.2469 203.956 73.4843 204.18 73.8701Z" fill="#0F2E9A"/>
</svg>
