<svg width="376" height="402" viewBox="0 0 376 402" fill="none" xmlns="http://www.w3.org/2000/svg">
<path d="M100.962 38.6332C103.978 31.7409 97.0325 22.1881 96.0652 17.2305C61.8214 8.23425 74.1186 36.094 81.7364 48.7903L91.5307 49.8786L92.0011 44.6348C92.0011 43.168 98.9309 43.2764 100.962 38.6332Z" fill="#F1B09B"/>
<path fill-rule="evenodd" clip-rule="evenodd" d="M96.0299 17.0637C96.1217 17.0458 96.2107 17.1057 96.2286 17.1976C96.4589 18.3777 97.0364 19.8321 97.7462 21.4704C97.9438 21.9264 98.1515 22.3964 98.3642 22.8777C98.9126 24.1186 99.4944 25.435 100.022 26.7825C100.056 26.8697 100.013 26.968 99.9263 27.0021C99.8391 27.0362 99.7408 26.9933 99.7067 26.9061C99.1817 25.5658 98.6046 24.2599 98.0572 23.0213C97.8437 22.5384 97.6348 22.0657 97.4353 21.6051C96.7268 19.9699 96.1344 18.4837 95.8961 17.2624C95.8781 17.1706 95.9381 17.0816 96.0299 17.0637ZM101.308 31.3944C101.4 31.3749 101.49 31.4332 101.509 31.5247C102.04 34.0132 102.084 36.4861 101.115 38.7006C100.4 40.3351 99.0974 41.391 97.7117 42.1307C96.5779 42.7359 95.3742 43.1359 94.38 43.4664C94.1622 43.5388 93.9546 43.6078 93.7598 43.675C93.6714 43.7054 93.5749 43.6585 93.5445 43.57C93.514 43.4815 93.561 43.3851 93.6494 43.3546C93.85 43.2855 94.0619 43.215 94.2824 43.1416C95.2763 42.8111 96.4464 42.422 97.5521 41.8318C98.8995 41.1125 100.131 40.1045 100.804 38.5648C101.734 36.4406 101.701 34.0476 101.178 31.5955C101.158 31.504 101.217 31.414 101.308 31.3944Z" fill="#EC8E65"/>
<path d="M92.0012 44.6348L91.5308 49.8785L88.3414 49.5241C88.0415 49.528 87.7165 49.489 87.3594 49.415L88.3414 49.5241C89.9316 49.5034 90.813 48.2743 92.0012 44.6348Z" fill="#EC8E65"/>
<path d="M105.885 96.2326C105.885 122.807 96.4036 144.349 84.7073 144.349C73.011 144.349 63.5293 122.807 63.5293 96.2326C63.5293 69.6587 73.011 48.1162 84.7073 48.1162C116.559 48.1162 105.885 69.6587 105.885 96.2326Z" fill="#F6BC33"/>
<path d="M105.885 103.517L99.4473 87.7607L104.699 112.158L105.885 103.517Z" fill="#D89B0E"/>
<path d="M152.005 31.2314L151.084 32.6102L166.218 34.6676L162.173 27.3849L161.042 32.6955L152.349 31.0864C152.215 31.0618 152.08 31.1188 152.005 31.2314Z" fill="#F0E898"/>
<path d="M149.692 32.2995L148.057 35.4009L165.511 34.3031L150.039 32.122C149.898 32.102 149.759 32.1731 149.692 32.2995Z" fill="#D5482A"/>
<path d="M138.315 58.3774L148.239 35.0456L165.487 34.1936L154.516 59.9047L140.048 60.8456C138.729 60.9289 137.617 59.6431 138.315 58.3774Z" fill="#EC6C47"/>
<path d="M154.43 60.0276L139.962 60.9684C138.644 61.0517 137.703 59.712 138.229 58.5003C138.418 59.2073 140.262 60.2099 146.124 58.564C153.451 56.5067 153.262 56.6025 156.137 50.6044C158.437 45.8059 162.208 40.2396 163.806 38.0562L154.43 60.0276Z" fill="#EC8E67"/>
<path d="M165.485 34.1946L154.513 59.9057C155.388 60.5457 156.631 60.2056 157.058 59.2095L167.9 33.9196L165.485 34.1946Z" fill="#B83013"/>
<path d="M167.9 33.9193L162.868 27.3568C162.596 27.0017 162.061 27.0033 161.79 27.3599L160.577 28.9616L165.486 34.1943L167.9 33.9193Z" fill="#D5482A"/>
<path d="M167.9 33.9193L162.868 27.3568C162.596 27.0017 162.061 27.0033 161.79 27.3599L160.577 28.9616C161.036 28.7611 162.103 28.3891 162.21 28.5547C162.318 28.7203 167.9 33.9193 167.9 33.9193Z" fill="#EC6C47"/>
<path d="M157.009 70.9183L141.229 62.9381L122.184 87.7858C118.98 78.8982 111.085 58.9834 105.135 53.3251C97.89 46.4347 82.9786 48.5714 90.8685 69.1063C93.4154 76.3207 97.1653 85.8795 100.419 94.6774C110.214 121.16 130.709 112.635 136.15 108.282C147.033 99.5756 157.009 70.9183 157.009 70.9183Z" fill="#F6BC33"/>
<path d="M141.228 62.9369C148.846 69.104 155.013 72.5496 157.008 70.9174C159.003 69.2852 144.781 63.8594 141.228 62.9369Z" fill="#D89B0E"/>
<path d="M144.128 50.2422C142.133 52.4188 145.761 54.6311 145.761 58.7669C145.761 59.634 144.136 63.0133 143.766 64.2082C146.151 65.7197 151.248 69.1053 154.694 69.1053C155.555 67.9748 156.615 66.8041 157.913 65.6238C165.394 58.823 164.992 52.9982 164.63 47.763L164.624 47.6675C164.261 42.4076 162.629 43.4958 159.001 49.1185C155.585 54.4139 151.202 56.2743 150.114 55.285C148.119 53.4712 146.123 48.0657 144.128 50.2422Z" fill="#F1B09B"/>
<path d="M154.696 69.105C151.25 69.105 146.153 65.7193 143.768 64.2078C143.92 63.7153 144.312 62.7568 144.312 62.7568C144.312 62.7568 153.38 68.2546 155.376 68.2546C155.136 68.5402 154.91 68.8239 154.696 69.105Z" fill="#EFF0EA"/>
<path fill-rule="evenodd" clip-rule="evenodd" d="M164.618 47.5832C164.665 47.58 164.705 47.6152 164.708 47.6619C164.711 47.6954 164.713 47.7289 164.715 47.7625C164.938 50.9917 165.178 54.4655 163.56 58.2562C163.542 58.2992 163.492 58.3192 163.449 58.3009C163.406 58.2825 163.386 58.2327 163.405 58.1897C165.006 54.4367 164.769 50.998 164.546 47.7639L164.539 47.6736C164.536 47.6269 164.571 47.5864 164.618 47.5832ZM161.293 61.9643C161.331 61.9925 161.338 62.0457 161.31 62.083C160.423 63.2547 159.325 64.4551 157.97 65.6867C156.675 66.8637 155.619 68.0306 154.761 69.1569C154.733 69.1941 154.68 69.2013 154.643 69.173C154.606 69.1446 154.598 69.0915 154.627 69.0542C155.491 67.9194 156.554 66.745 157.856 65.5613C159.204 64.336 160.294 63.1431 161.175 61.9807C161.203 61.9434 161.256 61.9361 161.293 61.9643Z" fill="#3F487F"/>
<path fill-rule="evenodd" clip-rule="evenodd" d="M141.332 62.9855C141.406 63.0427 141.42 63.1491 141.363 63.2232L122.318 87.8909C122.28 87.9399 122.219 87.9643 122.158 87.9548C122.097 87.9452 122.046 87.903 122.025 87.8448C120.333 83.153 117.334 75.3868 114.004 68.2712C113.965 68.1865 114.001 68.0856 114.086 68.046C114.171 68.0063 114.272 68.0429 114.311 68.1276C117.579 75.1108 120.528 82.7164 122.239 87.4396L141.095 63.0161C141.152 62.942 141.258 62.9283 141.332 62.9855Z" fill="#D89B0E"/>
<path fill-rule="evenodd" clip-rule="evenodd" d="M157.064 70.7575C157.152 70.7883 157.199 70.8848 157.168 70.9732L157.008 70.9175L156.848 70.8618C156.879 70.7734 156.976 70.7267 157.064 70.7575ZM157.008 70.9175C156.848 70.8618 156.848 70.8616 156.848 70.8618L156.841 70.8823L156.819 70.9437C156.8 70.9979 156.772 71.0787 156.734 71.1845C156.658 71.3961 156.546 71.7077 156.399 72.1075C156.106 72.9071 155.674 74.0594 155.122 75.4695C154.017 78.2898 152.432 82.1406 150.506 86.2628C148.581 90.3853 146.317 94.7768 143.857 98.6797C141.395 102.585 138.743 105.99 136.044 108.149C135.971 108.207 135.959 108.314 136.018 108.387C136.076 108.46 136.183 108.472 136.256 108.413C138.998 106.219 141.674 102.777 144.143 98.8604C146.614 94.9414 148.885 90.5361 150.814 86.4061C152.743 82.2757 154.331 78.418 155.437 75.593C155.99 74.1805 156.423 73.0259 156.717 72.2243C156.865 71.8235 156.977 71.5109 157.053 71.2985C157.091 71.1922 157.12 71.111 157.139 71.0563L157.161 70.9943L157.168 70.9736C157.168 70.9733 157.168 70.9732 157.008 70.9175Z" fill="#D89B0E"/>
<path d="M80.2097 69.3009C74.0433 72.0215 76.9445 81.2717 66.6061 83.811C65.7908 84.0112 64.9771 84.1798 64.168 84.3155L84.1999 48.2588C89.0973 53.5162 86.3761 66.5802 80.2097 69.3009Z" fill="#3E4885"/>
<path d="M84.2005 48.2591C86.9573 39.1188 83.0044 33.011 81.1904 31.1971C81.1904 31.1971 78.2884 30.2902 78.2884 27.3882C78.2884 22.4547 84.2738 21.2214 86.6317 25.4035C87.5388 27.0123 89.5611 27.3754 90.7297 27.0406C94.052 26.0886 96.4623 25.1015 98.4214 23.9421L98.0586 23.0352L90.4408 25.756C89.1106 23.519 85.3982 19.4441 81.1904 21.0402C75.9307 23.0353 70.5237 38.84 84.2005 48.2591Z" fill="#EC8E65"/>
<path d="M81.6577 8.05764C97.9957 2.03686 102.574 13.2364 102.762 18.6438C98.6855 1.82337 81.9383 7.95492 81.6593 8.05705L81.6577 8.05764Z" fill="#3052A9"/>
<path d="M102.894 16.7317C102.178 11.3687 93.6358 0.826475 79.0143 7.86081C79.212 7.76568 97.1813 0.353658 102.894 16.7317Z" fill="#3052A9"/>
<path d="M83.8377 47.8955C86.5945 38.7553 82.6416 32.6475 80.8276 30.8335C80.8276 30.8335 77.9256 29.9267 77.9256 27.0246C77.9256 22.0912 83.911 20.8579 86.2689 25.0399C87.176 26.6487 89.1983 27.0119 90.3669 26.677C115.108 19.5878 99.328 5.07832 83.5483 7.97881C66.529 11.1072 62.4123 50.2559 53.9103 50.2559C48.1063 50.2559 38.2044 63.4814 42.0133 73.457C45.8222 83.4327 55.9055 85.987 66.2439 83.4477C76.5823 80.9084 73.681 71.6583 79.8475 68.9376C86.0139 66.217 88.7351 53.153 83.8377 47.8955Z" fill="#05185A"/>
<path d="M54.3567 79.6815C59.5304 81.2651 72.6731 77.8909 72.3696 61.6681C72.3737 61.8875 71.6259 81.3111 54.3567 79.6815Z" fill="#312E63"/>
<path d="M52.3589 77.4377C56.7864 79.3411 68.7502 77.627 70.0533 63.2334C70.0357 63.4281 67.4916 80.5538 52.3589 77.4377Z" fill="#312E63"/>
<path d="M50.0229 76.4221C53.9943 78.1294 64.7257 76.5918 65.8945 63.6811C65.8787 63.8557 63.5967 79.2172 50.0229 76.4221Z" fill="#312E63"/>
<path d="M76.8369 68.3789C86.0871 63.3003 83.971 51.8132 82.2782 48.6089C85.1802 61.0875 79.618 66.6256 76.1114 68.0161C70.5976 82.236 61.1177 83.3726 57.4297 81.9821C68.4573 86.19 74.0558 75.5734 76.8369 68.3789Z" fill="#312E63"/>
<path d="M75.7514 67.2904C84.1672 61.0511 82.5228 52.3571 80.6485 48.79C84.131 59.3824 78.7141 64.993 75.3888 66.7463C69.2946 79.6602 61.1204 82.1027 57.9766 81.4377C66.1387 83.1643 73.2123 73.2758 75.7514 67.2904Z" fill="#312E63"/>
<path d="M78.2683 369.854L78.0547 331.734L103.004 333.089C103.004 342.069 104.937 354.941 104.937 354.941L78.2683 369.854Z" fill="#F26AAA"/>
<path d="M78.0547 331.735L103.343 333.599V339.19L78.0547 341.053V331.735Z" fill="#3F4785"/>
<path d="M101.943 348.164C89.6678 345.65 94.673 361.873 78.1072 353.335L78.1073 374.737C78.1073 376.618 79.6197 378.139 81.5009 378.126C92.1936 378.047 124.848 377.812 131.137 377.812C157.344 377.812 121.809 352.234 101.943 348.164Z" fill="#355FB3"/>
<path d="M81.4997 378.125C92.1924 378.047 124.847 377.812 131.136 377.812C138.272 377.812 140.83 375.915 140.373 373.073C131.153 367.996 101.942 373.073 100.122 371.04C92.9384 360.875 82.4515 361.609 78.106 363.246L78.1061 374.737C78.1061 376.618 79.6184 378.139 81.4997 378.125Z" fill="white"/>
<path fill-rule="evenodd" clip-rule="evenodd" d="M136.723 377.237C136.698 377.147 136.751 377.054 136.841 377.029C138.21 376.644 139.12 376.098 139.652 375.438C140.179 374.783 140.35 373.998 140.206 373.099C140.191 373.007 140.254 372.92 140.346 372.905C140.438 372.89 140.525 372.953 140.54 373.046C140.697 374.023 140.513 374.909 139.916 375.65C139.323 376.386 138.339 376.96 136.932 377.355C136.842 377.38 136.749 377.328 136.723 377.237Z" fill="#260500"/>
<path fill-rule="evenodd" clip-rule="evenodd" d="M103.873 349.366C106.91 347.413 108.567 345.113 109.33 343.22C109.732 342.226 109.883 341.352 109.865 340.703C109.856 340.378 109.805 340.122 109.731 339.939C109.657 339.753 109.571 339.67 109.509 339.638C108.914 339.331 108.255 339.456 107.548 339.986C106.836 340.519 106.133 341.43 105.53 342.552C104.417 344.625 103.707 347.301 103.873 349.366ZM107.141 339.444C107.967 338.825 108.909 338.566 109.82 339.036C110.075 339.168 110.249 339.411 110.36 339.686C110.472 339.964 110.532 340.305 110.542 340.684C110.563 341.445 110.387 342.412 109.959 343.474C109.1 345.603 107.216 348.144 103.775 350.225C103.679 350.283 103.56 350.29 103.458 350.242C103.356 350.195 103.284 350.1 103.266 349.989C102.888 347.675 103.682 344.561 104.933 342.231C105.56 341.064 106.32 340.059 107.141 339.444Z" fill="#3F4785"/>
<path fill-rule="evenodd" clip-rule="evenodd" d="M104.315 350.092C108.843 351.656 112.597 351.348 115.183 350.401C116.522 349.91 117.542 349.249 118.196 348.595C118.868 347.923 119.092 347.326 119.023 346.947C118.863 346.067 118.296 345.363 117.403 344.911C116.504 344.455 115.276 344.258 113.839 344.426C111.059 344.751 107.551 346.434 104.315 350.092ZM117.709 344.306C118.761 344.839 119.486 345.706 119.69 346.825C119.82 347.542 119.393 348.356 118.675 349.074C117.939 349.81 116.83 350.518 115.416 351.037C112.582 352.076 108.494 352.364 103.617 350.562C103.514 350.524 103.435 350.437 103.407 350.33C103.379 350.223 103.405 350.109 103.476 350.025C106.889 346.004 110.687 344.112 113.76 343.753C115.295 343.574 116.664 343.776 117.709 344.306Z" fill="#3F4785"/>
<path fill-rule="evenodd" clip-rule="evenodd" d="M78.1064 374.567C78.2 374.567 78.2758 374.643 78.2758 374.737C78.2758 376.525 79.7129 377.969 81.4987 377.956C92.1909 377.878 124.846 377.643 131.136 377.643C131.23 377.643 131.306 377.719 131.306 377.812C131.306 377.906 131.23 377.982 131.136 377.982C124.848 377.982 92.1945 378.217 81.5012 378.295C79.5247 378.31 77.937 376.711 77.937 374.737C77.937 374.643 78.0128 374.567 78.1064 374.567Z" fill="#260500"/>
<path d="M76.2351 338.172H122.399C122.617 338.172 122.796 338.045 122.754 337.831C120.374 325.608 113.219 190.938 101.649 125.21L67.9334 125.037C36.7594 148.413 66.0696 185.864 69.2886 221.951C71.4704 246.41 76.9128 309.483 76.2351 338.172Z" fill="#355EBA"/>
<path d="M67.9334 125.037C36.7594 148.413 66.0696 185.864 69.2886 221.951C69.648 225.98 70.0959 231.058 70.5904 236.856L110.75 196.697C108.109 170.138 105.072 144.656 101.649 125.21L67.9334 125.037Z" fill="#48ACFA"/>
<path fill-rule="evenodd" clip-rule="evenodd" d="M115.177 250.581C115.363 250.566 115.527 250.704 115.542 250.891C116.754 265.773 117.84 279.864 118.791 292.214C119.263 298.341 119.702 304.039 120.107 309.193C120.718 316.964 121.252 323.497 121.706 328.396C122.161 333.308 122.534 336.547 122.819 337.755C122.862 337.937 122.749 338.12 122.567 338.163C122.385 338.206 122.203 338.093 122.16 337.911C121.861 336.645 121.484 333.349 121.031 328.459C120.576 323.555 120.042 317.018 119.431 309.246C119.026 304.09 118.587 298.391 118.115 292.263C117.164 279.915 116.079 265.827 114.866 250.946C114.851 250.759 114.99 250.596 115.177 250.581Z" fill="#3F487F"/>
<path d="M76.2363 338.172H84.8769C94.7035 316.655 110.291 277.179 115.712 251.088C115.616 250.075 115.301 247.364 115.204 246.344L76.2363 338.172Z" fill="#3F4785"/>
<path d="M71.4903 220.425C56.8521 258.511 32.184 286.444 21.6797 295.649L55.0562 365.283C71.8856 347.832 107.747 297.954 116.557 238.045C121.809 191.454 113.508 146.044 101.648 125.205C101.648 125.205 75.0482 124.701 74.7094 125.378C66.9159 167.057 76.9119 175.528 77.4202 180.78C77.9284 186.032 76.4036 208.735 71.4903 220.425Z" fill="#48ACFA"/>
<path fill-rule="evenodd" clip-rule="evenodd" d="M71.6148 220.109C71.7895 220.176 71.8767 220.372 71.8095 220.546C57.1489 258.691 32.4457 286.668 21.9059 295.904C21.7652 296.027 21.5511 296.013 21.4278 295.872C21.3044 295.732 21.3185 295.518 21.4593 295.394C31.9281 286.22 56.5611 258.332 71.1769 220.303C71.2441 220.129 71.4401 220.041 71.6148 220.109Z" fill="#3F487F"/>
<path fill-rule="evenodd" clip-rule="evenodd" d="M73.0487 136.242C73.2229 136.31 73.3088 136.507 73.2404 136.681C69.2566 146.838 70.366 156.499 72.4848 164.297C73.4956 168.017 74.7341 171.306 75.758 174.025C75.8076 174.157 75.8567 174.287 75.9052 174.416C76.4294 175.81 76.8913 177.052 77.2218 178.11C77.5502 179.163 77.7602 180.068 77.7602 180.779C77.7602 183.431 77.5053 190.432 76.6357 198.235C75.767 206.029 74.2808 214.663 71.8039 220.556C71.7314 220.728 71.5328 220.81 71.3602 220.737C71.1877 220.665 71.1066 220.466 71.1791 220.293C73.6156 214.496 75.0943 205.946 75.9622 198.159C76.8291 190.381 77.0825 183.405 77.0825 180.779C77.0825 180.178 76.9007 179.356 76.5749 178.312C76.2512 177.275 75.7964 176.052 75.2709 174.655C75.2218 174.525 75.1721 174.393 75.1219 174.259C74.0989 171.542 72.8503 168.226 71.8309 164.474C69.6913 156.6 68.5525 146.777 72.6095 136.433C72.6779 136.259 72.8745 136.173 73.0487 136.242Z" fill="#3F487F"/>
<path d="M21.6797 295.65C42.5191 300.051 63.8664 365.622 54.2091 365.622C26.2771 365.622 24.8987 318.861 21.6797 295.65Z" fill="#260500"/>
<path d="M40.1455 313.267C40.1455 313.267 29.8106 295.985 21.5088 295.646L8.96484 306.49L28.9646 330.04C33.4067 320.06 35.8531 318.408 40.1455 313.267Z" fill="#F26AAA"/>
<path d="M40.1458 313.267C40.1458 313.267 29.811 295.985 21.5092 295.646L19.9844 296.965C24.3977 299.292 34.2891 306.185 38.5487 315.13C39.0552 314.551 39.5848 313.939 40.1458 313.267Z" fill="#3F4785"/>
<path d="M33.8806 320.551C30.4922 308.489 17.7854 317.502 17.7854 298.865L1.442 311.971C0.450232 312.766 -0.0151808 314.04 0.241403 315.285C3.61334 331.647 10.1542 362.457 12.3638 369.346C14.2223 375.14 20.2418 381.569 22.8681 380.621C31.2715 380.561 33.7112 340.55 33.8806 320.551Z" fill="#355FB3"/>
<path d="M0.241403 315.285C3.61334 331.648 10.1542 362.457 12.3638 369.346C14.2223 375.14 20.2418 381.569 22.8681 380.622C18.1242 370.211 11.1778 344.949 12.3638 336.817C15.7523 319.874 12.985 307.989 11.1778 304.164L1.442 311.971C0.450232 312.766 -0.0151808 314.04 0.241403 315.285Z" fill="white"/>
<path fill-rule="evenodd" clip-rule="evenodd" d="M11.3075 304.058C11.366 304.131 11.3543 304.237 11.2813 304.296L3.31839 310.681C3.24539 310.74 3.13876 310.728 3.08022 310.655C3.02169 310.582 3.03341 310.475 3.10641 310.417L11.0693 304.031C11.1423 303.973 11.249 303.985 11.3075 304.058Z" fill="#260500"/>
<path fill-rule="evenodd" clip-rule="evenodd" d="M1.57174 311.865C1.63027 311.938 1.61855 312.045 1.54555 312.103C0.602902 312.859 0.161292 314.069 0.404901 315.251C1.33901 319.784 2.51634 325.426 3.7774 331.36C3.79685 331.452 3.73842 331.542 3.64689 331.561C3.55537 331.581 3.4654 331.522 3.44596 331.431C2.18474 325.495 1.00727 319.853 0.0730266 315.319C-0.196532 314.011 0.292683 312.674 1.33357 311.839C1.40657 311.78 1.5132 311.792 1.57174 311.865ZM8.11447 352.069C8.20576 352.049 8.29642 352.106 8.31698 352.197C10.0905 360.073 11.6484 366.569 12.5227 369.294C12.8796 370.407 13.3926 371.546 14.0076 372.653C14.0531 372.734 14.0237 372.837 13.9419 372.883C13.8601 372.928 13.7569 372.899 13.7115 372.817C13.0877 371.695 12.565 370.535 12.2 369.398C11.3201 366.654 9.75878 360.142 7.98641 352.272C7.96585 352.18 8.02319 352.09 8.11447 352.069ZM18.6706 378.822C18.7314 378.751 18.8383 378.742 18.9095 378.803C19.6867 379.466 20.4384 379.968 21.1127 380.259C21.7905 380.552 22.366 380.622 22.8082 380.462C22.8962 380.431 22.9933 380.476 23.025 380.564C23.0568 380.652 23.0112 380.749 22.9232 380.781C22.3638 380.983 21.691 380.878 20.9784 380.57C20.2624 380.261 19.4818 379.737 18.6895 379.061C18.6183 379 18.6099 378.893 18.6706 378.822Z" fill="#260500"/>
<path fill-rule="evenodd" clip-rule="evenodd" d="M33.6651 321.185C36.7921 322.99 39.5954 323.41 41.6277 323.221C42.6956 323.122 43.5419 322.856 44.1103 322.543C44.395 322.386 44.5993 322.223 44.7284 322.074C44.8594 321.922 44.8938 321.808 44.8938 321.739C44.8938 321.069 44.481 320.54 43.6862 320.155C42.886 319.767 41.7543 319.559 40.4806 319.537C38.128 319.497 35.4242 320.092 33.6651 321.185ZM43.9819 319.545C44.9105 319.995 45.5715 320.714 45.5715 321.739C45.5715 322.027 45.4352 322.292 45.2411 322.517C45.0451 322.744 44.77 322.953 44.4372 323.136C43.7708 323.503 42.8302 323.79 41.6904 323.896C39.405 324.108 36.2826 323.597 32.8568 321.492C32.7609 321.433 32.7005 321.331 32.6956 321.218C32.6908 321.106 32.742 320.998 32.8324 320.931C34.7164 319.535 37.8484 318.814 40.4922 318.859C41.8172 318.882 43.0586 319.097 43.9819 319.545Z" fill="#3F4785"/>
<path fill-rule="evenodd" clip-rule="evenodd" d="M33.2201 321.908C33.9046 326.65 35.8975 329.846 37.9247 331.71C38.9749 332.676 40.0287 333.279 40.9097 333.561C41.8146 333.85 42.4486 333.776 42.7542 333.541C43.4623 332.996 43.8287 332.169 43.8218 331.168C43.8148 330.161 43.4271 328.979 42.6193 327.778C41.0577 325.456 37.9545 323.109 33.2201 321.908ZM44.4995 331.164C44.5077 332.342 44.0691 333.384 43.1675 334.078C42.5901 334.523 41.6707 334.516 40.7033 334.207C39.7121 333.89 38.5746 333.228 37.466 332.209C35.2442 330.166 33.1153 326.664 32.4824 321.504C32.469 321.394 32.5099 321.284 32.5922 321.21C32.6744 321.136 32.7876 321.107 32.8953 321.132C38.0333 322.324 41.4548 324.832 43.1816 327.4C44.044 328.682 44.4914 329.991 44.4995 331.164Z" fill="#3F4785"/>
<path d="M291.663 266.404C290.184 240.436 289.628 225.88 291.663 199.912L237.244 189.305C229.748 182.157 337.689 180.338 350.774 180.144C351.617 180.131 352.411 179.808 353.008 179.212C361.286 170.938 363.06 161.919 356.554 133.822C307.18 133.822 247.429 137.622 227.846 145.169C216.69 149.468 155.474 162.64 206.165 217.158C224.386 236.755 264.396 254.837 291.663 266.404Z" fill="#0B1F83"/>
<path d="M291.667 199.912C292.973 225.11 293.307 239.982 291.667 266.404C275.423 263.889 283.843 197.583 291.667 199.912Z" fill="#42447C"/>
<path d="M322.31 205.309L291.62 200.009L287.87 224.516L302.234 231.091L322.31 205.309Z" fill="#FEFEFE"/>
<path fill-rule="evenodd" clip-rule="evenodd" d="M287.678 224.427C287.63 224.533 287.677 224.658 287.782 224.706L302.146 231.282C302.252 231.33 302.377 231.283 302.425 231.178C302.474 231.072 302.427 230.947 302.322 230.899L287.957 224.323C287.852 224.275 287.727 224.321 287.678 224.427ZM293.477 200.495C293.458 200.61 293.535 200.718 293.65 200.738L322.276 205.515C322.391 205.535 322.499 205.457 322.518 205.342C322.537 205.228 322.46 205.119 322.345 205.1L293.719 200.322C293.605 200.303 293.496 200.381 293.477 200.495Z" fill="#444779"/>
<path d="M291.633 199.898L287.87 224.514L292.894 226.631L293.947 200.319L291.633 199.898Z" fill="#444779"/>
<path d="M295.552 226.829C294.878 213.446 311.219 221.36 304.871 202.467L326.913 205.837C329.223 206.191 330.806 208.342 330.436 210.65C328.535 222.502 323.175 255.948 322.175 262.484C317.939 290.189 296.642 248.489 295.552 226.829Z" fill="#355CB7"/>
<path d="M330.534 210.062C328.722 221.353 323.195 255.836 322.178 262.485C321.025 270.029 318.606 272.426 315.675 271.484C311.798 260.916 321.888 230.856 320.033 228.603C310.448 219.366 312.919 208.399 315.353 204.07L327.5 205.927C329.488 206.231 330.852 208.076 330.534 210.062Z" fill="#EEEFE9"/>
<path fill-rule="evenodd" clip-rule="evenodd" d="M315.145 204.038C315.127 204.153 315.206 204.261 315.321 204.278L318.768 204.805C318.883 204.823 318.99 204.744 319.008 204.629C319.025 204.514 318.946 204.407 318.832 204.389L315.385 203.862C315.27 203.844 315.163 203.923 315.145 204.038ZM324.033 205.397C324.015 205.512 324.094 205.62 324.209 205.637L327.468 206.136C329.343 206.422 330.626 208.16 330.326 210.03C330.308 210.144 330.386 210.252 330.5 210.271C330.615 210.289 330.723 210.211 330.742 210.096C331.079 207.993 329.634 206.041 327.532 205.719L324.273 205.221C324.158 205.204 324.05 205.282 324.033 205.397ZM329.922 213.876C329.807 213.858 329.699 213.936 329.681 214.051C329.386 215.892 329.049 217.992 328.685 220.263C328.667 220.377 328.745 220.485 328.86 220.504C328.975 220.522 329.083 220.444 329.101 220.329C329.465 218.058 329.802 215.959 330.097 214.118C330.115 214.003 330.037 213.895 329.922 213.876ZM328.206 224.592C328.091 224.573 327.984 224.652 327.965 224.766L325.233 241.85C323.739 251.208 322.418 259.526 321.971 262.453C321.953 262.568 322.032 262.676 322.147 262.693C322.262 262.711 322.369 262.632 322.387 262.517C322.834 259.592 324.155 251.275 325.649 241.916L328.381 224.833C328.399 224.718 328.321 224.61 328.206 224.592Z" fill="#345267"/>
<path fill-rule="evenodd" clip-rule="evenodd" d="M320.681 268.274C320.575 268.226 320.45 268.273 320.402 268.379C319.776 269.761 319.055 270.629 318.278 271.08C317.509 271.527 316.661 271.581 315.74 271.285C315.63 271.25 315.511 271.311 315.476 271.421C315.44 271.532 315.501 271.651 315.612 271.686C316.626 272.012 317.601 271.961 318.489 271.444C319.37 270.932 320.14 269.979 320.786 268.553C320.834 268.447 320.787 268.322 320.681 268.274Z" fill="#345267"/>
<path fill-rule="evenodd" clip-rule="evenodd" d="M296.404 229.1C293.875 231.936 291.215 233.29 289.121 233.784C288.011 234.046 287.071 234.064 286.397 233.942C286.06 233.88 285.804 233.787 285.63 233.684C285.453 233.579 285.392 233.485 285.374 233.432C285.156 232.783 285.379 232.128 286.044 231.476C286.715 230.818 287.783 230.226 289.062 229.771C291.392 228.944 294.272 228.626 296.404 229.1ZM285.455 230.875C284.658 231.657 284.217 232.633 284.576 233.701C284.68 234.01 284.921 234.243 285.202 234.409C285.485 234.576 285.843 234.697 286.247 234.77C287.057 234.917 288.117 234.886 289.314 234.604C291.717 234.037 294.719 232.449 297.482 229.139C297.572 229.031 297.602 228.887 297.564 228.752C297.525 228.618 297.422 228.512 297.289 228.468C294.887 227.69 291.452 228.029 288.78 228.978C287.441 229.453 286.247 230.098 285.455 230.875Z" fill="#FEFEFE"/>
<path fill-rule="evenodd" clip-rule="evenodd" d="M297.165 229.745C298.058 234.73 297.131 238.605 295.726 241.158C294.993 242.489 294.136 243.453 293.347 244.033C292.532 244.631 291.886 244.757 291.524 244.632C290.64 244.328 289.999 243.63 289.67 242.628C289.338 241.617 289.327 240.299 289.735 238.815C290.518 235.962 292.832 232.559 297.165 229.745ZM288.87 242.89C289.268 244.103 290.079 245.025 291.25 245.428C292.014 245.692 292.965 245.358 293.845 244.711C294.75 244.046 295.683 242.981 296.463 241.564C298.027 238.723 298.993 234.433 297.875 228.974C297.847 228.84 297.756 228.727 297.63 228.672C297.503 228.618 297.359 228.628 297.242 228.7C292.429 231.665 289.804 235.384 288.923 238.592C288.483 240.194 288.474 241.686 288.87 242.89Z" fill="#FEFEFE"/>
<path d="M279.684 308.554L280.281 277.415L255.489 277.415L251.162 292.609L279.684 308.554Z" fill="#FEFEFE"/>
<path fill-rule="evenodd" clip-rule="evenodd" d="M279.684 276.722C279.568 276.722 279.474 276.816 279.474 276.933L279.474 308.553C279.474 308.67 279.568 308.764 279.684 308.764C279.8 308.764 279.895 308.67 279.895 308.553L279.895 276.933C279.895 276.816 279.8 276.722 279.684 276.722ZM255.546 277.212C255.435 277.18 255.318 277.245 255.286 277.356L250.959 292.55C250.927 292.662 250.992 292.778 251.104 292.81C251.216 292.842 251.332 292.777 251.364 292.665L255.691 277.472C255.723 277.36 255.658 277.244 255.546 277.212Z" fill="#444779"/>
<path d="M279.873 276.321L255.488 277.415L254.351 281.409C254.351 281.409 274.344 284.3 279.873 287.584L279.873 276.321Z" fill="#444779"/>
<path d="M254.363 285.36C267.49 282.67 262.139 300.02 279.854 290.888L279.856 313.185C279.856 315.523 277.97 317.413 275.632 317.396C263.629 317.31 229.757 317.07 223.144 317.071C195.117 317.074 233.117 289.715 254.363 285.36Z" fill="#355CB7"/>
<path d="M276.227 317.4C264.792 317.317 229.87 317.069 223.144 317.07C215.513 317.071 212.777 315.043 213.265 312.003C223.125 306.572 254.365 311.999 256.311 309.824C263.992 298.952 275.207 299.736 279.855 301.487L279.856 313.775C279.856 315.787 278.239 317.414 276.227 317.4Z" fill="#EEEFE9"/>
<path fill-rule="evenodd" clip-rule="evenodd" d="M279.856 301.276C279.74 301.276 279.646 301.371 279.646 301.487L279.646 304.974C279.646 305.09 279.741 305.184 279.857 305.184C279.973 305.184 280.067 305.09 280.067 304.974L280.067 301.487C280.067 301.371 279.973 301.276 279.856 301.276ZM279.857 310.268C279.741 310.268 279.647 310.362 279.647 310.478L279.647 313.775C279.647 315.672 278.124 317.203 276.23 317.189C276.114 317.188 276.019 317.282 276.018 317.398C276.017 317.514 276.111 317.609 276.227 317.61C278.358 317.625 280.068 315.902 280.068 313.775L280.068 310.478C280.068 310.362 279.974 310.268 279.857 310.268ZM272.367 317.372C272.367 317.255 272.274 317.161 272.158 317.16C270.293 317.146 268.167 317.131 265.867 317.115C265.751 317.114 265.656 317.208 265.655 317.324C265.654 317.44 265.748 317.535 265.864 317.536C268.164 317.552 270.29 317.567 272.155 317.581C272.271 317.581 272.366 317.488 272.367 317.372ZM261.515 317.296C261.516 317.18 261.422 317.085 261.306 317.084L244.006 316.967C234.529 316.907 226.107 316.859 223.146 316.859C223.03 316.859 222.935 316.953 222.936 317.07C222.936 317.186 223.03 317.28 223.146 317.28C226.105 317.28 234.526 317.328 244.003 317.388L261.303 317.505C261.419 317.506 261.514 317.412 261.515 317.296Z" fill="#345267"/>
<path fill-rule="evenodd" clip-rule="evenodd" d="M217.196 316.466C217.228 316.354 217.163 316.238 217.051 316.206C215.589 315.797 214.623 315.214 214.059 314.515C213.501 313.822 213.319 312.992 213.473 312.038C213.491 311.923 213.413 311.815 213.298 311.796C213.183 311.778 213.075 311.856 213.057 311.971C212.888 313.023 213.086 313.979 213.731 314.779C214.371 315.572 215.43 316.189 216.937 316.612C217.049 316.643 217.165 316.578 217.196 316.466Z" fill="#6DE277"/>
<path d="M352.21 180.124C370.631 170.094 357.508 136.749 357.508 136.749L299.84 136.676C299.84 136.676 256.267 139.327 241.447 155.646C226.627 171.965 235.244 263.916 229.527 277.991L284.896 279.059C292.905 265.799 282.92 182.29 285.357 181.349C287.793 180.407 351.755 180.842 352.21 180.124Z" fill="#4AABF8"/>
<path fill-rule="evenodd" clip-rule="evenodd" d="M357.707 136.672C357.707 136.672 357.707 136.671 357.511 136.749C357.315 136.826 357.315 136.826 357.315 136.826L357.317 136.831L357.324 136.849C357.33 136.865 357.34 136.888 357.352 136.92C357.376 136.982 357.411 137.076 357.457 137.199C357.548 137.444 357.679 137.806 357.84 138.27C358.162 139.198 358.601 140.536 359.071 142.173C360.012 145.449 361.073 149.918 361.56 154.696C362.537 164.276 361.199 174.991 352.112 179.939L352.314 180.309C361.647 175.227 362.958 164.254 361.979 154.654C361.488 149.842 360.42 145.348 359.476 142.057C359.004 140.412 358.562 139.066 358.238 138.132C358.076 137.665 357.943 137.3 357.851 137.052C357.805 136.928 357.769 136.833 357.745 136.769C357.733 136.737 357.723 136.713 357.717 136.697L357.71 136.678L357.707 136.672ZM285.453 181.535C285.452 181.536 285.447 181.541 285.435 181.545L285.283 181.153C285.19 181.189 285.126 181.261 285.084 181.328C285.04 181.397 285.006 181.48 284.978 181.57C284.922 181.75 284.879 181.992 284.847 182.284C284.782 182.871 284.753 183.701 284.755 184.739C284.758 186.819 284.88 189.761 285.073 193.329C285.268 196.917 285.535 201.145 285.828 205.771C286.117 210.343 286.431 215.303 286.724 220.417C287.312 230.712 287.814 241.644 287.856 251.336C287.898 261.034 287.479 269.471 286.233 274.786L286.643 274.882C287.902 269.514 288.319 261.032 288.277 251.335C288.235 241.631 287.733 230.69 287.144 220.393C286.851 215.271 286.537 210.311 286.248 205.741C285.956 201.119 285.688 196.896 285.494 193.307C285.3 189.739 285.179 186.806 285.176 184.739C285.174 183.704 285.203 182.893 285.265 182.33C285.296 182.048 285.335 181.837 285.38 181.696C285.402 181.625 285.423 181.579 285.439 181.553C285.449 181.539 285.453 181.535 285.453 181.535ZM231.951 254.209C232.051 248.945 232.085 243.133 232.118 237.038L231.697 237.036C231.664 243.131 231.63 248.94 231.53 254.201L231.951 254.209ZM230.933 272.652C231.24 270.33 231.462 267.518 231.625 264.32L231.204 264.298C231.042 267.491 230.82 270.291 230.516 272.597C230.211 274.908 229.823 276.709 229.335 277.912L229.725 278.071C230.234 276.816 230.627 274.971 230.933 272.652Z" fill="#1081B0"/>
<path d="M229.529 277.992C241.107 275.466 280.807 276.519 284.96 279.045C265.945 281.781 234.413 280.181 229.529 277.992Z" fill="#42447C"/>
<path fill-rule="evenodd" clip-rule="evenodd" d="M254.02 285.649C250.834 283.579 249.093 281.154 248.288 279.159C247.861 278.101 247.702 277.174 247.721 276.49C247.73 276.147 247.784 275.88 247.859 275.693C247.936 275.502 248.02 275.427 248.069 275.402C248.678 275.087 249.359 275.209 250.104 275.768C250.856 276.332 251.603 277.297 252.246 278.493C253.416 280.671 254.166 283.47 254.02 285.649ZM250.61 275.094C249.716 274.425 248.684 274.137 247.683 274.653C247.393 274.803 247.199 275.077 247.078 275.379C246.955 275.685 246.89 276.056 246.879 276.467C246.856 277.29 247.047 278.332 247.507 279.474C248.431 281.762 250.455 284.49 254.145 286.721C254.265 286.793 254.412 286.801 254.539 286.743C254.666 286.684 254.756 286.566 254.778 286.428C255.185 283.936 254.33 280.592 252.988 278.095C252.315 276.842 251.497 275.76 250.61 275.094Z" fill="#444779"/>
<path fill-rule="evenodd" clip-rule="evenodd" d="M253.5 286.503C248.707 288.139 244.736 287.809 242 286.806C240.573 286.284 239.491 285.582 238.799 284.89C238.084 284.175 237.861 283.555 237.93 283.178C238.097 282.259 238.69 281.52 239.631 281.043C240.58 280.562 241.881 280.352 243.41 280.53C246.348 280.873 250.062 282.646 253.5 286.503ZM239.25 280.291C238.112 280.868 237.323 281.81 237.101 283.028C236.957 283.824 237.431 284.713 238.203 285.485C238.997 286.279 240.191 287.04 241.71 287.597C244.755 288.713 249.141 289.019 254.368 287.088C254.497 287.04 254.595 286.933 254.63 286.8C254.665 286.667 254.632 286.525 254.543 286.421C250.885 282.111 246.811 280.079 243.507 279.694C241.857 279.501 240.381 279.718 239.25 280.291Z" fill="#444779"/>
<path d="M300.963 54.1552C311.095 40.561 323.327 58.6322 320.756 64.9361C319.567 67.8496 309.03 89.9963 307.785 95.0872C306.736 99.3743 312.378 138.522 312.378 138.522L293.493 140.1C293.493 140.1 284.27 115.02 287.957 92.7426C290.097 79.8182 296.56 60.0628 300.963 54.1552Z" fill="#EC6C47"/>
<path d="M348.076 52.4428C338.187 40.6086 315.671 38.7989 302.666 52.4426C294.875 60.6169 304.374 90.7589 293.499 140.496L357.523 136.747C350.638 100.286 355.638 61.4924 348.076 52.4428Z" fill="#EC6C47"/>
<path fill-rule="evenodd" clip-rule="evenodd" d="M299.239 83.4917C299.123 83.4915 299.028 83.5855 299.028 83.7018C299.007 94.349 298.66 107.41 296.48 122.76C296.463 122.875 296.543 122.981 296.658 122.998C296.774 123.014 296.88 122.934 296.897 122.819C299.081 107.442 299.428 94.3593 299.449 83.7026C299.449 83.5864 299.355 83.4919 299.239 83.4917Z" fill="#D5482A"/>
<path d="M303.089 139.642L291.149 123.866C291.149 123.866 336.2 120.62 336.771 118.963C337.264 117.534 329.784 62.7008 329.784 55.7031C329.784 44.7449 340.539 45.9579 343.261 47.9324C360.435 60.3903 366.506 120.479 359.794 131.754C349.963 148.271 303.089 139.642 303.089 139.642Z" fill="#EC6C47"/>
<path fill-rule="evenodd" clip-rule="evenodd" d="M332.635 82.651C332.519 82.665 332.437 82.7699 332.451 82.8853C332.827 85.98 333.213 89.1265 333.59 92.2069C334.242 97.5214 334.869 102.639 335.38 106.953C335.783 110.36 336.114 113.265 336.325 115.369C336.431 116.421 336.507 117.27 336.548 117.882C336.569 118.188 336.58 118.432 336.582 118.61C336.583 118.699 336.582 118.77 336.578 118.822C336.577 118.852 336.574 118.872 336.572 118.883C336.572 118.883 336.572 118.884 336.572 118.884C336.558 118.896 336.532 118.915 336.489 118.937C336.404 118.983 336.275 119.035 336.099 119.091C335.75 119.202 335.246 119.32 334.606 119.443C333.326 119.689 331.525 119.951 329.374 120.219C325.074 120.756 319.392 121.317 313.725 121.827C308.059 122.336 302.411 122.793 298.179 123.123C296.063 123.288 294.301 123.422 293.069 123.514C292.452 123.56 291.968 123.595 291.638 123.62C291.473 123.632 291.346 123.641 291.261 123.647L291.134 123.656L291.133 123.656C291.132 123.656 291.132 123.656 291.147 123.866C291.162 124.076 291.163 124.076 291.163 124.076L291.419 124.058C291.489 124.053 291.572 124.046 291.669 124.039C291.999 124.015 292.483 123.98 293.1 123.934C294.333 123.842 296.095 123.708 298.212 123.543C302.445 123.213 308.095 122.755 313.763 122.246C319.431 121.736 325.119 121.175 329.426 120.637C331.579 120.368 333.392 120.105 334.685 119.856C335.331 119.732 335.854 119.61 336.227 119.492C336.413 119.433 336.57 119.372 336.688 119.308C336.747 119.276 336.803 119.241 336.85 119.2C336.895 119.16 336.943 119.105 336.969 119.032C336.987 118.977 336.995 118.909 336.999 118.849C337.003 118.782 337.004 118.7 337.003 118.605C337.001 118.415 336.989 118.163 336.968 117.854C336.927 117.235 336.85 116.38 336.744 115.326C336.532 113.219 336.201 110.311 335.798 106.904C335.287 102.589 334.66 97.4694 334.008 92.1542C333.63 89.074 333.245 85.928 332.869 82.8346C332.855 82.7191 332.75 82.637 332.635 82.651ZM291.147 123.866L291.162 124.076C291.046 124.085 290.946 123.997 290.937 123.881C290.929 123.766 291.016 123.665 291.132 123.656L291.147 123.866ZM360.165 88.3357C360.051 88.355 359.973 88.4635 359.993 88.5782C361.549 97.851 362.312 107.187 362.254 114.927C362.225 118.798 361.99 122.266 361.548 125.126C361.105 127.992 360.457 130.227 359.612 131.647C357.196 135.705 352.488 138.243 346.732 139.751C340.98 141.258 334.22 141.728 327.755 141.682C321.292 141.635 315.134 141.074 310.59 140.524C308.319 140.248 306.452 139.976 305.153 139.773C304.504 139.671 303.997 139.587 303.652 139.528C303.479 139.498 303.348 139.475 303.259 139.459C303.215 139.451 303.181 139.445 303.159 139.441L303.134 139.437L303.128 139.436L303.126 139.435C303.126 139.435 303.126 139.435 303.087 139.642C303.049 139.849 303.05 139.849 303.05 139.849L303.058 139.851L303.084 139.856C303.107 139.86 303.141 139.866 303.185 139.874C303.275 139.89 303.407 139.913 303.581 139.943C303.927 140.002 304.437 140.087 305.088 140.189C306.391 140.393 308.263 140.666 310.54 140.941C315.093 141.493 321.268 142.056 327.752 142.103C334.234 142.149 341.036 141.679 346.838 140.158C352.636 138.639 357.474 136.062 359.974 131.862C360.861 130.372 361.519 128.072 361.964 125.19C362.41 122.304 362.645 118.814 362.675 114.93C362.733 107.162 361.968 97.8024 360.408 88.5085C360.389 88.3938 360.28 88.3165 360.165 88.3357ZM302.88 139.604C302.859 139.719 302.935 139.828 303.049 139.849L303.087 139.642L303.126 139.435C303.011 139.414 302.902 139.49 302.88 139.604Z" fill="#D5482A"/>
<path d="M291.149 123.867C295.448 126.62 302.83 134.654 303.088 139.643C299.542 138.182 293.213 131.958 291.149 123.867Z" fill="#3E4981"/>
<path d="M274.734 126.548C278.875 123.411 293.495 125.785 293.495 125.785C296.693 128.343 301.383 133.674 302.662 137.511C302.662 137.511 295.84 135.379 289.018 138.15C286.396 139.215 288.202 136.194 289.018 135.379C291.789 132.607 262.797 135.592 274.734 126.548Z" fill="#F1B09B"/>
<path d="M329.801 15.0237C326.306 13.232 319.259 8.41952 319.025 3.5034C319.807 5.73479 323.055 11.1628 329.801 15.0237Z" fill="#444779"/>
<path d="M331.212 17.1312C328.079 14.7634 321.967 8.80722 322.585 3.92452C322.97 6.25723 325.233 12.1644 331.212 17.1312Z" fill="#444779"/>
<path d="M338.454 15.542C350.027 22.2795 339.323 32.6733 333.53 37.1829C327.049 32.0263 336.784 27.1916 335.004 26.6577C333.224 26.1238 329.934 27.6455 319.733 22.1764C318.555 21.545 317.638 20.861 316.94 20.1441C312.801 15.8931 315.759 7.75865 318.49 5.2749C319.822 9.06653 323.736 11.7352 327.189 12.98C325.947 12.0279 323.262 8.6552 325.45 5.2749C328.681 11.2401 333.403 12.6019 338.454 15.542Z" fill="#05185A"/>
<path d="M317.107 51.4063C319.278 53.6628 328.401 55.1939 334.838 51.4063C335.727 49.6327 331.632 33.2817 334.495 31.2882C339.817 27.5835 334.158 23.7111 331.001 25.0909C329.106 25.9193 327.422 24.5527 326.159 23.5002C320.939 18.7851 318.018 16.9663 317.107 18.8687C309.951 33.8139 315.148 38.451 316.796 40.1355C317.418 40.7716 317.579 42.8787 317.52 45.3267C317.454 48.0649 315.544 49.7809 317.107 51.4063Z" fill="#F1B09B"/>
<path fill-rule="evenodd" clip-rule="evenodd" d="M333.68 24.7524C332.755 24.5169 331.76 24.5302 330.918 24.8982C330.039 25.282 329.209 25.162 328.431 24.8094C327.646 24.4539 326.931 23.8693 326.298 23.3414C323.69 20.986 321.639 19.3372 320.118 18.5178C319.359 18.1094 318.704 17.8905 318.162 17.9167C317.886 17.93 317.638 18.0069 317.424 18.1554C317.211 18.3034 317.044 18.5143 316.918 18.778C313.329 26.2735 312.822 31.2162 313.444 34.5141C314.033 37.6391 315.632 39.2571 316.503 40.1381C316.553 40.1887 316.601 40.2369 316.646 40.2829C316.767 40.4072 316.881 40.6214 316.979 40.9338C317.076 41.2424 317.15 41.6283 317.205 42.0772C317.314 42.9749 317.34 44.1022 317.31 45.3218C317.285 46.3501 316.995 47.2195 316.726 48.025C316.647 48.2627 316.57 48.4948 316.501 48.7239C316.354 49.2175 316.25 49.7016 316.294 50.1751C316.338 50.6575 316.534 51.1135 316.956 51.5524C317.535 52.1538 318.551 52.686 319.825 53.0916C321.105 53.4993 322.667 53.7866 324.361 53.8832C327.746 54.0762 331.68 53.5087 334.945 51.5879L334.998 51.5563L335.026 51.5008C335.1 51.3537 335.139 51.1536 335.159 50.929C335.18 50.6993 335.182 50.4221 335.172 50.1074C335.15 49.4775 335.073 48.6785 334.966 47.7704C334.859 46.8616 334.72 45.8382 334.574 44.759L334.574 44.7555C334.428 43.6766 334.274 42.5413 334.136 41.4045C333.859 39.1262 333.645 36.8524 333.677 35.0272C333.693 34.114 333.771 33.3232 333.929 32.7045C334.089 32.0794 334.321 31.6667 334.616 31.4611C335.972 30.5174 336.663 29.5392 336.845 28.6035C337.029 27.6617 336.69 26.8084 336.084 26.1415C335.48 25.4772 334.605 24.9878 333.68 24.7524ZM336.432 28.5227C336.278 29.3119 335.681 30.207 334.376 31.1156C333.955 31.4084 333.689 31.9427 333.521 32.6004C333.352 33.2643 333.273 34.0919 333.256 35.0197C333.223 36.8763 333.44 39.1749 333.718 41.4553C333.856 42.5949 334.01 43.7326 334.156 44.8107L334.157 44.8154C334.303 45.8956 334.441 46.9152 334.548 47.8198C334.655 48.7252 334.73 49.5101 334.751 50.1218C334.761 50.4277 334.758 50.6857 334.74 50.8913C334.725 51.0598 334.7 51.1802 334.672 51.2598C331.511 53.0988 327.693 53.6515 324.385 53.4629C322.722 53.3681 321.195 53.0862 319.952 52.6905C318.704 52.2928 317.766 51.7873 317.259 51.2605C316.9 50.8867 316.748 50.5187 316.713 50.1366C316.677 49.7457 316.761 49.3249 316.905 48.8441C316.966 48.6372 317.039 48.4199 317.115 48.1918C317.387 47.3792 317.705 46.4302 317.731 45.332C317.761 44.1036 317.735 42.9533 317.623 42.0265C317.567 41.5631 317.488 41.1499 317.381 40.8081C317.275 40.47 317.136 40.1822 316.947 39.9885C316.902 39.9426 316.854 39.8946 316.805 39.8444C315.946 38.9753 314.423 37.4339 313.857 34.436C313.258 31.2579 313.73 26.4095 317.297 18.9598C317.399 18.7478 317.523 18.5994 317.664 18.5012C317.805 18.4035 317.975 18.3472 318.182 18.3372C318.607 18.3167 319.179 18.4905 319.918 18.8884C321.39 19.6812 323.408 21.2984 326.019 23.6566L326.022 23.6595L326.025 23.6621C326.654 24.186 327.411 24.8096 328.257 25.1928C329.11 25.5795 330.069 25.7286 331.086 25.284C331.822 24.9622 332.718 24.942 333.576 25.1603C334.433 25.3786 335.232 25.8302 335.772 26.4246C336.31 27.0164 336.585 27.7396 336.432 28.5227Z" fill="#EC8E67"/>
<path d="M330.367 40.1356C328.108 42.2243 320.904 40.9148 316.793 40.1355C317.415 40.7716 317.577 42.8787 317.518 45.3267C321.602 45.0447 328.623 43.8299 330.367 40.1356Z" fill="#EC8E67"/>
<path d="M239.847 142.012L214.588 97.8081H273.189C273.789 97.8081 274.344 98.1276 274.645 98.6467L299.207 140.96L239.847 142.012Z" fill="#1C43AE"/>
<path d="M274.645 98.6463L299.207 140.959H315.1C315.855 140.959 316.468 140.347 316.468 139.591C316.468 138.835 315.855 138.223 315.1 138.223H300.049L276.116 96.1333C275.817 95.6069 275.258 95.2817 274.652 95.2817H220.234C219.981 95.2817 219.732 95.3384 219.505 95.4476L214.588 97.8077H273.189C273.789 97.8077 274.344 98.1272 274.645 98.6463Z" fill="#0F2E9A"/>
</svg>
