<svg width="33" height="7" viewBox="0 0 33 7" fill="none" xmlns="http://www.w3.org/2000/svg">
<path fill-rule="evenodd" clip-rule="evenodd" d="M2.86037 5.51207L1.40188 6.31358C1.19195 6.42896 0.94738 6.24112 0.987687 5.99547L1.26578 4.30062L0.0873992 3.09995C-0.0833515 2.92596 0.0102648 2.62139 0.245472 2.58566L1.8756 2.33806L2.60425 0.794756C2.70943 0.571995 3.01132 0.571995 3.11649 0.794756L3.84514 2.33806L5.47527 2.58566C5.71048 2.62139 5.8041 2.92596 5.63335 3.09995L4.45497 4.30062L4.73306 5.99547C4.77336 6.24112 4.5288 6.42896 4.31886 6.31358L2.86037 5.51207Z" fill="#FFC83A"/>
<path fill-rule="evenodd" clip-rule="evenodd" d="M9.58108 5.51207L8.12259 6.31358C7.91265 6.42896 7.66808 6.24112 7.70839 5.99547L7.98648 4.30062L6.8081 3.09995C6.63735 2.92596 6.73097 2.62139 6.96618 2.58566L8.5963 2.33806L9.32496 0.794756C9.43013 0.571995 9.73202 0.571995 9.8372 0.794756L10.5658 2.33806L12.196 2.58566C12.4312 2.62139 12.5248 2.92596 12.354 3.09995L11.1757 4.30062L11.4538 5.99547C11.4941 6.24112 11.2495 6.42896 11.0396 6.31358L9.58108 5.51207Z" fill="#FFC83A"/>
<path fill-rule="evenodd" clip-rule="evenodd" d="M16.3018 5.51207L14.8433 6.31358C14.6334 6.42896 14.3888 6.24112 14.4291 5.99547L14.7072 4.30062L13.5288 3.09995C13.3581 2.92596 13.4517 2.62139 13.6869 2.58566L15.317 2.33806L16.0457 0.794756C16.1508 0.571995 16.4527 0.571995 16.5579 0.794756L17.2866 2.33806L18.9167 2.58566C19.1519 2.62139 19.2455 2.92596 19.0748 3.09995L17.8964 4.30062L18.1745 5.99547C18.2148 6.24112 17.9702 6.42896 17.7603 6.31358L16.3018 5.51207Z" fill="#FFC83A"/>
<path fill-rule="evenodd" clip-rule="evenodd" d="M23.0225 5.51207L21.564 6.31358C21.3541 6.42896 21.1095 6.24112 21.1498 5.99547L21.4279 4.30062L20.2495 3.09995C20.0788 2.92596 20.1724 2.62139 20.4076 2.58566L22.0377 2.33806L22.7664 0.794756C22.8715 0.571995 23.1734 0.571995 23.2786 0.794756L24.0073 2.33806L25.6374 2.58566C25.8726 2.62139 25.9662 2.92596 25.7955 3.09995L24.6171 4.30062L24.8952 5.99547C24.9355 6.24112 24.6909 6.42896 24.481 6.31358L23.0225 5.51207Z" fill="#FFC83A"/>
<path fill-rule="evenodd" clip-rule="evenodd" d="M29.7432 5.51207L28.2847 6.31358C28.0748 6.42896 27.8302 6.24112 27.8705 5.99547L28.1486 4.30062L26.9702 3.09995C26.7995 2.92596 26.8931 2.62139 27.1283 2.58566L28.7584 2.33806L29.4871 0.794756C29.5922 0.571995 29.8941 0.571995 29.9993 0.794756L30.728 2.33806L32.3581 2.58566C32.5933 2.62139 32.6869 2.92596 32.5162 3.09995L31.3378 4.30062L31.6159 5.99547C31.6562 6.24112 31.4116 6.42896 31.2017 6.31358L29.7432 5.51207Z" stroke="#FFC83A" stroke-width="0.317819"/>
<mask id="mask0_1116_3052" style="mask-type:alpha" maskUnits="userSpaceOnUse" x="26" y="0" width="7" height="7">
<path fill-rule="evenodd" clip-rule="evenodd" d="M29.7432 5.51207L28.2847 6.31358C28.0748 6.42896 27.8302 6.24112 27.8705 5.99547L28.1486 4.30062L26.9702 3.09995C26.7995 2.92596 26.8931 2.62139 27.1283 2.58566L28.7584 2.33806L29.4871 0.794756C29.5922 0.571995 29.8941 0.571995 29.9993 0.794756L30.728 2.33806L32.3581 2.58566C32.5933 2.62139 32.6869 2.92596 32.5162 3.09995L31.3378 4.30062L31.6159 5.99547C31.6562 6.24112 31.4116 6.42896 31.2017 6.31358L29.7432 5.51207Z" fill="#FFC83A"/>
</mask>
<g mask="url(#mask0_1116_3052)">
<rect x="25.9316" y="0.309875" width="3.81383" height="6.35638" fill="#FFC83A"/>
</g>
</svg>
