<svg width="108" height="20" viewBox="0 0 108 20" fill="none" xmlns="http://www.w3.org/2000/svg">
<path fill-rule="evenodd" clip-rule="evenodd" d="M9.88281 16.3684L5.29376 18.8904C4.6332 19.2534 3.86369 18.6624 3.99051 17.8894L4.86551 12.5567L1.15781 8.77883C0.620552 8.2314 0.91511 7.27307 1.65518 7.16066L6.78428 6.38159L9.07695 1.52568C9.40787 0.824774 10.3578 0.824774 10.6887 1.52568L12.9813 6.38159L18.1104 7.16066C18.8505 7.27307 19.1451 8.2314 18.6078 8.77883L14.9001 12.5567L15.7751 17.8894C15.9019 18.6624 15.1324 19.2534 14.4719 18.8904L9.88281 16.3684Z" fill="#FFC83A"/>
<path fill-rule="evenodd" clip-rule="evenodd" d="M31.8828 16.3684L27.2938 18.8904C26.6332 19.2534 25.8637 18.6624 25.9905 17.8894L26.8655 12.5567L23.1578 8.77883C22.6206 8.2314 22.9151 7.27307 23.6552 7.16066L28.7843 6.38159L31.0769 1.52568C31.4079 0.824774 32.3578 0.824774 32.6887 1.52568L34.9813 6.38159L40.1104 7.16066C40.8505 7.27307 41.1451 8.2314 40.6078 8.77883L36.9001 12.5567L37.7751 17.8894C37.9019 18.6624 37.1324 19.2534 36.4719 18.8904L31.8828 16.3684Z" fill="#FFC83A"/>
<path fill-rule="evenodd" clip-rule="evenodd" d="M53.8828 16.3684L49.2938 18.8904C48.6332 19.2534 47.8637 18.6624 47.9905 17.8894L48.8655 12.5567L45.1578 8.77883C44.6206 8.2314 44.9151 7.27307 45.6552 7.16066L50.7843 6.38159L53.0769 1.52568C53.4079 0.824774 54.3578 0.824774 54.6887 1.52568L56.9813 6.38159L62.1104 7.16066C62.8505 7.27307 63.1451 8.2314 62.6078 8.77883L58.9001 12.5567L59.7751 17.8894C59.9019 18.6624 59.1324 19.2534 58.4719 18.8904L53.8828 16.3684Z" fill="#FFC83A"/>
<path fill-rule="evenodd" clip-rule="evenodd" d="M75.8828 16.3684L71.2938 18.8904C70.6332 19.2534 69.8637 18.6624 69.9905 17.8894L70.8655 12.5567L67.1578 8.77883C66.6206 8.2314 66.9151 7.27307 67.6552 7.16066L72.7843 6.38159L75.0769 1.52568C75.4079 0.824774 76.3578 0.824774 76.6887 1.52568L78.9813 6.38159L84.1104 7.16066C84.8505 7.27307 85.1451 8.2314 84.6078 8.77883L80.9001 12.5567L81.7751 17.8894C81.9019 18.6624 81.1324 19.2534 80.4719 18.8904L75.8828 16.3684Z" fill="#FFC83A"/>
<path fill-rule="evenodd" clip-rule="evenodd" d="M97.8828 16.3684L93.2938 18.8904C92.6332 19.2534 91.8637 18.6624 91.9905 17.8894L92.8655 12.5567L89.1578 8.77883C88.6206 8.2314 88.9151 7.27307 89.6552 7.16066L94.7843 6.38159L97.0769 1.52568C97.4079 0.824774 98.3578 0.824774 98.6887 1.52568L100.981 6.38159L106.11 7.16066C106.851 7.27307 107.145 8.2314 106.608 8.77883L102.9 12.5567L103.775 17.8894C103.902 18.6624 103.132 19.2534 102.472 18.8904L97.8828 16.3684Z" stroke="#FFC83A"/>
<mask id="mask0_1136_4003" style="mask-type:alpha" maskUnits="userSpaceOnUse" x="88" y="1" width="19" height="18">
<path fill-rule="evenodd" clip-rule="evenodd" d="M97.8828 16.3684L93.2938 18.8904C92.6332 19.2534 91.8637 18.6624 91.9905 17.8894L92.8655 12.5567L89.1578 8.77883C88.6206 8.2314 88.9151 7.27307 89.6552 7.16066L94.7843 6.38159L97.0769 1.52568C97.4079 0.824774 98.3578 0.824774 98.6887 1.52568L100.981 6.38159L106.11 7.16066C106.851 7.27307 107.145 8.2314 106.608 8.77883L102.9 12.5567L103.775 17.8894C103.902 18.6624 103.132 19.2534 102.472 18.8904L97.8828 16.3684Z" fill="#FFC83A"/>
</mask>
<g mask="url(#mask0_1136_4003)">
<rect x="85.8828" width="12" height="20" fill="#FFC83A"/>
</g>
</svg>
