<svg width="112" height="24" viewBox="0 0 112 24" fill="none" xmlns="http://www.w3.org/2000/svg">
<path d="M107.35 13.8868C107.274 12.3019 106.293 10.7925 103.803 10.7925C101.615 10.7925 100.408 12.4528 100.257 13.8868H107.35ZM111.349 19.0189C110.519 21.7358 108.029 24 104.18 24C99.8793 24 96.0309 20.9057 96.0309 15.6226C96.0309 10.6415 99.7284 7.32075 103.728 7.32075C108.557 7.32075 111.5 10.4151 111.5 15.4717C111.5 16.0755 111.425 16.7547 111.425 16.7547H100.181C100.257 18.8679 102.068 20.3019 104.105 20.3019C106.067 20.3019 107.199 19.3208 107.652 17.8868L111.349 19.0189ZM83.9575 14.4906C83.9575 12.6792 85.0139 11.2453 86.9004 11.2453C88.9378 11.2453 89.8433 12.6038 89.8433 14.3396V23.4717H94.069V13.5849C94.069 10.1132 92.258 7.32075 88.4096 7.32075C86.7495 7.32075 84.863 8.07547 83.882 9.66038V7.69811H79.7318V23.3962H83.9575V14.4906ZM72.8651 7.77359H77.0908V23.4717H72.8651V7.77359ZM74.9779 0C76.4116 0 77.619 1.20755 77.619 2.64151C77.619 4.07547 76.4871 5.20755 74.9779 5.20755C73.5442 5.20755 72.3368 4 72.3368 2.64151C72.3368 1.20755 73.5442 0 74.9779 0V0ZM51.3593 14.4906C51.3593 12.6792 52.4157 11.2453 54.3022 11.2453C56.3396 11.2453 57.2451 12.6038 57.2451 14.3396V23.4717H61.4708V13.5849C61.4708 10.1132 59.6598 7.32075 55.8114 7.32075C54.1513 7.32075 52.2648 8.07547 51.2838 9.66038V7.69811H47.1336V23.3962H51.3593V14.4906ZM40.1159 7.77359H44.3416V23.4717H40.1159V7.77359ZM42.1533 0C43.587 0 44.7944 1.20755 44.7944 2.64151C44.7944 4.07547 43.6625 5.20755 42.1533 5.20755C40.7196 5.20755 39.5122 4 39.5122 2.64151C39.5877 1.20755 40.7196 0 42.1533 0V0ZM30.0799 20.8302C28.7216 20.8302 28.0425 19.9245 28.0425 19.0189C28.0425 17.8113 28.8725 17.2075 30.0044 17.0566L33.551 16.5283V17.2075C33.551 19.9245 31.8909 20.8302 30.0799 20.8302ZM23.8168 19.2453C23.8168 21.7358 25.8542 24 29.2498 24C31.5891 24 33.0982 22.9434 33.8528 21.6604C33.8528 22.2642 33.9283 23.0943 34.0037 23.5472H37.9276C37.8521 23.0189 37.7012 21.8868 37.7012 21.0566V13.283C37.7012 10.1132 35.8148 7.32075 30.8345 7.32075C26.6088 7.32075 24.345 10.0377 24.1186 12.5283L27.8916 13.3585C28.0425 12 29.0235 10.7925 30.9099 10.7925C32.7209 10.7925 33.551 11.6981 33.551 12.8302C33.551 13.3585 33.2491 13.8113 32.3436 13.9623L28.4952 14.566C25.8542 14.8679 23.8168 16.4528 23.8168 19.2453ZM22.534 12C22.0812 11.9245 21.6285 11.8491 21.2512 11.8491C19.0629 11.8491 17.1764 12.9057 17.1764 16.3019V23.4717H12.9507V7.77359H17.101V10.1132C18.0819 8 20.1948 7.62264 21.553 7.62264C21.9303 7.62264 22.2322 7.62264 22.534 7.69811V12ZM10.6115 8V11.6981H5.70666C6.15942 11.4717 6.53671 11.0943 6.914 10.7925C7.66859 10.0377 8.1968 9.13208 8.5741 8H10.6115ZM1.70734 11.6981H0.5V8H7.36676C6.914 9.13208 6.23487 10.0377 5.25391 10.717C4.3484 11.3208 3.14106 11.6226 1.70734 11.6981ZM9.32869 20C9.8569 20 10.3851 19.9245 10.6115 19.8491V23.3962C10.2342 23.5472 9.47961 23.7736 8.27226 23.7736C5.25391 23.7736 3.36744 21.9623 3.36744 18.9434V12.6792H7.51767V18.2642C7.51767 19.5472 8.12135 20 9.32869 20ZM7.51767 7.01887V3.32075H3.74473V5.50943C3.74473 6.11321 3.59381 6.64151 3.29198 7.01887H7.51767ZM70.5258 20H69.7712C68.5639 20 67.9602 19.5472 67.9602 18.1887V0.679245H63.81V18.9434C63.81 21.9623 65.6965 23.7736 68.7148 23.7736C69.4694 23.7736 70.0731 23.6981 70.5258 23.5472V20Z" fill="#48D5B5"/>
</svg>
