<svg width="39" height="9" viewBox="0 0 39 9" fill="none" xmlns="http://www.w3.org/2000/svg">
<path d="M36.8099 5.35079C36.7844 4.81699 36.454 4.3086 35.6154 4.3086C34.8783 4.3086 34.4717 4.86783 34.4209 5.35079H36.8099ZM38.1569 7.07931C37.8773 7.9944 37.0386 8.75698 35.7424 8.75698C34.2938 8.75698 32.9976 7.71479 32.9976 5.93544C32.9976 4.25776 34.243 3.13932 35.5899 3.13932C37.2165 3.13932 38.2077 4.18151 38.2077 5.8846C38.2077 6.08795 38.1823 6.31673 38.1823 6.31673H34.3954C34.4209 7.02847 35.0308 7.51143 35.717 7.51143C36.3778 7.51143 36.759 7.18098 36.9115 6.69802L38.1569 7.07931ZM28.9312 5.55415C28.9312 4.94409 29.287 4.46112 29.9224 4.46112C30.6086 4.46112 30.9136 4.91867 30.9136 5.50331V8.57904H32.3368V5.24912C32.3368 4.07983 31.7269 3.13932 30.4307 3.13932C29.8716 3.13932 29.2362 3.39351 28.9058 3.92731V3.26641H27.508V8.55362H28.9312V5.55415ZM25.1952 3.29183H26.6185V8.57904H25.1952V3.29183ZM25.9068 0.673645C26.3897 0.673645 26.7964 1.08035 26.7964 1.56332C26.7964 2.04629 26.4151 2.42758 25.9068 2.42758C25.424 2.42758 25.0173 2.02087 25.0173 1.56332C25.0173 1.08035 25.424 0.673645 25.9068 0.673645V0.673645ZM17.952 5.55415C17.952 4.94409 18.3078 4.46112 18.9431 4.46112C19.6293 4.46112 19.9343 4.91867 19.9343 5.50331V8.57904H21.3576V5.24912C21.3576 4.07983 20.7476 3.13932 19.4514 3.13932C18.8923 3.13932 18.2569 3.39351 17.9265 3.92731V3.26641H16.5287V8.55362H17.952V5.55415ZM14.1651 3.29183H15.5884V8.57904H14.1651V3.29183ZM14.8513 0.673645C15.3342 0.673645 15.7409 1.08035 15.7409 1.56332C15.7409 2.04629 15.3596 2.42758 14.8513 2.42758C14.3684 2.42758 13.9618 2.02087 13.9618 1.56332C13.9872 1.08035 14.3684 0.673645 14.8513 0.673645V0.673645ZM10.7849 7.68937C10.3275 7.68937 10.0987 7.38434 10.0987 7.07931C10.0987 6.6726 10.3783 6.46924 10.7595 6.4184L11.954 6.24047V6.46924C11.954 7.38434 11.3949 7.68937 10.7849 7.68937ZM8.67549 7.15556C8.67549 7.9944 9.36169 8.75698 10.5054 8.75698C11.2932 8.75698 11.8015 8.40111 12.0557 7.96898C12.0557 8.17233 12.0811 8.45195 12.1065 8.60446H13.4281C13.4027 8.42653 13.3518 8.04524 13.3518 7.76563V5.14744C13.3518 4.07983 12.7165 3.13932 11.0391 3.13932C9.61584 3.13932 8.8534 4.05441 8.77715 4.89325L10.0479 5.17286C10.0987 4.71531 10.4291 4.3086 11.0645 4.3086C11.6745 4.3086 11.954 4.61363 11.954 4.99492C11.954 5.17286 11.8524 5.32537 11.5474 5.37621L10.2512 5.57957C9.36169 5.68124 8.67549 6.21505 8.67549 7.15556ZM8.24344 4.71531C8.09095 4.68989 7.93846 4.66447 7.81138 4.66447C7.07435 4.66447 6.43897 5.02034 6.43897 6.16421V8.57904H5.01574V3.29183H6.41356V4.07983C6.74395 3.36809 7.45557 3.24099 7.91304 3.24099C8.04012 3.24099 8.14178 3.24099 8.24344 3.26641V4.71531ZM4.22787 3.36809V4.61363H2.5759C2.72839 4.53738 2.85546 4.41028 2.98254 4.3086C3.23669 4.05441 3.41459 3.74938 3.54167 3.36809H4.22787ZM1.22891 4.61363H0.822266V3.36809H3.13503C2.98254 3.74938 2.7538 4.05441 2.42341 4.28318C2.11843 4.48654 1.71179 4.58822 1.22891 4.61363ZM3.79582 7.40976C3.97372 7.40976 4.15163 7.38434 4.22787 7.35892V8.55362C4.1008 8.60446 3.84665 8.68072 3.44001 8.68072C2.42341 8.68072 1.78803 8.07066 1.78803 7.05389V4.94408H3.18586V6.82511C3.18586 7.25724 3.38918 7.40976 3.79582 7.40976ZM3.18586 3.03764V1.79209H1.91511V2.52925C1.91511 2.73261 1.86428 2.91054 1.76262 3.03764H3.18586ZM24.4074 7.40976H24.1532C23.7466 7.40976 23.5432 7.25724 23.5432 6.79969V0.902419H22.1454V7.05389C22.1454 8.07066 22.7808 8.68072 23.7974 8.68072C24.0515 8.68072 24.2549 8.6553 24.4074 8.60446V7.40976Z" fill="#48D5B5"/>
</svg>
