<svg width="24" height="24" viewBox="0 0 24 24" fill="none" xmlns="http://www.w3.org/2000/svg">
<path d="M18.3933 4.0212L5.23785 5.56378C4.71926 5.62555 4.23238 5.84578 3.84359 6.19445C3.45481 6.54312 3.18303 7.00325 3.06532 7.51211C2.94761 8.02097 2.9897 8.5538 3.18584 9.03795C3.38198 9.52209 3.72264 9.934 4.16136 10.2175L8.35231 12.9045C8.45111 12.9711 8.53565 13.0567 8.60101 13.1564C8.66636 13.256 8.71122 13.3677 8.73295 13.4849L9.52756 18.3994C9.59572 18.817 9.76714 19.2109 10.0262 19.5455C10.2853 19.88 10.6239 20.1445 11.0112 20.3149C11.3984 20.4853 11.8221 20.5563 12.2437 20.5213C12.6653 20.4863 13.0715 20.3465 13.4252 20.1146C13.7544 19.894 14.03 19.6026 14.2319 19.2616L20.8885 7.81023C21.1239 7.40296 21.2415 6.93825 21.2282 6.46796C21.2149 5.99766 21.0712 5.54028 20.8132 5.14683C20.5551 4.75339 20.1929 4.43936 19.7668 4.23978C19.3408 4.0402 18.8677 3.96292 18.4003 4.01656L18.3933 4.0212ZM19.4207 6.96097L12.7642 18.4124C12.6751 18.5602 12.5429 18.6772 12.3854 18.7477C12.2279 18.8182 12.0526 18.8389 11.883 18.8069C11.7134 18.775 11.5576 18.6919 11.4365 18.5689C11.3154 18.4459 11.2348 18.2889 11.2055 18.1188L10.4038 13.2089C10.3924 13.1438 10.3772 13.0794 10.3583 13.0161L15.2335 9.81862C15.4211 9.69554 15.5522 9.50293 15.5978 9.28317C15.6435 9.0634 15.5999 8.83448 15.4768 8.64677C15.3537 8.45906 15.1611 8.32793 14.9413 8.28222C14.7216 8.23652 14.4927 8.27999 14.305 8.40307L9.42989 11.6005C9.37934 11.5579 9.32633 11.5183 9.27115 11.4819L5.08729 8.79032C4.94296 8.69566 4.831 8.55913 4.76644 8.39905C4.70188 8.23897 4.68779 8.06299 4.72606 7.8947C4.76434 7.72641 4.85315 7.57386 4.98058 7.45751C5.10802 7.34115 5.26799 7.26656 5.43904 7.24372L18.5945 5.70114C18.7493 5.68452 18.9058 5.71096 19.0466 5.77756C19.1874 5.84416 19.3071 5.94832 19.3925 6.07858C19.478 6.20885 19.5258 6.36015 19.5308 6.51584C19.5358 6.67153 19.4977 6.82556 19.4207 6.96097Z" fill="#3B71FE"/>
</svg>
