<svg width="38" height="10" viewBox="0 0 38 10" fill="none" xmlns="http://www.w3.org/2000/svg">
<path d="M22.7598 5.88834H22.7893L23.7599 3.03253H25.0541L23.4069 7.24263H22.0245L20.2891 3.03253H21.7009L22.7598 5.88834Z" fill="#37474D"/>
<path d="M15.2311 4.06306H13.9663V5.4468C13.9663 5.56457 13.9663 5.65289 13.9957 5.77065C13.9957 5.85898 14.0251 5.9473 14.0839 6.00618C14.1134 6.06507 14.2016 6.12395 14.2898 6.15339C14.3781 6.18283 14.4957 6.21227 14.6428 6.21227C14.731 6.21227 14.8193 6.21227 14.9369 6.18283C15.0546 6.18283 15.1428 6.12395 15.2311 6.09451V7.18384C15.084 7.24272 14.9075 7.27216 14.731 7.3016C14.5546 7.33104 14.4075 7.33104 14.231 7.33104C13.9957 7.33104 13.7604 7.3016 13.5545 7.27216C13.3486 7.21328 13.1721 7.15439 13.025 7.06607C12.878 6.97775 12.7603 6.83054 12.6721 6.68333C12.5838 6.53613 12.5544 6.33004 12.5544 6.09451V4.0925H11.6426V3.06206H12.5544V1.79608H13.9663V3.03262H15.2311V4.06306Z" fill="#37474D"/>
<path d="M15.6133 3.03256H16.9075V3.70971C17.0546 3.44474 17.2016 3.26809 17.4075 3.12088C17.584 3.00312 17.8487 2.91479 18.1135 2.91479H18.3488C18.437 2.91479 18.4959 2.94424 18.5547 2.94424V4.12189C18.4664 4.09245 18.3782 4.063 18.29 4.063C18.2017 4.063 18.1135 4.03356 17.9958 4.03356C17.7605 4.03356 17.5546 4.063 17.4075 4.15133C17.2605 4.21021 17.1428 4.32798 17.084 4.44574C16.9957 4.56351 16.9663 4.71071 16.9369 4.88736C16.9075 5.06401 16.9075 5.24066 16.9075 5.44674V7.18378H15.6133V3.03256Z" fill="#37474D"/>
<path d="M19.4968 2.62035C19.6733 2.62035 19.8498 2.56147 19.9675 2.41426C20.1145 2.26705 20.1734 2.11985 20.1734 1.9432C20.1734 1.76655 20.1145 1.58991 19.9675 1.47214C19.8204 1.32493 19.6733 1.26605 19.4968 1.26605C19.3204 1.26605 19.1439 1.32493 19.0262 1.47214C18.8791 1.61935 18.8203 1.76655 18.8203 1.9432C18.8203 2.11985 18.8791 2.2965 19.0262 2.41426C19.1439 2.53203 19.2909 2.62035 19.4968 2.62035Z" fill="#37474D"/>
<path d="M18.8496 3.03253H20.1438V7.21319H18.8496V3.03253Z" fill="#37474D"/>
<path d="M27.262 5.38776H26.9091C26.762 5.38776 26.6149 5.4172 26.4973 5.44664C26.3502 5.47609 26.2325 5.53497 26.1443 5.62329C26.0561 5.71162 25.9972 5.82938 25.9972 5.94715C25.9972 6.09435 26.0561 6.21212 26.2031 6.30044C26.3208 6.38877 26.4678 6.41821 26.6149 6.41821C26.7326 6.41821 26.8502 6.38877 26.9679 6.35932C27.0855 6.32988 27.2032 6.271 27.2914 6.21212C27.3797 6.15324 27.4679 6.06491 27.4973 5.97659C27.5562 5.88826 27.5856 5.7705 27.5856 5.62329V5.35832H27.262V5.38776ZM27.5562 6.71262C27.4091 6.94815 27.2032 7.09536 26.9679 7.18368C26.7326 7.272 26.4678 7.33089 26.2031 7.33089C25.9972 7.33089 25.8207 7.30145 25.6443 7.24256C25.4678 7.18368 25.2913 7.09536 25.1736 7.00703C25.0266 6.88927 24.9383 6.7715 24.8501 6.59485C24.7618 6.44765 24.7324 6.24156 24.7324 6.03547C24.7324 5.79994 24.7912 5.59385 24.8795 5.4172C24.9677 5.24056 25.0854 5.12279 25.2325 5.00503C25.3795 4.88726 25.556 4.79894 25.7619 4.74005C25.9678 4.68117 26.1737 4.62229 26.3796 4.59285C26.5855 4.56341 26.7914 4.53396 26.9973 4.53396H27.5856C27.5856 4.29843 27.4973 4.12179 27.3503 3.97458C27.1738 3.82737 26.9973 3.76849 26.762 3.76849C26.5561 3.76849 26.3502 3.82737 26.1737 3.9157C25.9972 4.00402 25.8502 4.12179 25.7031 4.26899L25.0266 3.5624C25.2619 3.32687 25.556 3.17967 25.8796 3.0619C26.2031 2.94414 26.5267 2.88525 26.8796 2.88525C27.262 2.88525 27.5562 2.94414 27.8209 3.03246C28.0562 3.12078 28.2621 3.26799 28.4092 3.44464C28.5562 3.62129 28.6445 3.85682 28.7033 4.12179C28.7621 4.38676 28.7916 4.71061 28.7916 5.03447V7.15424H27.615V6.71262H27.5562Z" fill="#37474D"/>
<path d="M37.6451 4.23963C37.5274 3.97466 37.3803 3.73913 37.2039 3.53304C37.0274 3.32695 36.7921 3.17974 36.5273 3.09142C36.2626 2.97366 35.9979 2.94421 35.7037 2.94421C35.4096 2.94421 35.1449 3.0031 34.8802 3.09142C34.6154 3.20919 34.4095 3.35639 34.2036 3.53304C34.0271 3.73913 33.8507 3.94522 33.7624 4.23963C33.6448 4.5046 33.5859 4.79902 33.5859 5.15231C33.5859 5.50561 33.6448 5.80002 33.7624 6.06499C33.8801 6.32996 34.0271 6.56549 34.2036 6.77158C34.3801 6.97767 34.6154 7.12488 34.8802 7.2132C35.1449 7.33097 35.4096 7.36041 35.7037 7.36041C35.9979 7.36041 36.2626 7.30153 36.5273 7.2132C36.7921 7.12488 36.998 6.94823 37.2039 6.77158C37.3803 6.56549 37.5568 6.35941 37.6451 6.06499C37.7627 5.80002 37.8216 5.50561 37.8216 5.15231C37.8216 4.79902 37.7627 4.5046 37.6451 4.23963ZM36.4097 5.88834C36.2332 6.09443 36.0273 6.18276 35.7332 6.18276C35.439 6.18276 35.2037 6.09443 35.0566 5.88834C34.8802 5.68226 34.8213 5.44672 34.8213 5.12287C34.8213 4.79902 34.9096 4.56349 35.0566 4.3574C35.2331 4.15131 35.439 4.06298 35.7332 4.06298C36.0273 4.06298 36.2626 4.15131 36.4097 4.3574C36.5862 4.56349 36.645 4.79902 36.645 5.12287C36.645 5.44672 36.5568 5.7117 36.4097 5.88834Z" fill="#37474D"/>
<path d="M32.2044 3.06193V3.62132C32.2044 3.62132 32.1162 3.47411 32.0279 3.41523C31.9397 3.32691 31.8514 3.26802 31.7044 3.20914C31.5867 3.15026 31.4396 3.09138 31.2926 3.06193C31.1455 3.03249 30.969 3.00305 30.7925 3.00305C30.4984 3.00305 30.2337 3.06193 29.9984 3.1797C29.763 3.29746 29.5571 3.44467 29.4101 3.6802C29.263 3.88629 29.1748 4.09238 29.1159 4.38679C29.0571 4.65176 29.0277 4.91673 29.0277 5.21115C29.0277 5.535 29.0865 5.82941 29.1454 6.09439C29.2336 6.35936 29.3218 6.56545 29.4689 6.77153C29.6454 6.97762 29.8807 7.12483 30.116 7.21315C30.3807 7.33092 30.6455 7.36036 30.969 7.36036C31.1749 7.36036 31.3808 7.30148 31.5867 7.2426C31.822 7.15427 32.0279 7.00707 32.0868 6.80098V7.21315C32.0868 7.50757 32.0279 7.7431 31.8514 7.94919C31.675 8.15527 31.4102 8.2436 30.9984 8.2436C30.7337 8.2436 30.5572 8.2436 30.2925 8.18472C30.0572 8.12583 29.763 8.00807 29.5571 7.86086L28.9395 8.77354C29.263 9.00907 29.5866 9.15628 29.9395 9.27404C30.2925 9.36237 30.6749 9.39181 31.0278 9.39181C31.8514 9.39181 32.4397 9.18572 32.8221 8.77354C33.2339 8.36136 33.381 7.77254 33.381 6.97762V3.06193H32.2044ZM31.9103 5.8883C31.7338 6.09439 31.5279 6.18271 31.2337 6.18271C30.9396 6.18271 30.7043 6.09439 30.5572 5.8883C30.3807 5.68221 30.3219 5.44668 30.3219 5.12282C30.3219 4.79897 30.4102 4.56344 30.5572 4.35735C30.7337 4.15126 30.9396 4.06294 31.2337 4.06294C31.5279 4.06294 31.7632 4.15126 31.9103 4.35735C32.0868 4.56344 32.1456 4.79897 32.1456 5.12282C32.1456 5.44668 32.0573 5.71165 31.9103 5.8883Z" fill="#37474D"/>
<path d="M4.02433 8.0081C0.28875 6.12386 0.847616 2.76756 1.81828 1.26605C1.55355 1.53102 1.31824 1.82544 1.08293 2.14929C0.818202 2.59091 0.171094 3.798 0.553476 5.29951C0.906444 6.80101 1.96535 7.83146 2.81836 8.39084C4.1714 9.27408 5.49503 9.48017 6.40687 9.42129C7.78932 9.33296 8.70116 8.53805 9.17178 7.80202C9.43651 7.3604 9.58358 6.94822 9.61299 6.80101C9.46592 7.0071 7.70108 9.83346 4.02433 8.0081Z" fill="#C93F1F"/>
<path d="M6.52464 7.9196C6.46581 7.9196 6.40699 7.9196 6.31874 7.94904C5.55398 7.94904 4.70097 7.68407 4.11269 7.38966C3.67148 7.15413 3.0832 6.77139 2.64199 6.18256C0.43594 3.32676 3.31851 0.412072 4.11269 0.0587769C3.96562 0.0882181 3.78914 0.117659 3.58324 0.176542C3.11262 0.323748 2.43609 0.677044 1.8184 1.26587C1.73016 1.38363 1.64192 1.53084 1.55367 1.64861C1.25953 2.09023 0.671253 3.23844 0.994807 4.7105C1.34777 6.18256 2.37727 7.18357 3.20086 7.71351C4.52449 8.59675 5.78929 8.7734 6.70113 8.71451C8.05417 8.62619 8.93659 7.83127 9.3778 7.15412C9.46604 7.03636 9.52487 6.91859 9.5837 6.80083C9.5837 6.74195 9.61311 6.71251 9.61311 6.71251C9.64253 6.59474 9.67194 6.35921 9.70135 6.30033C9.7896 5.7115 9.73077 5.12268 9.64253 4.62218C9.49546 5.65262 8.67186 7.71351 6.52464 7.9196Z" fill="#F39200"/>
<path d="M8.9355 2.82639C8.84726 2.67918 8.72961 2.50254 8.72961 2.4731C8.61195 2.32589 8.49429 2.14924 8.40605 2.03148C8.17074 1.73706 7.75894 1.70762 7.4648 1.94315C7.17066 2.17868 7.14125 2.59086 7.34715 2.88527C7.61187 3.20913 7.75894 3.4741 7.93543 3.88628C8.02367 4.06292 8.17074 4.4751 8.25898 4.9756C8.31781 5.41722 8.37664 6.30046 7.90601 7.00705C7.75894 7.24258 7.37656 7.74308 6.64121 7.89029C6.6118 7.89029 6.55297 7.91973 6.49414 7.91973H6.72945C7.90601 7.83141 8.70019 7.15426 9.08257 6.53599C9.37671 6.06493 9.49437 5.59387 9.49437 5.59387C9.52378 5.4761 9.5532 5.29946 9.5532 5.24057C9.58261 5.03449 9.61203 4.8284 9.58261 4.62231C9.52379 4.38678 9.49437 4.18069 9.43554 4.00404C9.3473 3.56242 9.1414 3.17969 8.9355 2.82639Z" fill="#007DB0"/>
<path d="M2.34686 5.62328C2.25862 5.41719 2.17038 5.18166 2.11155 4.94613C2.02331 4.62228 1.99389 3.73904 2.49393 3.00301C3.0528 2.2081 3.67049 1.70759 5.11178 1.67815C5.5824 1.67815 5.93537 1.44262 5.9942 0.971562C6.05303 0.500502 5.72947 0.0883238 5.22944 0.0294413C5.05295 0 4.87647 0 4.69998 0C4.69998 0 4.46467 0 4.1117 0.0588826C3.52342 0.294413 2.72924 0.824356 2.19979 1.67815C1.96448 2.06089 1.40561 3.06189 1.72917 4.38675C1.90565 5.12278 2.25862 5.71161 2.67042 6.18267C2.55276 6.00602 2.4351 5.82937 2.34686 5.62328Z" fill="#007DB0"/>
</svg>
