<svg width="112" height="28" viewBox="0 0 112 28" fill="none" xmlns="http://www.w3.org/2000/svg">
<path d="M66.7812 17.4827H66.8686L69.7505 9.00366H73.5931L68.7025 21.5038H64.5979L59.4453 9.00366H63.6373L66.7812 17.4827Z" fill="#37474D"/>
<path d="M44.426 12.0633H40.6707V16.1718C40.6707 16.5214 40.6707 16.7837 40.7581 17.1333C40.7581 17.3956 40.8454 17.6578 41.0201 17.8326C41.1074 18.0074 41.3694 18.1823 41.6314 18.2697C41.8934 18.3571 42.2427 18.4445 42.6794 18.4445C42.9414 18.4445 43.2034 18.4445 43.5527 18.3571C43.902 18.3571 44.164 18.1823 44.426 18.0949V21.3291C43.9894 21.504 43.4654 21.5914 42.9414 21.6788C42.4174 21.7662 41.9807 21.7662 41.4567 21.7662C40.7581 21.7662 40.0594 21.6788 39.4481 21.5914C38.8368 21.4166 38.3128 21.2417 37.8761 20.9795C37.4394 20.7173 37.0901 20.2802 36.8281 19.8431C36.5661 19.4061 36.4788 18.7942 36.4788 18.0949V12.1508H33.7715V9.09129H36.4788V5.33252H40.6707V9.00388H44.426V12.0633Z" fill="#37474D"/>
<path d="M45.5605 9.00383H49.4032V11.0143C49.8398 10.2276 50.2765 9.70313 50.8878 9.26607C51.4118 8.91642 52.1978 8.65417 52.9838 8.65417H53.6825C53.9445 8.65417 54.1191 8.74159 54.2938 8.74159V12.2381C54.0318 12.1507 53.7698 12.0633 53.5078 12.0633C53.2458 12.0633 52.9838 11.9759 52.6345 11.9759C51.9358 11.9759 51.3245 12.0633 50.8878 12.3255C50.4512 12.5004 50.1018 12.85 49.9272 13.1997C49.6652 13.5493 49.5778 13.9864 49.4905 14.5109C49.4032 15.0353 49.4032 15.5598 49.4032 16.1717V21.3291H45.5605V9.00383Z" fill="#37474D"/>
<path d="M57.0907 7.77992C57.6147 7.77992 58.1387 7.60509 58.488 7.16803C58.9246 6.73096 59.0993 6.29389 59.0993 5.76941C59.0993 5.24494 58.9246 4.72046 58.488 4.3708C58.0513 3.93374 57.6147 3.75891 57.0907 3.75891C56.5667 3.75891 56.0427 3.93374 55.6934 4.3708C55.2567 4.80787 55.082 5.24494 55.082 5.76941C55.082 6.29389 55.2567 6.81837 55.6934 7.16803C56.0427 7.51768 56.4793 7.77992 57.0907 7.77992Z" fill="#37474D"/>
<path d="M55.1699 9.00366H59.0125V21.4163H55.1699V9.00366Z" fill="#37474D"/>
<path d="M80.1473 15.9965H79.0993C78.6627 15.9965 78.226 16.0839 77.8767 16.1714C77.44 16.2588 77.0907 16.4336 76.8287 16.6958C76.5667 16.9581 76.392 17.3077 76.392 17.6574C76.392 18.0945 76.5667 18.4441 77.0033 18.7063C77.3527 18.9686 77.7893 19.056 78.226 19.056C78.5753 19.056 78.9246 18.9686 79.274 18.8812C79.6233 18.7938 79.9726 18.6189 80.2346 18.4441C80.4966 18.2693 80.7586 18.007 80.846 17.7448C81.0206 17.4826 81.108 17.1329 81.108 16.6958V15.9091H80.1473V15.9965ZM81.0206 19.9301C80.584 20.6294 79.9726 21.0665 79.274 21.3287C78.5753 21.591 77.7893 21.7658 77.0033 21.7658C76.392 21.7658 75.868 21.6784 75.344 21.5036C74.82 21.3287 74.296 21.0665 73.9467 20.8043C73.51 20.4546 73.248 20.105 72.986 19.5805C72.7241 19.1434 72.6367 18.5315 72.6367 17.9196C72.6367 17.2203 72.8114 16.6084 73.0734 16.0839C73.3354 15.5595 73.6847 15.2098 74.1214 14.8602C74.558 14.5105 75.082 14.2483 75.6934 14.0734C76.3047 13.8986 76.916 13.7238 77.5273 13.6364C78.1387 13.549 78.75 13.4615 79.3613 13.4615H81.108C81.108 12.7622 80.846 12.2378 80.4093 11.8007C79.8853 11.3636 79.3613 11.1888 78.6627 11.1888C78.0513 11.1888 77.44 11.3636 76.916 11.6259C76.392 11.8881 75.9553 12.2378 75.5187 12.6748L73.51 10.5769C74.2087 9.87761 75.082 9.44054 76.0427 9.09089C77.0033 8.74123 77.964 8.56641 79.012 8.56641C80.1473 8.56641 81.0206 8.74123 81.8066 9.00347C82.5053 9.26571 83.1166 9.70278 83.5533 10.2273C83.9899 10.7517 84.2519 11.451 84.4266 12.2378C84.6012 13.0245 84.6886 13.986 84.6886 14.9476V21.2413H81.1953V19.9301H81.0206Z" fill="#37474D"/>
<path d="M110.976 12.5876C110.626 11.8009 110.19 11.1016 109.666 10.4897C109.142 9.87783 108.443 9.44076 107.657 9.17852C106.871 8.82887 106.085 8.74146 105.212 8.74146C104.338 8.74146 103.552 8.91628 102.766 9.17852C101.98 9.52818 101.369 9.96524 100.758 10.4897C100.234 11.1016 99.7098 11.7135 99.4478 12.5876C99.0985 13.3744 98.9238 14.2485 98.9238 15.2975C98.9238 16.3464 99.0985 17.2206 99.4478 18.0073C99.7972 18.794 100.234 19.4933 100.758 20.1052C101.282 20.7171 101.98 21.1542 102.766 21.4164C103.552 21.766 104.338 21.8535 105.212 21.8535C106.085 21.8535 106.871 21.6786 107.657 21.4164C108.443 21.1542 109.054 20.6297 109.666 20.1052C110.19 19.4933 110.714 18.8814 110.976 18.0073C111.325 17.2206 111.5 16.3464 111.5 15.2975C111.5 14.2485 111.325 13.3744 110.976 12.5876ZM107.308 17.4828C106.784 18.0947 106.172 18.3569 105.299 18.3569C104.426 18.3569 103.727 18.0947 103.29 17.4828C102.766 16.8709 102.592 16.1716 102.592 15.21C102.592 14.2485 102.854 13.5492 103.29 12.9373C103.814 12.3254 104.426 12.0632 105.299 12.0632C106.172 12.0632 106.871 12.3254 107.308 12.9373C107.832 13.5492 108.006 14.2485 108.006 15.21C108.006 16.1716 107.744 16.9583 107.308 17.4828Z" fill="#37474D"/>
<path d="M94.8189 9.09109V10.7519C94.8189 10.7519 94.5569 10.3149 94.2949 10.14C94.0329 9.87781 93.7709 9.70298 93.3342 9.52815C92.9849 9.35333 92.5483 9.1785 92.1116 9.09109C91.6749 9.00367 91.1509 8.91626 90.6269 8.91626C89.7536 8.91626 88.9676 9.09109 88.269 9.44074C87.5703 9.79039 86.959 10.2275 86.5223 10.9268C86.0857 11.5387 85.8237 12.1506 85.649 13.0247C85.4743 13.8114 85.387 14.5981 85.387 15.4723C85.387 16.4338 85.5617 17.3079 85.7363 18.0947C85.9983 18.8814 86.2603 19.4933 86.697 20.1052C87.221 20.7171 87.9196 21.1541 88.6183 21.4164C89.4043 21.766 90.1903 21.8534 91.1509 21.8534C91.7623 21.8534 92.3736 21.6786 92.9849 21.5038C93.6836 21.2415 94.2949 20.8045 94.4696 20.1926V21.4164C94.4696 22.2905 94.2949 22.9898 93.7709 23.6017C93.2469 24.2136 92.4609 24.4758 91.2383 24.4758C90.4523 24.4758 89.9283 24.4758 89.1423 24.301C88.4436 24.1262 87.5703 23.7765 86.959 23.3394L85.125 26.0493C86.0857 26.7486 87.0463 27.1856 88.0943 27.5353C89.1423 27.7975 90.2776 27.8849 91.3256 27.8849C93.7709 27.8849 95.5176 27.273 96.6529 26.0493C97.8755 24.8255 98.3122 23.0772 98.3122 20.7171V9.09109H94.8189ZM93.9456 17.4828C93.4216 18.0947 92.8102 18.3569 91.9369 18.3569C91.0636 18.3569 90.3649 18.0947 89.9283 17.4828C89.4043 16.8709 89.2296 16.1716 89.2296 15.21C89.2296 14.2485 89.4916 13.5492 89.9283 12.9373C90.4523 12.3254 91.0636 12.0631 91.9369 12.0631C92.8102 12.0631 93.5089 12.3254 93.9456 12.9373C94.4696 13.5492 94.6442 14.2485 94.6442 15.21C94.6442 16.1716 94.3822 16.9583 93.9456 17.4828Z" fill="#37474D"/>
<path d="M11.1554 23.7766C0.0641495 18.1821 1.72346 8.21699 4.60543 3.75891C3.81944 4.54563 3.12078 5.41976 2.42212 6.38131C1.63613 7.69251 -0.28518 11.2765 0.85014 15.7345C1.89813 20.1926 5.04209 23.2521 7.57473 24.9129C11.592 27.5353 15.522 28.1472 18.2293 27.9724C22.3339 27.7101 25.0412 25.35 26.4385 23.1647C27.2245 21.8535 27.6612 20.6297 27.7485 20.1926C27.3118 20.8045 22.0719 29.1962 11.1554 23.7766Z" fill="#C93F1F"/>
<path d="M18.5777 23.5139C18.403 23.5139 18.2284 23.5139 17.9664 23.6013C15.6957 23.6013 13.1631 22.8146 11.4165 21.9405C10.1065 21.2412 8.35983 20.1048 7.04985 18.3565C0.49992 9.87743 9.05849 1.22352 11.4165 0.174561C10.9798 0.261974 10.4558 0.349387 9.84448 0.524214C8.44716 0.96128 6.43852 2.01024 4.60454 3.75851C4.34254 4.10816 4.08055 4.54523 3.81855 4.89488C2.94523 6.20608 1.19858 9.6152 2.15923 13.9859C3.20722 18.3565 6.26385 21.3286 8.70916 22.902C12.6391 25.5244 16.3944 26.0489 19.1017 25.8741C23.119 25.6118 25.739 23.2517 27.049 21.2412C27.3109 20.8915 27.4856 20.5419 27.6603 20.1922C27.6603 20.0174 27.7476 19.93 27.7476 19.93C27.8349 19.5803 27.9223 18.881 28.0096 18.7062C28.2716 16.9579 28.0969 15.2096 27.8349 13.7236C27.3983 16.7831 24.953 22.902 18.5777 23.5139Z" fill="#F39200"/>
<path d="M25.7408 8.3917C25.4788 7.95464 25.1294 7.43016 25.1294 7.34274C24.7801 6.90568 24.4308 6.3812 24.1688 6.03154C23.4701 5.15741 22.2475 5.07 21.3742 5.7693C20.5008 6.46861 20.4135 7.6924 21.0248 8.56653C21.8108 9.52807 22.2475 10.3148 22.7715 11.5386C23.0335 12.0631 23.4701 13.2868 23.7321 14.7729C23.9068 16.0841 24.0815 18.7065 22.6841 20.8044C22.2475 21.5037 21.1122 22.9897 18.9288 23.4268C18.8415 23.4268 18.6669 23.5142 18.4922 23.5142H19.1908C22.6841 23.252 25.0421 21.2414 26.1774 19.4058C27.0508 18.0072 27.4001 16.6085 27.4001 16.6085C27.4874 16.2589 27.5748 15.7344 27.5748 15.5596C27.6621 14.9477 27.7494 14.3358 27.6621 13.7239C27.4874 13.0246 27.4001 12.4127 27.2254 11.8882C26.9634 10.577 26.3521 9.44066 25.7408 8.3917Z" fill="#007DB0"/>
<path d="M6.17665 16.6959C5.91465 16.084 5.65265 15.3847 5.47799 14.6854C5.21599 13.7239 5.12866 11.1015 6.61331 8.91615C8.27262 6.556 10.1066 5.06997 14.3859 4.98256C15.7832 4.98256 16.8312 4.28325 17.0059 2.88464C17.1805 1.48603 16.2199 0.26224 14.7352 0.0874133C14.2112 0 13.6872 0 13.1632 0C13.1632 0 12.4646 0 11.4166 0.174827C9.66994 0.874133 7.31197 2.44757 5.73998 4.98256C5.04132 6.11893 3.38201 9.09098 4.34267 13.0246C4.86666 15.2099 5.91465 16.9582 7.1373 18.3568C6.78797 17.8323 6.43864 17.3078 6.17665 16.6959Z" fill="#007DB0"/>
</svg>
