<svg width="16" height="16" viewBox="0 0 16 16" fill="none" xmlns="http://www.w3.org/2000/svg">
<path d="M13.1395 5.75C13.4332 10.3333 10.2028 14 6.09125 14C4.6746 14 3.25795 13.8025 2.14652 13.2487C1.89197 13.1219 1.99147 12.7686 2.27308 12.7492C3.64167 12.6548 4.77422 12.3147 5.5039 11.5556C2.32253 10.4522 1.77376 6.36081 2.34526 4.22662C2.41236 3.97602 2.72549 3.97472 2.85171 4.19928C3.82759 5.9356 5.68316 6.90502 8.00874 6.68131C7.90813 6.39047 7.85333 6.0769 7.85333 5.75C7.85333 4.23122 9.03668 3 10.4964 3C11.3882 3 12.1767 3.45945 12.6554 4.16323L13.664 4.01331C13.9153 3.97596 14.0907 4.26553 13.9499 4.48529L13.1395 5.75Z" fill="#B1B5C4"/>
</svg>
