<svg width="24" height="24" viewBox="0 0 24 24" fill="none" xmlns="http://www.w3.org/2000/svg">
<path d="M15.8991 12.8068C16.9336 11.9929 17.6887 10.8768 18.0593 9.61378C18.4299 8.35074 18.3977 7.00359 17.967 5.75974C17.5364 4.51589 16.7287 3.4372 15.6565 2.67374C14.5842 1.91027 13.3006 1.5 11.9843 1.5C10.6681 1.5 9.38449 1.91027 8.31223 2.67374C7.23997 3.4372 6.43233 4.51589 6.00168 5.75974C5.57102 7.00359 5.53877 8.35074 5.9094 9.61378C6.28003 10.8768 7.03512 11.9929 8.06961 12.8068C6.29699 13.517 4.75031 14.6949 3.59446 16.215C2.43862 17.7351 1.71694 19.5403 1.50636 21.4382C1.49112 21.5768 1.50332 21.717 1.54227 21.8509C1.58121 21.9847 1.64614 22.1096 1.73335 22.2184C1.90947 22.438 2.16563 22.5787 2.44548 22.6095C2.72533 22.6403 3.00595 22.5586 3.2256 22.3825C3.44526 22.2064 3.58595 21.9502 3.61673 21.6704C3.84844 19.6077 4.83198 17.7027 6.37944 16.3193C7.9269 14.936 9.9298 14.1712 12.0055 14.1712C14.0811 14.1712 16.084 14.936 17.6315 16.3193C19.1789 17.7027 20.1625 19.6077 20.3942 21.6704C20.4229 21.9297 20.5466 22.1691 20.7414 22.3425C20.9363 22.516 21.1885 22.6111 21.4494 22.6095H21.5654C21.842 22.5777 22.0948 22.4378 22.2688 22.2204C22.4427 22.003 22.5237 21.7256 22.494 21.4488C22.2824 19.5455 21.5569 17.7356 20.3951 16.2132C19.2333 14.6908 17.6791 13.5133 15.8991 12.8068ZM11.9843 12.0576C11.1496 12.0576 10.3335 11.8101 9.63943 11.3463C8.94534 10.8825 8.40435 10.2234 8.08489 9.45212C7.76544 8.68088 7.68185 7.83223 7.84471 7.01348C8.00757 6.19474 8.40955 5.44268 8.99984 4.85239C9.59012 4.26211 10.3422 3.86013 11.1609 3.69727C11.9797 3.53441 12.8283 3.618 13.5996 3.93745C14.3708 4.25691 15.03 4.79789 15.4938 5.49199C15.9575 6.18609 16.2051 7.00212 16.2051 7.83691C16.2051 8.95632 15.7604 10.0299 14.9689 10.8214C14.1773 11.613 13.1038 12.0576 11.9843 12.0576Z" fill="#3B71FE"/>
</svg>
