<svg width="50" height="50" viewBox="0 0 50 50" fill="none" xmlns="http://www.w3.org/2000/svg">
<rect x="0.880859" y="0.915527" width="48.2376" height="48.1692" rx="18" fill="#EBF1FF"/>
<path d="M17.3937 27.2294L22.3092 27.0848L23.9019 23.634C24.0724 23.2647 23.7547 22.8611 23.3577 22.9497C22.0395 23.2438 20.1842 23.7307 19.1426 24.2515C18.1424 24.7515 17.3923 25.7831 16.9627 26.5722C16.7919 26.8859 17.0367 27.2399 17.3937 27.2294Z" fill="#3B71FE"/>
<path d="M33.4998 36.5435L29.2851 29.1677C28.9147 28.5195 27.9901 28.4898 27.5762 29.1111C26.2824 31.0532 24.4845 33.6988 23.6424 34.7515C22.5757 36.0848 21.4202 36.307 20.9757 36.2515C19.7535 36.1959 16.9758 35.9848 15.6424 35.5848C14.3091 35.1848 15.0025 34.3662 15.6424 34.0848C16.4062 33.7489 18.3091 33.1514 19.6424 32.7515C20.9758 32.3515 21.9758 30.807 22.3091 30.0848L27.3091 20.5847C28.5869 17.9736 31.6091 12.7847 33.4758 12.918C35.3424 13.0514 34.8091 15.0847 34.3091 16.0847L31.638 21.8984C31.5336 22.1254 31.5175 22.3816 31.5938 22.6195C32.5792 25.6931 34.4637 31.5872 34.9758 33.2514C35.3996 34.6289 34.7989 35.8871 34.2277 36.6245C34.0318 36.8774 33.6585 36.8213 33.4998 36.5435Z" fill="#3B71FE"/>
</svg>
